<?xml version="1.0" encoding="UTF-8" standalone="no"?>
<!-- Created with Inkscape (http://www.inkscape.org/) -->

<svg
   width="119.57744mm"
   height="60.329494mm"
   viewBox="0 0 119.57744 60.329494"
   version="1.1"
   id="svg1"
   xml:space="preserve"
   xmlns="http://www.w3.org/2000/svg"
   xmlns:svg="http://www.w3.org/2000/svg"><defs
     id="defs1" /><g
     id="layer1"
     transform="translate(-36.364216,-20.217885)"><g
       id="g1"
       transform="matrix(0.28012164,0,0,0.28012164,64.711432,3.2870825)"><path
         id="path2"
         style="fill:#d3ac4a"
         d="m 112.73435,60.440903 c -0.14163,0.0013 -0.32674,0.212449 -0.70655,0.702863 -1.37665,1.777545 -8.46357,11.061161 -13.08691,17.143591 -2.584023,3.399514 -5.390006,7.090285 -6.235374,8.201916 -0.845369,1.11163 -1.739719,2.258453 -1.988679,2.549494 -0.495644,0.579421 -2.710114,3.453832 -6.002932,7.790529 -1.16668,1.536538 -4.144059,5.402964 -6.6154,8.593014 -2.47134,3.19005 -6.129691,7.95275 -8.12997,10.58353 -4.789353,6.29901 -8.324099,10.91191 -11.653509,15.20288 -0.720123,0.9281 -2.170619,2.8317 -3.222841,4.23194 -1.052222,1.40023 -2.316994,3.0397 -2.811453,3.6416 -0.494459,0.6019 -1.495362,1.87647 -2.222966,2.83359 -0.727604,0.95713 -1.446499,1.7457 -1.597584,1.7507 -0.151085,0.005 -0.693502,-0.49763 -1.20649,-1.11609 -0.846559,-1.02062 -11.590092,-14.73055 -12.819414,-16.35956 -0.284036,-0.37638 -1.402227,-1.8572 -2.484926,-3.2911 l -1.968386,-2.60852 -0.60509,0.7785 c -0.332719,0.42783 -2.125935,2.88283 -3.984736,5.45503 -4.904972,6.78746 -11.269163,15.48695 -15.5478519,21.25193 -2.0520661,2.7649 -5.4977927,7.46752 -7.6577044,10.4507 -2.15991178,2.98318 -4.7285468,6.4956 -5.7077661,7.80529 -0.9792193,1.30969 -2.5496133,3.45355 -3.4884893,4.76324 -0.9388761,1.30969 -3.0583503,4.227 -4.7115823,6.48257 -3.716473,5.07054 -7.214,9.92754 -9.524627,13.22896 -3.203572,4.57725 -5.906643,8.31809 -6.882894,9.52463 -0.529857,0.65484 -1.362936,1.78499 -1.85032,2.5126 -0.487384,0.7276 -1.4994,2.15807 -2.248794,3.17672 -0.749394,1.01864 -2.632896,3.63748 -4.185818,5.82029 -1.552922,2.18281 -3.511084,4.92178 -4.351849,6.08595 -0.840765,1.16416 -3.4621,4.79487 -5.825832,8.06909 -2.363732,3.27422 -5.422007,7.50003 -6.794345,9.39181 -1.372338,1.89177 -3.184993,4.39132 -4.029011,5.55464 -0.844018,1.16332 -2.772582,3.84224 -4.285437,5.95313 -1.512855,2.1109 -3.725448,5.14935 -4.916353,6.75007 -3.105759,4.17454 -11.251346,15.46659 -11.251346,15.59766 0,0.12841 24.064325,-0.1198 24.506129,-0.25274 0.162299,-0.0488 2.036042,-2.35283 4.165526,-5.12112 2.129484,-2.76829 3.992162,-5.10676 4.137854,-5.19676 0.145691,-0.09 0.263804,-0.29074 0.263804,-0.4446 0,-0.001 1.56e-4,-0.003 0,-0.004 -0.07885,-0.29047 -5.127374,-0.2022 -5.429204,0.0996 -0.09012,0.0901 -0.01351,0.40394 0.169721,0.69733 0.271032,0.434 0.265013,0.6151 -0.03136,0.9722 -0.334859,0.40349 -0.402009,0.38904 -0.837532,-0.1771 -0.260592,-0.33874 -0.476445,-0.74908 -0.479645,-0.91316 -0.01027,-0.52082 -0.683989,-0.88699 -1.951783,-1.06076 -1.219367,-0.16714 -1.228892,-0.16108 -1.223092,0.59587 0.008,1.04596 0.937709,3.01253 1.424174,3.01253 0.218549,0 0.700556,-0.13892 1.07182,-0.30808 1.09827,-0.5004 1.050902,-0.0922 -0.16603,1.44078 -0.630273,0.79394 -1.4562,1.84554 -1.835562,2.33735 l -0.68995,0.89472 -8.107832,0.083 c -4.459205,0.046 -8.107832,0.004 -8.107832,-0.0941 0,-0.33294 8.331546,-11.88318 12.588816,-17.45167 2.557749,-3.34553 5.629669,-7.63518 10.703445,-14.9483 1.362974,-1.96453 3.084068,-4.3468 3.824241,-5.29269 0.740174,-0.94588 1.926541,-2.55285 2.636198,-3.5715 0.709657,-1.01865 2.856571,-3.99419 4.770615,-6.61356 5.170014,-7.07518 9.038771,-12.46188 11.118522,-15.48144 1.703971,-2.47397 6.11591,-8.56676 10.439641,-14.417 0.96795,-1.30969 2.408194,-3.31093 3.200703,-4.44593 0.792509,-1.13501 2.9032068,-4.05047 4.6912889,-6.48073 1.7880822,-2.43025 4.2217365,-5.78867 5.4070662,-7.46216 1.18532962,-1.67349 3.7103015,-5.10976 5.6118373,-7.63556 4.4253316,-5.87816 5.3992643,-7.2022 9.3991816,-12.77514 9.282454,-12.9329 16.774082,-22.71669 17.394482,-22.71669 0.483781,0 0.68303,1.09174 0.356044,1.95178 -0.359388,0.94526 -2.141878,3.70721 -4.888682,7.57285 -1.18913,1.67349 -3.882085,5.5201 -5.984484,8.54689 -2.102399,3.02679 -4.806074,6.82106 -6.006621,8.43251 -1.200547,1.61144 -2.182381,3.08953 -2.182381,3.28372 0,0.1942 -0.533384,0.66449 -1.184353,1.04599 -2.1311125,1.24891 -4.6817668,4.80199 -5.1838466,7.22049 -0.2520024,1.21389 -0.2257365,1.96459 0.1457381,4.22825 0.4697277,2.86239 0.3814455,3.36003 -0.5626596,3.1841 -0.3749664,-0.0699 -0.6161555,-0.6019 -1.0201664,-2.25248 -0.5791764,-2.36621 -0.8154176,-2.80332 -1.1031816,-2.04218 -0.3560407,0.94173 -2.93721195,4.22874 -3.89434211,4.95878 -0.52563659,0.40092 -1.13774169,1.08 -1.35960689,1.50904 l -0.404008,0.7785 h 4.5713783 c 3.8271229,-3.5e-4 4.719444,-0.0757 5.4827024,-0.46304 1.7876829,-0.90722 2.187703,-2.64902 1.5662228,-6.82756 -0.5301334,-3.56437 0.4314212,-5.97009 2.8077636,-7.02125 0.77513,-0.34288 2.307887,-0.54801 5.565718,-0.74898 7.051593,-0.435 7.13465,-0.45128 7.98792,-1.44816 0.406788,-0.47525 1.604423,-2.04524 2.660181,-3.48849 1.055757,-1.44325 2.220033,-2.97997 2.588234,-3.41654 0.644135,-0.76372 0.683104,-0.77633 1.047838,-0.29332 0.20849,0.2761 0.30394,0.63464 0.21215,0.7951 -1.258641,2.20041 -5.263551,8.06372 -5.892244,8.62622 -0.08132,0.0728 -1.072603,1.50138 -2.202674,3.17487 -2.910931,4.31071 -4.052855,5.95599 -5.600769,8.0691 -0.74619,1.01864 -1.698629,2.44726 -2.117813,3.17487 -0.943089,1.63697 -5.009152,7.34299 -6.88105,9.65745 -0.7650166,0.94589 -1.9091275,2.55287 -2.5439591,3.57151 -1.1239706,1.80352 -3.9252152,5.80401 -8.4620308,12.08703 -4.7199747,6.53668 -7.891823,11.01244 -9.2479091,13.04817 -0.775501,1.16417 -2.312726,3.32476 -3.414698,4.80013 -3.787172,5.07044 -6.017751,8.17279 -8.347654,11.60555 -1.283996,1.89177 -3.013097,4.33227 -3.840844,5.42367 -0.827747,1.09141 -2.207885,3.05507 -3.067878,4.36476 -0.859993,1.30969 -1.652629,2.42167 -1.76177,2.47017 -0.109137,0.0485 -0.199237,0.21608 -0.199237,0.37264 0,0.15655 -0.454145,0.88997 -1.010942,1.63079 -2.12499,2.82734 -3.335979,5.56842 -2.656491,6.01216 0.211116,0.13783 61.992062,0.22411 148.442502,0.20661 81.44513,-0.0165 148.20936,0.0477 148.36503,0.1439 0.15567,0.0962 0.40391,0.10052 0.55159,0.009 0.32496,-0.20083 -0.83802,-2.39478 -2.2488,-4.243 -0.54686,-0.71643 -2.58923,-3.56605 -4.54001,-6.33315 -1.95079,-2.76711 -4.55517,-6.45936 -5.7871,-8.20561 -1.23193,-1.74625 -2.94692,-4.18858 -3.81132,-5.42551 -0.86439,-1.23693 -4.04359,-5.70116 -7.06369,-9.92126 -3.02009,-4.22011 -6.1525,-8.61178 -6.96222,-9.75891 -4.16903,-5.90628 -7.18354,-10.11072 -9.12799,-12.73087 -3.19919,-4.31091 -5.71895,-7.85489 -9.77921,-13.75841 -2.00169,-2.91041 -4.94518,-7.07801 -6.54161,-9.26082 -1.59642,-2.18282 -3.2704,-4.50318 -3.71909,-5.15802 -0.4487,-0.65484 -2.76444,-4.00368 -5.14695,-7.44002 -2.38251,-3.43633 -4.33156,-6.4563 -4.33156,-6.71133 0,-0.35798 0.13632,-0.42153 0.59587,-0.28225 0.32742,0.0992 3.00273,0.26835 5.94574,0.37633 2.94301,0.10798 5.42705,0.27272 5.52145,0.36712 7.3e-4,7.3e-4 0.003,0.003 0.004,0.004 0.0797,0.12437 -0.25458,1.23627 -0.75451,2.49599 -1.63833,4.12826 -2.06542,7.32665 -1.19727,8.95828 0.62636,1.17718 2.79441,3.5139 3.92017,4.22456 1.46609,0.9255 2.65822,1.15384 7.54886,1.44631 5.27628,0.31554 6.43159,0.71462 7.46769,2.58454 0.73072,1.31879 0.79993,2.66817 0.31546,6.1911 -0.30138,2.19188 -0.29757,2.70287 0.0295,3.56228 0.65584,1.72317 1.27976,1.90605 6.78512,1.99975 3.56248,0.0607 4.82804,0.002 4.8278,-0.22691 -1.8e-4,-0.17056 -0.48817,-0.72906 -1.08473,-1.23969 -1.14175,-0.97729 -1.89329,-1.14134 -5.92545,-1.29873 l -1.58836,-0.0627 0.0498,-1.05891 c 0.0271,-0.58209 0.12712,-2.36742 0.22322,-3.96814 0.15536,-2.58648 0.1145,-3.05023 -0.36712,-4.15999 -0.61006,-1.4057 -2.41766,-3.49416 -3.51616,-4.06221 -1.15216,-0.5958 -2.95633,-0.87649 -7.49905,-1.16591 -3.68364,-0.23469 -4.41114,-0.35719 -5.62291,-0.95006 -1.84445,-0.9024 -2.71367,-2.32099 -2.71367,-4.42749 0,-1.63954 2.09964,-8.61671 2.75795,-9.16305 0.493,-0.40916 0.22824,-1.1877 -0.95375,-2.79485 -2.47593,-3.36652 -5.97043,-8.19368 -7.83112,-10.81782 -1.12374,-1.5848 -3.08592,-4.35056 -4.35923,-6.14498 -1.27331,-1.79443 -2.3152,-3.42964 -2.3152,-3.63423 0,-0.2046 0.17835,-0.51985 0.39663,-0.70101 0.21828,-0.18115 0.39847,-0.50281 0.39847,-0.71394 0,-0.21113 0.16266,-0.34595 0.36342,-0.29885 0.40305,0.0945 3.63254,4.07372 6.59142,8.12259 3.28417,4.49398 9.11592,12.24536 10.8787,14.45758 0.92925,1.16616 2.97225,3.90329 4.53817,6.0841 1.56593,2.18082 4.28571,5.84593 6.04536,8.14473 1.75966,2.29879 3.85404,5.12052 4.6544,6.26858 0.80037,1.14807 2.65895,3.67259 4.12863,5.61 1.46969,1.9374 3.72082,5.01038 5.00306,6.82939 1.28224,1.81901 3.0562,4.25168 3.9423,5.40707 0.8861,1.15539 2.68243,3.62582 3.99212,5.48823 1.30968,1.86241 5.36621,7.34633 9.01547,12.18666 3.64926,4.84032 7.33325,9.8115 8.18531,11.04842 0.85205,1.23693 3.76032,5.32614 6.46228,9.08741 2.70197,3.76126 5.26936,7.34496 5.70592,7.96394 0.43657,0.61898 1.26021,1.69484 1.83003,2.389 0.9878,1.20332 2.18296,2.86755 5.22997,7.28321 0.75313,1.09141 2.16035,3.05508 3.12691,4.36476 0.96655,1.30969 2.51486,3.45356 3.44052,4.76324 0.92566,1.30969 2.8335,3.8703 4.24116,5.68931 3.13196,4.04718 5.63871,7.79298 5.49747,8.21668 -0.13343,0.40026 -15.82558,0.35872 -16.71007,-0.0443 -0.67114,-0.30579 -2.09156,-2.39191 -1.81527,-2.66571 0.10291,-0.10198 3.01588,-0.20883 6.4752,-0.23613 3.45931,-0.0273 6.35223,-0.14798 6.42723,-0.26934 0.075,-0.12136 -0.18914,-0.71282 -0.58664,-1.31349 l -0.72316,-1.09211 -7.04339,0.19186 -7.04523,0.19001 -0.98696,-0.86705 c -1.30197,-1.14315 -1.84882,-2.23049 -1.64555,-3.27265 0.28742,-1.47357 2.86709,-8.5442 3.35197,-9.18703 l 0.47227,-0.62538 0.70286,0.65858 c 0.63739,0.59648 0.68817,0.78215 0.53683,1.9813 -0.0918,0.72761 -0.45443,2.39464 -0.80617,3.70433 -0.62804,2.33996 -0.89652,4.21906 -0.63829,4.4773 0.15214,0.1521 10.02472,0.2452 10.17399,0.0959 0.15245,-0.15245 -0.59258,-1.21651 -3.03836,-4.34263 -1.22806,-1.56968 -2.51925,-3.39553 -2.86865,-4.05668 -0.73369,-1.38832 -1.5431,-2.49608 -2.76533,-3.7855 -1.03717,-1.09418 -1.45785,-1.17059 -7.74441,-1.39466 -2.51805,-0.0897 -5.0797,-0.32282 -5.8203,-0.52945 -2.53464,-0.70717 -4.34662,-2.92365 -4.35922,-5.33143 -0.003,-0.60925 0.2302,-2.0961 0.52022,-3.30586 0.29003,-1.20977 0.52846,-2.52098 0.52946,-2.91291 0.002,-0.83365 -0.84662,-1.53671 -1.85586,-1.53671 -0.79527,0 -1.05151,0.56979 -1.6972,3.75967 -0.63624,3.14313 -0.551,5.24772 0.28041,6.88843 0.87956,1.73573 3.02787,3.87496 4.7042,4.68576 1.37259,0.66389 3.97443,1.02357 7.61159,1.05337 1.11589,0.009 2.216,0.0888 2.44618,0.1771 0.68099,0.26132 0.48518,1.32977 -0.61616,3.35751 -1.21559,2.23807 -2.40375,5.86503 -2.40375,7.33486 0,0.91527 0.23747,1.30558 2.04771,3.35936 1.12666,1.27823 2.72061,3.03966 3.54199,3.91279 0.82137,0.87312 1.95409,2.14426 2.51629,2.82621 l 1.02201,1.2397 12.23646,0.0184 c 6.73034,0.009 12.23646,-0.0354 12.23646,-0.0978 0,-0.0624 -0.15406,-0.27075 -0.34313,-0.46304 -0.18906,-0.1923 -1.70066,-2.28863 -3.35935,-4.65993 -1.65869,-2.3713 -3.56197,-4.99198 -4.2301,-5.82214 -0.66813,-0.83017 -2.27046,-2.99773 -3.56043,-4.81674 -1.28996,-1.81901 -3.02313,-4.19943 -3.85007,-5.29084 -1.79406,-2.36781 -7.95415,-10.93476 -11.32145,-15.7434 -1.32473,-1.89178 -3.90359,-5.46242 -5.7299,-7.93627 -5.99821,-8.12497 -8.43879,-11.48775 -11.86566,-16.34295 -1.8602,-2.63553 -3.77656,-5.27522 -4.25961,-5.86642 -0.48306,-0.59121 -3.06929,-4.11433 -5.74651,-7.82927 -2.67721,-3.71494 -7.3671,-10.12857 -10.42304,-14.25281 -10.76942,-14.53424 -14.83816,-20.03785 -16.93328,-22.9067 -1.16417,-1.59409 -2.75311,-3.73593 -3.53092,-4.75955 -0.77781,-1.02363 -2.14822,-2.85703 -3.0439,-4.07328 -0.89568,-1.21625 -2.46154,-3.30005 -3.48111,-4.63042 -1.01956,-1.33036 -2.44167,-3.25202 -3.15827,-4.27067 -0.71659,-1.01865 -1.97444,-2.7439 -2.79669,-3.83531 -3.16097,-4.19568 -9.18671,-12.36316 -10.03195,-13.59607 -0.79621,-1.16139 -0.914,-1.24068 -1.16037,-0.79326 -0.28381,0.51541 -1.94662,2.70746 -8.2056,10.81598 -2.0219,2.61937 -5.00162,6.51434 -6.62278,8.65573 -1.62116,2.14138 -3.01087,3.89857 -3.08817,3.90357 -0.2219,0.0145 -1.34572,-1.45399 -20.48081,-26.75124 -2.90159,-3.836 -6.71249,-8.82789 -8.46757,-11.09454 -1.75507,-2.26664 -5.2152,-6.783066 -7.68906,-10.035629 -2.47385,-3.252563 -5.74787,-7.545534 -7.27584,-9.539386 -1.52797,-1.993852 -4.62923,-6.051025 -6.89211,-9.015466 -2.26288,-2.964442 -6.07378,-7.905434 -8.46757,-10.980163 -2.39379,-3.074728 -4.47921,-5.803702 -4.6341,-6.065655 -0.10414,-0.176138 -0.17982,-0.273886 -0.27672,-0.273028 z m -0.22137,28.883806 c 0.0882,-0.0027 0.17508,0.05517 0.28225,0.162341 0.37236,0.372352 3.59354,4.599928 12.76038,16.75065 3.18377,4.2201 6.61492,8.74439 7.6245,10.05408 2.0804,2.69881 7.37148,9.68417 15.83195,20.90142 3.18296,4.2201 6.9928,9.22122 8.46756,11.11299 3.50779,4.49967 6.24835,8.09713 11.06318,14.52399 2.16902,2.89522 4.81363,6.37661 5.87564,7.73519 1.06201,1.35857 1.98575,2.62134 2.05325,2.80592 0.20272,0.55462 0.003,0.80429 7.90306,-9.85116 2.53538,-3.41974 5.01072,-6.78385 5.50299,-7.47507 0.48457,-0.68043 0.95099,-1.23553 1.046,-1.24892 h 0.002 0.002 c 0.16011,0.007 1.3901,1.71782 8.35687,11.63322 3.98831,5.67633 6.72116,9.52973 14.70294,20.72617 1.95363,2.74044 4.3075,6.07451 5.23182,7.40865 0.92432,1.33413 2.7815,3.91274 4.12678,5.73175 1.34528,1.81901 3.20298,4.37963 4.12679,5.68932 0.9238,1.30969 3.8369,5.35715 6.47335,8.99517 2.63646,3.63802 6.32626,8.81748 8.20007,11.50962 1.87381,2.69213 4.96882,7.09815 6.8792,9.79028 1.91039,2.69214 3.99171,5.66767 4.62488,6.61355 0.63318,0.94589 1.43062,2.05767 1.771,2.47017 0.34039,0.41251 0.55003,0.86139 0.46673,0.99618 -0.18307,0.29623 -285.856322,0.20226 -286.03952,-0.0941 -0.103263,-0.16703 4.708191,-7.1766 11.020748,-16.05517 1.472216,-2.07067 6.632437,-9.18166 9.1316879,-12.58328 0.7484226,-1.01865 2.4343731,-3.40092 3.7449144,-5.29269 3.2304943,-4.66323 6.52745214,-9.35268 8.3716364,-11.90624 2.5677358,-3.55543 5.409516,-7.55646 7.0470803,-9.92126 0.856539,-1.23693 3.085524,-4.41914 4.953249,-7.07106 1.867725,-2.65192 4.349897,-6.22035 5.514064,-7.92889 1.164167,-1.70854 3.373264,-4.83593 4.910818,-6.95115 3.711628,-5.10609 7.933396,-11.21223 8.849436,-12.80097 l 0.737914,-1.28212 0.688105,0.85967 c 0.378279,0.47233 2.235015,2.97053 4.126785,5.5528 6.405841,8.74395 9.714264,13.00235 9.928636,12.77883 0.117468,-0.12248 1.327174,-1.71191 2.687852,-3.53092 2.319407,-3.10068 5.785813,-7.62209 10.625964,-13.86172 3.988371,-5.14156 11.195868,-14.64297 13.798995,-18.18958 2.147688,-2.92609 9.07067,-12.13303 12.90243,-17.1602 5.319718,-6.97933 12.211125,-16.18306 13.572085,-18.12501 0.71388,-1.01865 3.03717,-4.172532 5.16356,-7.010188 2.12639,-2.837656 4.08288,-5.494403 4.34631,-5.903313 0.2468,-0.383104 0.39543,-0.554459 0.54237,-0.55897 z m 0.20661,44.296991 c -0.88054,-0.001 -5.7343,9.22511 -6.61171,12.56852 -0.36108,1.37588 -0.48533,2.80289 -0.48333,5.55465 0.002,3.58125 0.0351,3.80247 0.99987,6.66705 0.54883,1.6296 1.23818,3.50502 1.53117,4.16737 0.58702,1.32707 0.92986,1.44447 2.42221,0.82093 0.81786,-0.34172 0.93933,-0.52402 1.09027,-1.62525 0.0935,-0.68185 0.16987,-2.3833 0.16787,-3.78181 -0.004,-3.1047 0.51792,-8.74456 0.80433,-8.84021 0.008,-0.001 0.0182,-2.6e-4 0.0258,0.007 0.1156,0.1156 0.33319,2.65074 0.48334,5.63213 0.31206,6.19641 0.47065,7.6558 0.88549,8.15949 0.47433,0.57581 1.48706,0.86107 2.02742,0.57188 0.6467,-0.3461 1.95209,-3.54188 2.81515,-6.89211 0.63647,-2.47083 0.68805,-3.03179 0.56081,-6.18373 -0.16255,-4.02632 -0.66689,-6.06332 -2.43696,-9.85115 -1.39516,-2.98557 -3.84371,-6.97451 -4.28175,-6.97513 z m 24.15747,6.69472 c -0.13832,-0.13831 -4.00588,2.41495 -7.04708,4.65255 -5.17662,3.80876 -7.58146,7.15268 -9.29772,12.92641 -0.98067,3.29912 -1.4992,4.97171 -1.66953,5.38862 -0.13163,0.32216 0.17345,0.59369 1.2563,1.12348 0.78608,0.38459 1.62111,0.69917 1.85585,0.69917 0.498,0 1.4742,-1.40527 5.19492,-7.48798 1.49587,-2.4455 2.77521,-4.39178 2.84281,-4.32418 0.16968,0.16968 -1.18021,3.22047 -3.65267,8.25541 -1.14719,2.33615 -2.08646,4.37271 -2.08646,4.52711 0,0.1544 0.4468,0.58823 0.9925,0.96297 0.5457,0.37474 1.25068,0.68833 1.56622,0.69733 1.22358,0.0339 5.83457,-4.69816 7.39575,-7.58944 2.0614,-3.81768 2.98279,-7.11622 3.1841,-11.40631 0.12899,-2.74892 -0.21118,-8.10132 -0.53499,-8.42514 z m -48.623012,0.65859 c -0.01217,0.002 -0.02156,0.007 -0.02767,0.0129 -0.34387,0.34387 -0.712711,3.99341 -0.721311,7.1301 -0.01248,4.56497 1.001102,8.76966 2.853883,11.83061 1.098316,1.81451 5.728045,6.51749 7.159612,7.27399 0.527199,0.27859 0.99012,0.51238 1.02939,0.51838 0.03927,0.006 0.541591,-0.28485 1.116095,-0.64752 l 1.044143,-0.65858 -1.077349,-2.18608 c -3.32999,-6.75273 -4.91884,-10.41317 -4.64148,-10.69053 0.183754,-0.18375 3.7337,5.213 5.683779,8.63913 l 1.58283,2.77825 1.11978,-0.0756 c 1.7318,-0.11543 2.11244,-0.42648 2.11044,-1.72118 -0.004,-2.19769 -2.0013,-8.98048 -3.28003,-11.13697 -1.06967,-1.80392 -3.348673,-4.28836 -5.364634,-5.84797 -2.413799,-1.8674 -8.080398,-5.30178 -8.587477,-5.2189 z m 122.910672,11.51515 c -0.41505,0.0653 -1.95916,5.98546 -1.95916,7.55255 0,1.75376 0.76247,2.69174 2.40376,2.95719 1.99714,0.32304 7.38467,0.29191 7.38467,-0.0424 0,-0.16336 -0.70255,-1.04734 -1.56069,-1.96469 -1.73817,-1.85811 -3.65408,-4.45064 -5.05286,-6.83493 -0.50933,-0.86816 -1.04891,-1.61754 -1.19727,-1.66584 -0.006,-0.002 -0.0119,-0.003 -0.0185,-0.002 z m -11.21998,0.71024 c -1.45521,0 -2.64542,0.0563 -2.64542,0.12545 0,0.30728 1.03226,1.76367 2.24141,3.16196 1.2382,1.43188 1.3247,1.48607 1.4869,0.90395 0.0948,-0.34013 0.48474,-1.31831 0.86705,-2.17316 0.38231,-0.85486 0.69548,-1.65834 0.69548,-1.78575 0,-0.001 1.5e-4,-0.003 0,-0.004 -5.8e-4,-0.002 -0.003,-0.007 -0.004,-0.009 -0.088,-0.12057 -1.24337,-0.21953 -2.64173,-0.21953 z m -45.0718,3.04575 c -0.16667,0.001 -0.37408,0.0148 -0.63461,0.0369 -9.32975,0.79105 -14.30733,2.56055 -19.45326,6.9161 -2.12072,1.79498 -6.014,5.64629 -6.014,5.94943 0,0.5145 1.88919,2.57348 2.36133,2.57348 0.56742,0 2.45066,-0.98033 6.89949,-3.58995 3.02381,-1.77373 5.12227,-2.83138 5.28162,-2.66756 l 0.002,0.002 c 5.2e-4,7.5e-4 0.003,0.005 0.004,0.006 l 0.002,0.002 c 0.002,0.004 0.002,0.0112 0.002,0.0166 0,0.20477 -5.17563,4.10444 -7.91782,5.96603 -2.34341,1.59086 -2.5298,1.78262 -2.496,2.55687 0.0201,0.46035 0.2585,1.14712 0.52946,1.52564 0.58946,0.82347 1.03754,0.78445 4.85732,-0.42799 4.26898,-1.35502 7.05338,-2.84359 9.36966,-5.00675 2.97551,-2.77879 4.69334,-5.55746 6.77037,-10.95064 0.33626,-0.87312 0.71285,-1.70101 0.83568,-1.83925 0.12283,-0.13825 0.22322,-0.44958 0.22322,-0.69364 0,-0.276 -0.12168,-0.37834 -0.62169,-0.37449 z m -84.773425,0.63091 c -0.824069,0.0392 -0.768492,0.68788 0.25458,3.00147 2.054294,4.64561 3.578198,6.96753 6.235375,9.50064 2.74892,2.62057 5.531217,4.01994 11.965278,6.014 2.565862,0.79522 2.974992,0.74396 3.647141,-0.45197 l 0.570039,-1.01463 -0.852291,-0.80433 c -0.468584,-0.44229 -1.635802,-1.3258 -2.593768,-1.96285 -2.009208,-1.33614 -7.915578,-5.87604 -7.797908,-5.99371 0.27887,-0.27887 10.359473,5.26927 11.885952,6.54161 0.460526,0.38385 0.570746,0.32347 1.652928,-0.90394 0.638001,-0.72362 1.16037,-1.42028 1.16037,-1.54778 0,-0.1275 -0.326663,-0.55653 -0.726845,-0.95375 -0.400182,-0.39721 -1.977125,-2.00067 -3.505093,-3.56228 -2.317265,-2.3683 -5.09694,-4.65993 -5.650578,-4.65993 -0.07433,0 -0.899756,-0.35457 -1.835561,-0.78772 -3.443783,-1.59397 -9.686753,-2.63958 -14.409619,-2.41483 z m 142.745805,0.86152 c 0.0642,-0.005 0.11854,0.11158 0.19739,0.35789 0.0932,0.29104 0.27213,0.7214 0.39663,0.95744 0.16941,0.32118 0.0604,0.50349 -0.42983,0.72684 -0.36025,0.16415 -0.70513,0.29886 -0.76743,0.29886 h -0.002 -0.002 -0.002 -0.002 l -0.002,-0.002 c -0.13327,-0.0734 0.1814,-1.64549 0.42984,-2.11412 0.0762,-0.14368 0.13268,-0.22118 0.18263,-0.22506 z m -189.739869,4.27436 c -0.07416,-0.0742 -2.200999,-0.0194 -4.726341,0.12176 -6.016161,0.3362 -6.825448,0.72632 -6.810948,3.28556 0.0036,0.62803 0.12892,1.67697 0.280408,2.33181 0.151489,0.65484 0.279397,2.05416 0.284097,3.10847 0.0094,2.10114 -0.5648,3.45542 -2.069849,4.87945 -1.2634871,1.19548 -2.0484501,1.35988 -7.3643839,1.54224 -5.5715799,0.19114 -6.2349711,0.35418 -8.0155928,1.96286 -2.1986909,1.98639 -2.6516769,4.3018 -1.7857523,9.12799 0.2167031,1.20779 0.3388291,2.25379 0.2767178,2.35211 v 0.002 l -0.00184,0.002 c -0.069095,0.0691 -1.7646313,0.17713 -3.7670518,0.23983 l -3.641606,0.11437 -1.156681,1.13824 c -0.634945,0.62423 -1.089823,1.23873 -1.014632,1.36883 0.148475,0.24026 6.9392572,0.19372 9.3844235,-0.0646 1.542264,-0.16291 2.8316159,-1.02729 3.2818733,-2.20083 0.178306,-0.46474 0.1581286,-1.7913 -0.064568,-4.12678 -0.2997645,-3.14373 -0.287579,-3.5266 0.1346693,-4.41642 0.8353773,-1.76043 1.2712301,-1.89481 6.9124111,-2.1049 3.7397725,-0.13927 5.32776,-0.30135 6.1468251,-0.62907 1.3170717,-0.52699 3.7566907,-3.06552 5.0731597,-5.27793 1.116683,-1.87667 1.304142,-3.69147 0.721311,-7.01757 -0.216746,-1.23693 -0.376469,-2.26519 -0.354199,-2.28569 0.143299,-0.13197 2.74253,-0.33367 4.434865,-0.34497 l 2.01266,-0.0148 0.983271,-1.47952 c 0.523606,-0.7886 0.898667,-1.49595 0.854136,-1.60681 l -0.0018,-0.002 -0.0018,-0.002 -0.0018,-0.002 z m 89.560639,4.54556 c -1.99992,-0.022 -3.99809,0.1383 -5.32589,0.49071 -2.32775,0.6178 -6.15135,2.52826 -7.995302,3.99396 -1.765485,1.40332 -4.054145,4.33939 -5.229966,6.71133 -3.729326,7.52302 -1.788818,17.11926 4.532638,22.41414 2.6179,2.19276 6.76183,4.14197 10.01534,4.71158 4.26199,0.74617 7.52259,0.43014 11.52622,-1.11794 5.91034,-2.28534 10.13257,-6.79369 11.80478,-12.60542 0.76297,-2.6517 0.82003,-7.25015 0.12176,-9.91018 -1.83023,-6.97222 -6.87763,-12.00715 -14.11446,-14.0794 -1.33294,-0.38169 -3.33519,-0.58678 -5.33512,-0.60878 z m 96.10595,4.71342 c -0.13403,0.13403 0.24467,0.66119 1.49058,2.0717 0.63443,0.71823 0.76654,0.75122 3.21362,0.78772 1.40324,0.0209 2.66868,-0.036 2.8133,-0.12545 0.6026,-0.37242 0.76589,0.5256 0.42614,2.34657 -0.68348,3.66328 -0.71548,4.26599 -0.29147,5.51038 0.45776,1.34345 1.99968,3.52129 3.53461,4.99383 1.6857,1.61717 2.5403,1.83469 8.0285,2.04771 5.44845,0.21147 6.40327,0.45349 7.41235,1.87061 0.72539,1.01872 0.77934,2.13179 0.28594,6.00847 -0.32212,2.53098 -0.31227,2.7591 0.15681,3.56228 0.93451,1.60009 1.86049,1.90567 6.29994,2.08276 2.18468,0.0871 4.47867,0.17998 5.09714,0.20478 0.63018,0.0253 1.12348,-0.0766 1.12348,-0.2306 0,-0.15116 -0.44784,-0.75515 -0.99619,-1.34301 l -0.99803,-1.06997 -3.77258,-0.0738 c -2.07547,-0.0415 -3.84251,-0.14371 -3.92571,-0.22691 -6.5e-4,-6.5e-4 -0.001,-0.003 -0.002,-0.004 -0.0756,-0.12381 0.0454,-1.56282 0.27487,-3.23207 0.55839,-4.06162 0.53526,-4.7731 -0.20661,-6.34237 -0.6755,-1.42886 -1.5477,-2.33581 -3.19886,-3.3243 -0.97577,-0.58416 -1.41843,-0.64022 -6.21693,-0.80617 -3.01896,-0.10441 -5.5817,-0.32023 -6.16527,-0.51839 -1.2081,-0.41021 -2.97166,-1.87228 -3.50694,-2.90738 -0.53594,-1.03617 -0.54005,-3.13806 -0.009,-5.73359 0.96242,-4.70585 0.71543,-4.92798 -6.01954,-5.37202 -2.5924,-0.17062 -4.77429,-0.2509 -4.84809,-0.1771 z m -132.280344,3.08817 c -2.970973,-0.15584 -5.883563,0.36142 -9.633469,1.50535 -3.710144,1.13179 -8.926614,3.79288 -7.434485,3.79288 0.130909,0 0.876176,0.48085 1.654772,1.06813 1.647096,1.24235 6.652561,3.83215 9.41394,4.87023 1.052987,0.39585 2.958437,0.94928 4.233783,1.22863 1.904517,0.41715 3.027364,0.48589 6.287029,0.38556 4.034938,-0.12419 7.218373,-0.51456 7.64479,-0.93715 0.129679,-0.12851 0.293003,-0.83337 0.363423,-1.56622 0.160521,-1.67058 0.45662,-1.54579 -6.702105,-2.81146 -3.021025,-0.53412 -5.920227,-1.13758 -6.441991,-1.33931 -0.268806,-0.10393 -0.431218,-0.17598 -0.437214,-0.22322 l -0.0018,-0.002 v -0.002 l 0.0018,-0.002 v -0.002 -0.002 -0.002 l 0.0018,-0.002 v -0.002 c 0.07085,-0.0846 0.850303,-0.0615 2.794849,0.0332 1.819011,0.0886 4.972894,0.36466 7.010185,0.61431 2.037292,0.24966 3.839433,0.40771 4.005029,0.35051 0.165596,-0.0572 0.44861,-0.63205 0.629072,-1.27659 0.257741,-0.92055 0.260092,-1.25435 0.0074,-1.55885 -0.176944,-0.2132 -1.710235,-0.92703 -3.407318,-1.58651 -3.988263,-1.54985 -7.01854,-2.37889 -9.989514,-2.53474 z m 73.446444,0.16234 c -3.30771,-0.007 -3.77111,0.0543 -6.25751,0.84676 -2.75138,0.87688 -7.92263,3.01919 -8.36979,3.46635 -0.15662,0.15661 -0.12217,0.75013 0.0941,1.5939 0.39134,1.5269 0.46464,1.55185 3.28925,1.07735 2.70012,-0.45358 10.26156,-1.31703 11.37679,-1.29873 l 1.05707,0.0166 -1.4537,0.49993 c -1.25595,0.43098 -4.44168,1.10618 -11.64244,2.46648 l -1.71934,0.32468 v 1.44447 1.44631 l 1.32272,0.33575 c 0.7276,0.18459 2.15622,0.43686 3.17487,0.56082 6.09802,0.74204 11.20081,-0.12719 16.95542,-2.88709 2.84399,-1.36398 8.15311,-5.10339 7.98055,-5.62106 -0.1257,-0.37709 -6.18194,-2.60601 -9.69251,-3.56782 -2.1525,-0.58972 -3.09276,-0.69871 -6.11546,-0.70471 z m 64.75935,1.15853 c -0.30363,0.0144 -0.73054,0.34952 -0.73054,0.66228 0,0.54165 0.69344,0.51905 0.90395,-0.0295 0.0917,-0.23911 0.11048,-0.49091 0.0406,-0.56081 -0.0538,-0.0538 -0.12898,-0.076 -0.21399,-0.072 z m 13.52596,0.53868 c -0.22578,0.0329 -0.76189,2.144 -0.76189,3.01069 0,0.58823 0.13684,0.6792 1.2563,0.82646 0.69122,0.0909 1.43464,0.20245 1.65292,0.24905 v 0.002 c 0.70702,0.15094 1.05891,0.14878 1.05891,-0.006 0,-0.24282 -2.96326,-4.02347 -3.19701,-4.08251 h -0.002 -0.002 c -0.002,0 -0.004,-2.6e-4 -0.006,0 z m -14.25281,1.31348 c -0.068,0.002 -0.14732,0.0198 -0.23613,0.0535 -0.12834,0.0487 -0.11123,0.38369 0.0369,0.74899 l 0.2675,0.66227 0.17894,-0.66227 c 0.14197,-0.52242 0.0476,-0.80962 -0.2472,-0.80249 z M 7.5539093,183.36265 c -2.4342627,0 -4.9882998,0.35494 -4.9882998,0.69179 0,0.19143 0.4467915,1.00564 0.9924946,1.80974 0.5457031,0.8041 1.1334576,1.46276 1.3079529,1.46476 0.1744953,0.002 0.6435382,-0.44311 1.0423037,-0.98881 0.3987655,-0.5457 1.1434742,-1.43928 1.6547726,-1.98499 l 0.9297718,-0.99249 z m -7.27398894,0.002 c -0.45682131,-7.4e-4 -1.10673703,0.22277 -1.44446696,0.49625 l -0.6143136,0.49625 0.4833338,2.89815 c 0.67572226,4.05075 0.51012094,4.81199 -1.4592253,6.739 -2.0150447,1.97172 -3.1827815,2.33366 -7.5433273,2.33366 -3.506314,0 -6.3606,0.46733 -8.015593,1.31164 -1.344329,0.68583 -2.867993,2.49117 -3.233909,3.83347 -0.282515,1.03635 -0.186036,4.44927 0.197392,6.96037 l 0.17341,1.12347 H -22.0715 c -0.79201,0 -0.899907,-0.0828 -0.927927,-0.72684 -0.05584,-1.28361 -0.545919,-3.52894 -0.833843,-3.81686 -0.275727,-0.27573 -0.868058,0.49372 -2.191605,2.85019 -0.441842,0.78666 -0.457313,0.93795 -0.118066,1.06813 0.635844,0.244 0.176774,0.62538 -0.752673,0.62538 -0.66211,0 -1.115652,0.26498 -2.005282,1.17144 -0.747756,0.76191 -1.092793,1.31553 -0.988805,1.58652 0.135594,0.35338 0.751591,0.41639 4.069597,0.41139 4.839319,-0.008 5.760301,-0.20403 6.921635,-1.46845 0.886351,-0.96502 0.892242,-0.98605 0.721311,-2.85758 -0.508952,-5.57259 -0.50985,-5.68425 -0.03874,-6.40325 0.871046,-1.32939 2.755143,-1.90666 7.68722,-2.35579 5.094178,-0.46389 6.7133664,-0.84796 8.249881,-1.961 1.44187223,-1.04449 3.4515846,-3.54245 4.25592,-5.28716 0.7832457,-1.69896 0.7269853,-3.25458 -0.2472013,-6.78143 -0.6099339,-2.2081 -0.6331505,-2.24595 -1.45000134,-2.24695 z m -9.90096346,1.85032 c -0.2565133,0.0665 -3.3757909,4.32864 -3.6083999,4.9348 -0.109343,0.28492 0.355549,0.35789 2.272775,0.35789 2.3779807,0 2.5909124,-0.0815 2.418514,-0.92608 -0.029703,-0.14552 -0.2402086,-1.18742 -0.4667308,-2.31521 -0.221213,-1.10135 -0.4895662,-2.0077 -0.6050896,-2.04955 -9.045e-4,-2.3e-4 -0.00465,-0.002 -0.00553,-0.002 h -0.00184 c -8.312e-4,0 -0.00277,-1.3e-4 -0.00369,0 z m 98.4248371,3.36489 -4.820424,0.15496 c -6.311891,0.20301 -8.772054,0.75186 -13.11089,2.91845 -1.212461,0.60544 -3.13725,1.8158 -4.276213,2.6897 -2.884237,2.21303 -6.302838,5.23273 -6.329458,5.59154 -0.01224,0.16493 0.246306,0.35998 0.573728,0.43168 0.327422,0.0717 1.665952,0.44447 2.975639,0.82831 1.309688,0.38383 3.453549,0.8704 4.763236,1.08289 2.853962,0.46302 7.755212,0.33401 10.432261,-0.27487 1.888751,-0.42959 9.759955,-4.11685 11.314069,-5.30007 0.82247,-0.62619 0.835599,-0.66966 0.507316,-1.61788 -0.185556,-0.53597 -0.528192,-1.09596 -0.761896,-1.24338 -0.307015,-0.19366 -2.31409,0.11237 -7.237093,1.10318 -3.747469,0.75422 -6.855957,1.33118 -6.906877,1.28028 -0.337671,-0.33767 6.020199,-2.57336 10.70898,-3.76521 l 2.977483,-0.75636 -0.16972,-0.92977 c -0.09314,-0.51062 -0.274654,-1.21275 -0.404008,-1.56069 z m 48.038216,0.1402 c -0.7974,0.0847 -0.76892,0.40059 -1.02386,1.06813 -0.7899,2.06833 -0.9171,1.95228 3.40363,3.0974 2.78643,0.73849 11.04297,3.46067 11.36388,3.74676 0.14733,0.13139 0.029,0.22506 -0.28594,0.22506 -0.6618,0 -7.56111,-1.40785 -14.17349,-2.89262 -0.97749,-0.2195 -0.9833,-0.21731 -1.68244,1.11978 -0.86075,1.64615 -1.08763,1.42252 3.97735,3.91648 3.64032,1.79247 6.58462,2.92086 8.88818,3.40548 0.64534,0.13582 3.01866,0.2067 5.27424,0.1568 3.7225,-0.0823 4.44303,-0.18167 7.80529,-1.06997 2.0373,-0.53825 3.97277,-1.04094 4.30019,-1.11794 0.32742,-0.077 0.59479,-0.21588 0.59402,-0.30808 -0.002,-0.29107 -3.1381,-3.00374 -5.78524,-5.0049 -2.82079,-2.13241 -5.60178,-3.60096 -9.13722,-4.82596 -2.03362,-0.70464 -3.01788,-0.85987 -7.53226,-1.19173 -3.5648,-0.26205 -5.18894,-0.40934 -5.98633,-0.32469 z m 94.35339,2.86864 c -0.43889,-0.003 -0.70274,0.38893 -0.7582,1.16775 -0.0414,0.58209 -0.32373,2.05896 -0.62723,3.28188 -0.65578,2.64239 -0.54499,3.7294 0.59402,5.86641 0.95148,1.78515 3.00614,4.2817 4.25592,5.17094 1.15555,0.82218 3.79064,1.34875 7.74994,1.54962 4.66487,0.23668 4.89422,0.29032 4.89422,1.12163 0,0.38217 -0.30629,1.46042 -0.68073,2.39637 -0.37444,0.93595 -0.93482,2.82009 -1.24523,4.18767 -0.48667,2.14412 -0.52168,2.68604 -0.26011,3.93308 0.39664,1.89096 2.05778,4.32803 3.68404,5.40522 1.96192,1.29952 3.45427,1.62122 8.59116,1.85217 4.19719,0.18871 4.74522,0.26866 5.48455,0.7951 1.75253,1.24792 1.95173,2.28279 1.22494,6.37558 -0.55032,3.09905 -0.0958,4.91669 1.3799,5.51959 0.40705,0.16629 2.64521,0.40385 4.97354,0.52761 2.32834,0.12376 4.44216,0.24231 4.69682,0.26381 0.65253,0.055 0.59069,-0.13036 -0.51838,-1.58467 l -0.97958,-1.28582 -1.99606,-0.0516 c -1.09789,-0.0282 -2.53295,-0.0261 -3.18779,0.004 -0.65484,0.0298 -1.35841,-0.0557 -1.56438,-0.19002 -0.41827,-0.27284 -0.44185,-1.60827 -0.0553,-3.14536 0.44678,-1.77677 0.5914,-4.25475 0.30992,-5.30006 -0.42564,-1.58072 -1.73816,-3.19692 -3.0771,-3.78919 -0.94404,-0.41759 -2.12963,-0.5655 -6.02692,-0.74899 -5.35849,-0.25229 -6.56555,-0.50275 -7.96762,-1.65846 -2.0354,-1.67775 -2.5497,-3.73078 -1.7175,-6.85707 0.32343,-1.21502 0.84079,-3.211 1.1493,-4.4367 0.30851,-1.2257 0.68947,-2.27109 0.84676,-2.32259 0.15729,-0.0515 0.60407,0.15568 0.99249,0.4612 0.6019,0.47346 0.7064,0.75842 0.7084,1.92595 0.001,0.75343 -0.19854,2.64936 -0.44644,4.21349 -0.69192,4.3656 -0.20382,5.0802 3.76336,5.49746 3.30517,0.34763 6.99912,0.331 6.99912,-0.0314 0,-0.51493 -1.07923,-1.82509 -1.80604,-2.1916 -0.38871,-0.19601 -1.895,-0.43679 -3.34829,-0.53499 -1.45329,-0.0982 -2.72544,-0.26333 -2.82621,-0.36711 -0.0958,-0.12117 0.0686,-1.39694 0.3708,-2.84835 l 0.55344,-2.66018 -0.66966,-1.44078 c -0.9039,-1.94395 -3.33627,-4.56529 -4.76693,-5.13773 -0.78872,-0.31559 -2.74709,-0.55722 -6.49733,-0.80248 -4.54665,-0.29733 -5.53958,-0.44039 -6.48442,-0.92608 -1.50902,-0.7757 -3.31891,-2.54696 -3.91833,-3.83531 -0.61517,-1.32225 -0.62555,-2.49404 -0.0498,-5.49746 l 0.45381,-2.36686 -0.87258,-0.78034 c -0.53966,-0.48219 -0.98689,-0.72281 -1.32825,-0.72501 z m -6.29994,0.36896 c -0.47685,0.001 -0.80735,0.0184 -0.8652,0.0553 -8.4e-4,6.5e-4 -0.005,0.003 -0.006,0.004 l -0.002,0.002 v 0.002 l -0.002,0.002 v 0.002 c 0,0.1041 0.80002,0.99723 1.77838,1.98315 0.97837,0.98591 1.91985,1.79129 2.09198,1.79129 0.17212,0 0.50282,-0.555 0.73423,-1.23417 0.23142,-0.67916 0.61932,-1.45356 0.86151,-1.72118 0.23465,-0.25926 0.38105,-0.51309 0.33575,-0.57557 -8.3e-4,-9.1e-4 -0.003,-0.005 -0.004,-0.006 -0.16611,-0.14353 -3.34519,-0.308 -4.92373,-0.30439 z m 16.28577,1.46845 -0.002,0.002 h -0.002 l -0.002,0.002 c -0.0907,0.0819 -0.22209,1.02704 -0.29701,2.17131 -0.0786,1.20054 -0.22608,2.4446 -0.32652,2.76534 -0.17528,0.55975 -0.10417,0.58699 1.76361,0.67519 1.07025,0.0505 2.15463,0.11499 2.40929,0.14389 0.62711,0.0712 0.58772,-0.10662 -0.27672,-1.23232 -0.4072,-0.53026 -1.27074,-1.76369 -1.91857,-2.74135 -0.63771,-0.96238 -1.23416,-1.75642 -1.33932,-1.78575 h -0.002 -0.002 -0.002 c -7.2e-4,8e-5 -0.003,-2e-4 -0.004,0 z M 91.921482,198.2556 c -0.225401,0.0102 -0.531857,0.15001 -1.127164,0.42983 -0.670019,0.31495 -2.133154,0.93422 -3.250512,1.37437 -3.378895,1.33102 -7.705575,3.61907 -9.006242,4.76324 -1.713557,1.50738 -3.753282,4.3366 -5.290845,7.3404 -1.273376,2.48769 -2.424169,5.08702 -2.813298,6.35713 l -0.191858,0.62907 1.813424,-0.19001 c 0.997987,-0.10501 3.243895,-0.54471 4.990145,-0.9759 9.867333,-2.43642 13.016416,-4.69707 18.510577,-13.28798 l 0.99434,-1.55331 -0.931617,-0.93347 -0.933462,-0.93346 -0.916858,0.54237 c -0.504681,0.29777 -2.271636,1.54172 -3.925703,2.76533 -5.755129,4.2574 -6.866043,5.04021 -6.989892,4.91636 -0.280386,-0.28039 4.512845,-4.62709 8.941675,-8.10784 1.902917,-1.49556 1.958571,-1.70265 0.761896,-2.78562 -0.266346,-0.24103 -0.409205,-0.36066 -0.634606,-0.35051 z m 41.175608,0.23244 c -0.25115,2.3e-4 -0.49112,0.24275 -1.03861,0.88181 -0.49868,0.58208 -0.87648,1.23123 -0.83938,1.44262 0.0753,0.42892 0.24517,0.56023 7.17068,5.54912 2.71167,1.95339 4.86721,3.61511 4.79091,3.69141 -0.2848,0.22932 -4.86708,-2.30185 -7.93627,-4.38874 -4.41303,-3.00064 -5.68743,-3.75979 -6.0675,-3.61394 -0.18638,0.0715 -0.54879,0.52011 -0.80617,0.99803 -0.46036,0.85483 -0.45841,0.88478 0.18264,1.82818 0.98174,1.44476 5.98443,6.98224 7.21126,7.98239 1.54342,1.25827 4.15431,2.73237 5.91254,3.33906 2.14646,0.74065 7.50666,2.09803 9.84931,2.49415 2.51482,0.42524 2.84526,0.44239 3.02176,0.15681 0.41564,-0.67252 -2.09113,-6.30629 -4.29282,-9.64823 -2.26629,-3.44002 -3.78655,-4.81943 -7.04892,-6.39587 -1.60956,-0.77777 -4.30938,-1.94726 -6.00109,-2.5993 -1.69171,-0.65203 -3.3383,-1.34593 -3.65821,-1.5404 -0.18398,-0.11184 -0.31857,-0.17722 -0.45013,-0.1771 z m -147.333786,3.16012 c -0.516366,-0.0114 -1.261306,0.3646 -1.608653,0.89472 -0.388736,0.59328 -0.38976,0.82702 -0.01476,2.7063 0.829797,4.15842 0.835887,4.68598 0.0701,6.22062 -0.740427,1.48382 -2.270753,2.81579 -3.842688,3.34275 -0.494658,0.16583 -1.983347,0.30661 -3.3077,0.31361 -1.324352,0.007 -3.573065,0.10654 -4.997524,0.22138 -2.252217,0.18158 -2.735377,0.30961 -3.704329,0.98696 -1.440311,1.00685 -2.712825,2.91523 -3.077102,4.6138 -0.240023,1.11918 -0.197974,1.79336 0.252736,4.00503 0.298101,1.46281 0.496813,2.70575 0.440903,2.76165 -0.213218,0.21322 -1.756694,-0.24239 -1.612342,-0.47596 0.08351,-0.13512 -0.03294,-0.63386 -0.25827,-1.10871 -0.225327,-0.47484 -0.489222,-1.36283 -0.586642,-1.97208 -0.09742,-0.60925 -0.280775,-1.10687 -0.407697,-1.10687 -0.126922,0 -0.232443,0.10764 -0.232443,0.23982 0,0.13219 -0.556066,0.93567 -1.236007,1.78575 -0.679941,0.85009 -1.330791,1.67329 -1.448156,1.83003 -0.132595,0.17709 -0.04074,0.27835 0.243511,0.26565 0.991126,-0.0442 0.655368,0.51682 -0.392939,0.65674 -0.613227,0.0818 -1.368547,0.3797 -1.678755,0.66044 -0.638337,0.57768 -1.301477,1.98321 -1.101337,2.3355 l 0.0018,0.002 c 0.106392,0.12953 2.228766,0.14914 4.921888,0.0443 4.306018,-0.16767 4.879,-0.24418 5.646888,-0.7619 1.404516,-0.94694 1.542146,-1.63455 1.023856,-5.08238 -0.50799,-3.37931 -0.34787,-4.63323 0.721311,-5.63767 0.740115,-0.6953 3.557613,-1.09649 7.73703,-1.09949 4.872025,-0.004 7.811653,-1.67479 9.926791,-5.6432 0.814088,-1.52738 0.838429,-1.66002 0.680725,-3.85745 -0.15627,-2.17744 -1.228607,-6.47702 -1.743322,-6.99173 -0.09808,-0.0981 -0.244799,-0.14564 -0.416921,-0.14943 z m 7.7554777,0.55528 c -1.5251038,0.0191 -4.6030677,0.29058 -4.8204247,0.49256 -0.142944,0.13282 -0.125004,0.3628 0.04243,0.56635 0.154703,0.18807 0.479313,1.05652 0.721312,1.92964 0.242,0.87313 0.498212,1.76397 0.5700382,1.9813 0.10557,0.31943 0.2163879,0.28772 0.5774179,-0.16603 0.2456325,-0.30872 1.1898606,-1.45915 2.0993658,-2.55687 0.9095052,-1.09772 1.6547726,-2.07357 1.6547726,-2.16947 0,-9.7e-4 1.633e-4,-0.003 0,-0.004 -3.256e-4,-9.3e-4 -0.00136,-0.005 -0.00184,-0.006 -6.461e-4,-8.9e-4 -0.00473,-0.005 -0.00553,-0.006 -0.055774,-0.0495 -0.3768241,-0.0685 -0.8375326,-0.0627 z m 105.0199453,2.38162 c -0.52819,0.0126 -1.161026,0.84981 -4.010563,4.17844 -1.681779,1.96453 -3.402137,4.22667 -3.822396,5.02704 -2.029116,3.86436 -2.808723,8.22075 -2.534735,14.15504 0.100781,2.18281 0.235165,4.05823 0.298855,4.16737 0.188049,0.32225 0.343586,0.25602 2.444341,-1.03862 6.701711,-4.13008 11.097151,-9.04607 13.000201,-14.53691 1.0615,-3.06273 2.33266,-8.42246 2.0717,-8.7369 -0.13887,-0.16733 -0.69365,-0.38395 -1.23417,-0.47965 -0.54051,-0.0957 -1.1741,-0.22891 -1.40757,-0.29701 -0.31929,-0.0931 -1.22688,1.25314 -3.660051,5.43474 -1.779193,3.0577 -3.351904,5.63353 -3.495868,5.72253 -0.143964,0.089 -0.376261,0.41616 -0.514696,0.72869 -0.102725,0.23192 -0.162581,0.3615 -0.188168,0.38187 v 0.002 h -0.0018 l -0.0018,0.002 h -0.0018 -0.0018 v -0.002 h -0.0018 l -0.0018,-0.002 c -0.01227,-0.0285 0.01287,-0.18487 0.06272,-0.47411 0.217139,-1.25971 2.045893,-5.70328 3.78181,-9.18888 1.927863,-3.871 1.927703,-3.87005 0.07379,-4.70605 -0.395208,-0.17821 -0.614049,-0.34331 -0.854136,-0.33759 z m 27.793533,0 -1.32271,0.68626 c -0.72716,0.37726 -1.37169,0.81697 -1.43339,0.97773 -0.0617,0.16077 0.50339,1.35813 1.25629,2.66019 1.99946,3.45788 5.30623,10.7016 4.885,10.7016 -0.31583,0 -5.77705,-8.75577 -7.21865,-11.57419 -0.24191,-0.47294 -0.59065,-0.86151 -0.77481,-0.86151 -0.72088,0 -3.01023,0.58567 -3.14536,0.80432 -0.0786,0.12721 0.39766,2.09368 1.05706,4.3703 0.65939,2.27662 1.19899,4.27671 1.19911,4.44409 4.1e-4,0.60313 1.59675,3.66353 2.76718,5.30376 1.816,2.54489 4.71359,5.12703 8.74797,7.7979 2.00655,1.32839 3.85734,2.41483 4.11203,2.41483 0.39532,0 0.49041,-0.36593 0.65121,-2.51075 0.46534,-6.20672 -0.80649,-12.26382 -3.39809,-16.19353 -0.75493,-1.14472 -2.72452,-3.64262 -4.37768,-5.55096 z m -17.50885,3.72093 c -0.28598,0.0107 -0.47936,0.0892 -0.59218,0.23798 -0.31376,0.4138 -1.52623,4.8059 -2.10306,7.61712 -1.28009,6.23856 0.33453,12.72592 4.93112,19.79823 0.71911,1.10642 1.30795,2.10755 1.30795,2.22482 0,0.66789 0.59148,-0.12641 2.19345,-2.94244 0.98722,-1.7354 2.15804,-4.08764 2.60115,-5.22627 0.44312,-1.13863 0.96161,-2.43468 1.15299,-2.88156 0.59796,-1.39627 1.01175,-4.78157 0.86336,-7.06368 -0.13911,-2.1396 -0.99836,-5.9281 -2.17501,-9.58735 l -0.59586,-1.85217 -1.47214,-0.0793 -1.47398,-0.0775 -0.14205,1.13638 c -0.0784,0.62543 -0.18294,3.81715 -0.23244,7.09136 -0.055,3.64413 -0.20118,6.15351 -0.37819,6.46966 -0.24508,0.43772 -0.31336,0.29648 -0.44643,-0.92608 -0.25935,-2.38258 -0.6548,-7.33999 -0.83754,-10.49683 -0.18676,-3.22631 -0.086,-3.05335 -1.98499,-3.38887 -0.2399,-0.0424 -0.44457,-0.0599 -0.61615,-0.0535 z m 130.72518,3.14351 c -0.42786,0.0177 -0.71024,0.0686 -0.71024,0.16419 0,0.33881 1.58986,2.4931 2.73028,3.6988 0.4476,0.47322 0.89315,0.76985 0.99065,0.66043 0.35625,-0.39996 1.22518,-3.73654 1.04784,-4.02348 -0.18524,-0.29968 -2.77496,-0.55293 -4.05853,-0.49994 z m -266.35012,9.06713 c -0.511134,-0.001 -1.250064,0.27199 -1.669531,0.66965 -0.458702,0.43486 -0.455969,0.52421 0.06641,2.40929 0.632078,2.28093 0.696337,4.39646 0.171565,5.65242 -0.423302,1.0131 -2.186051,3.06219 -2.636199,3.06419 -0.164968,9e-4 -0.623741,0.17138 -1.020166,0.37818 -0.483432,0.2522 -2.085097,0.42968 -4.864699,0.54053 -6.200577,0.24728 -7.412955,0.54966 -9.072655,2.25986 -1.951161,2.01054 -2.339696,4.93262 -1.224938,9.22946 0.359473,1.38561 0.375366,1.73254 0.0904,1.91304 -0.191542,0.12133 -0.466948,0.18764 -0.612469,0.14574 -0.440415,-0.12693 -1.270817,-2.05354 -1.732253,-4.0161 -0.23389,-0.99476 -0.512414,-1.81436 -0.627228,-1.85216 -8.97e-4,-2e-4 -0.0047,1e-4 -0.0055,0 h -0.0018 c -0.254012,0 -2.492427,3.5941 -2.512597,4.03454 -0.0083,0.18191 0.209705,0.33022 0.485178,0.33022 0.466305,0 0.822774,0.47834 0.822774,1.10503 0,0.1689 -0.483511,0.20034 -1.309797,0.0867 -1.298277,-0.17856 -1.322315,-0.1677 -2.514443,1.05891 -0.661762,0.6809 -1.2028,1.40558 -1.2028,1.6105 0,0.3072 0.875755,0.37264 4.993834,0.37264 5.988148,0 6.547692,-0.0888 7.17806,-1.12532 0.790341,-1.29961 0.86491,-2.78861 0.273029,-5.4458 -0.739742,-3.32101 -0.708981,-4.29962 0.158651,-5.16725 0.870249,-0.87025 1.90748,-1.13701 5.255794,-1.35222 4.127434,-0.26529 6.956778,-0.65038 8.08385,-1.10134 1.291405,-0.51672 3.906429,-3.27519 4.754012,-5.01413 0.865809,-1.77634 0.869838,-4.24672 0.01107,-7.25185 -0.353475,-1.23692 -0.768442,-2.33388 -0.922393,-2.43696 -0.09986,-0.0669 -0.244699,-0.0974 -0.415077,-0.0978 z m 7.69829,0.2103 c -0.487371,-0.05 -1.845479,0.0537 -4.322333,0.32284 -0.770041,0.0837 -0.780786,0.29825 -0.09962,1.77099 0.361373,0.78132 0.721892,1.63569 0.802482,1.89829 0.139233,0.45369 0.176985,0.45412 0.745293,0.0203 0.537504,-0.41031 2.828392,-3.31836 3.080792,-3.91095 0.02144,-0.0503 -0.04416,-0.0848 -0.206616,-0.10146 z m -17.776353,6.58957 c 0.09192,0.004 0.170035,0.028 0.213995,0.072 0.08792,0.088 -0.0679,0.14986 -0.346819,0.13836 -0.158929,-0.007 -0.252218,-0.0261 -0.276718,-0.0553 -6.15e-4,-9.1e-4 -0.0032,-0.005 -0.0037,-0.006 -3.6e-4,-9.4e-4 -0.0016,-0.005 -0.0018,-0.006 -1.05e-4,-9.7e-4 -0.0019,-0.005 -0.0018,-0.006 3.03e-4,-0.002 0.0029,-0.007 0.0037,-0.009 0.0113,-0.022 0.0525,-0.0498 0.121756,-0.0775 0.0955,-0.0382 0.199561,-0.0554 0.291476,-0.0517 z m 288.284623,2.84835 0.92608,0.93346 c 0.50932,0.51318 1.28463,1.40732 1.72119,1.98684 0.42973,0.57046 0.83282,1.04311 0.90578,1.06444 l 0.002,0.002 c 0.35291,0.0375 1.34116,-1.22522 1.34116,-1.7138 0,-0.31588 0.24051,-0.79241 0.53499,-1.05891 0.29452,-0.2665 0.44279,-0.56828 0.33021,-0.6715 -0.11257,-0.10323 -1.45505,-0.26787 -2.98302,-0.36527 z m 18.42756,3.53461 c -0.37908,0.0532 -0.52378,2.87878 -0.13098,3.02914 0.16733,0.0641 0.88257,0.20207 1.58836,0.30623 0.70579,0.10417 1.32481,0.0879 1.37621,-0.0351 0.0856,-0.27243 -2.35008,-3.14837 -2.79485,-3.29663 -0.0127,-0.004 -0.0265,-0.005 -0.0387,-0.004 z m -302.05041,4.74479 c -0.135755,0.005 -0.293002,0.0202 -0.472265,0.0443 -0.618464,0.0832 -1.928805,0.22889 -2.911071,0.32469 -2.076004,0.20241 -2.174396,0.40862 -1.21018,2.54211 0.307077,0.67946 0.60101,1.23858 0.665968,1.2729 h 0.0018 v 0.002 h 0.0018 0.0018 c 0.558731,0 2.870766,-1.54598 3.617624,-2.41852 1.140881,-1.33286 1.254674,-1.80044 0.30439,-1.7673 z m -7.519345,0.0885 c -0.608199,-0.0354 -1.26288,0.25762 -1.606809,0.90026 -0.194516,0.36345 -0.09024,1.07785 0.391095,2.686 1.367647,4.56928 0.617447,7.60693 -2.254328,9.12431 -0.806882,0.42634 -1.800301,0.5081 -7.718582,0.63461 -7.969162,0.17037 -7.159294,-0.1613 -9.928635,4.05484 -0.934657,1.42296 -2.297144,3.20528 -3.029138,3.96075 -1.322458,1.36487 -2.342878,2.65008 -2.342878,2.95166 0,0.0867 2.083797,0.1568 4.630412,0.1568 5.361992,0 4.880022,0.39454 4.215335,-3.45712 -0.328707,-1.90474 -0.342293,-3.8726 -0.02767,-3.9626 0.02482,-0.007 3.10825,-0.17449 6.851533,-0.37081 6.073152,-0.31852 6.937939,-0.42028 8.028506,-0.94821 1.600036,-0.77457 3.781754,-2.96077 4.611964,-4.62119 0.582635,-1.16527 0.660909,-1.6539 0.651209,-4.10096 -0.008,-2.02499 -0.139006,-3.10213 -0.483334,-3.96998 -0.259815,-0.65485 -0.556608,-1.53936 -0.658588,-1.96654 -0.160437,-0.67203 -0.721892,-1.03638 -1.33009,-1.07182 z M 263.20612,249.2694 c -0.27814,0.009 -0.28891,0.20566 -0.2841,0.80248 0.008,1.00237 0.77072,2.12967 3.07895,4.55478 0.78987,0.82987 1.52754,1.41682 1.66584,1.33009 10e-4,-7.8e-4 0.005,-0.005 0.006,-0.006 l 0.002,-0.002 c 0.11189,-0.12218 0.34825,-0.6982 0.52392,-1.28028 0.17567,-0.58208 0.62529,-1.86334 0.99987,-2.84651 0.36288,-0.95244 0.61623,-1.77788 0.57742,-1.87614 l -0.002,-0.002 v -0.002 l -0.002,-0.002 -0.002,-0.002 c -0.0597,-0.0524 -1.23899,-0.16634 -2.62144,-0.25274 -1.38244,-0.0864 -2.90118,-0.23536 -3.37412,-0.33206 -0.26123,-0.0534 -0.44176,-0.0888 -0.56819,-0.0849 z m 18.35746,1.08105 c 0.23522,-0.0157 0.37211,0.81867 0.49625,2.53289 l 0.13836,1.91673 h -1.19727 c -0.85544,0 -1.15626,-0.0939 -1.05706,-0.33022 0.0763,-0.1819 0.39456,-1.13349 0.7084,-2.11597 0.41957,-1.31347 0.70377,-1.98957 0.91132,-2.00343 z m -317.387955,0.3708 -0.65121,0.78219 c -1.525568,1.83018 -5.393489,6.72143 -9.493266,12.0077 -3.219845,4.15169 -4.305574,5.7313 -4.058528,5.89963 0.185529,0.12616 0.928277,0.18081 1.651083,0.11991 1.212185,-0.10209 1.432743,-0.23795 2.83728,-1.73225 1.751801,-1.86375 9.294195,-11.2231 11.14066,-13.82483 1.31044,-1.84645 1.494622,-2.34841 0.857825,-2.34841 -0.213344,0 -0.814538,-0.20348 -1.335625,-0.45197 z m 218.227045,1.8577 c -2.13074,0.008 -4.24002,0.34928 -5.59523,1.02016 -1.88027,0.93081 -2.92939,2.02085 -6.47889,6.72978 -1.71216,2.27142 -3.64559,4.61969 -4.29835,5.2189 -2.13127,1.95646 -3.84825,2.11097 -6.19848,0.55897 -2.57788,-1.70235 -3.24894,-2.99013 -2.13626,-4.10281 0.83388,-0.83388 1.14835,-0.72619 3.58811,1.23232 2.19158,1.75931 3.4271,1.75404 3.83715,-0.0148 0.14038,-0.60559 -0.0177,-0.86254 -1.09395,-1.78944 -1.63202,-1.40554 -3.63328,-2.39969 -4.81489,-2.39269 -2.08078,0.0129 -3.93305,1.46026 -5.97526,4.66362 -0.54334,0.85227 -1.69672,2.43183 -2.56241,3.51063 -1.34886,1.68091 -1.51152,1.99562 -1.13823,2.20452 0.50844,0.28454 3.07167,-0.24567 3.37964,-0.69918 0.10918,-0.16077 0.31925,-0.73374 0.46858,-1.2729 0.26968,-0.97369 0.87635,-1.79682 1.32271,-1.79682 0.12817,0 1.04188,0.72272 2.03111,1.60681 0.98922,0.88409 2.21543,1.83125 2.72475,2.1049 1.08916,0.58517 3.39118,0.6733 5.66902,0.21584 2.05896,-0.41349 3.4853,-1.75496 7.54886,-7.08951 4.87299,-6.39715 6.0967,-7.2819 10.06515,-7.2869 1.9748,-0.002 2.44267,0.0944 3.82793,0.79141 1.83282,0.92217 4.6942,3.48285 5.16725,4.62488 0.44283,1.06909 0.20388,1.53064 -0.90026,1.73778 -0.84669,0.15884 -1.12572,0.0272 -3.12322,-1.48136 -2.73279,-2.06386 -4.16692,-2.73549 -5.31483,-2.48492 -1.89584,0.41383 -4.28984,2.67848 -8.09492,7.65401 -1.17909,1.54177 -2.14548,2.91727 -2.14548,3.05681 0,0.13953 0.64848,0.25458 1.43893,0.25458 1.32314,0 1.48391,-0.068 2.03111,-0.85967 0.32689,-0.47294 1.18402,-1.5987 1.90566,-2.50153 l 1.31165,-1.64186 2.46094,2.19345 c 2.13593,1.90533 2.71434,2.27611 4.38137,2.80223 1.67713,0.52933 2.28918,0.58734 4.8444,0.46673 1.609,-0.0759 3.27228,-0.2745 3.69511,-0.4409 1.13743,-0.44763 4.48144,-3.95696 7.15408,-7.50828 3.8083,-5.06036 5.54708,-6.27273 8.99148,-6.26673 1.16214,0.002 2.00781,0.19019 3.0605,0.67888 1.73157,0.80387 2.64075,1.61848 3.88512,3.48295 1.05304,1.57777 1.37146,1.56928 2.62328,-0.0719 0.69845,-0.91571 0.70054,-0.93625 0.20846,-1.50719 -0.9129,-1.0592 -1.28089,-1.41409 -2.74688,-2.63804 -2.91767,-2.43597 -5.06817,-3.05948 -9.02469,-2.61775 -3.78495,0.42258 -4.74381,1.15796 -10.0301,7.69276 -3.57165,4.41519 -4.84221,5.65872 -6.55452,6.41616 -1.51903,0.67193 -3.53805,0.49155 -5.57495,-0.49809 -1.53544,-0.74599 -5.33406,-4.21406 -5.32036,-4.85732 0.005,-0.21717 0.18419,-0.62614 0.39848,-0.90948 0.38449,-0.5084 0.40594,-0.50759 1.62156,0.083 0.67753,0.32917 1.89656,1.10085 2.70999,1.71565 2.99623,2.26463 3.93632,2.59088 5.43474,1.87984 0.51614,-0.24493 0.939,-0.54505 0.939,-0.66597 0,-0.12093 0.54139,-0.72676 1.2028,-1.34669 0.66141,-0.61992 1.44984,-1.52842 1.75254,-2.0182 l 0.55159,-0.88918 -1.29135,-1.25077 c -2.27163,-2.20215 -4.69036,-4.07526 -6.09517,-4.71896 -1.44119,-0.66039 -3.59362,-0.98574 -5.72437,-0.97773 z m 75.57348,0.048 c -1.62749,0.0339 -4.30708,0.4224 -5.50299,0.87258 -1.93603,0.7288 -3.13721,1.91202 -7.63557,7.51935 -4.27779,5.33238 -5.31363,6.21693 -7.27952,6.21693 -1.68563,0 -4.95691,-2.36495 -5.45872,-3.946 -0.23845,-0.75128 0.91686,-1.99498 1.64001,-1.76546 0.28736,0.0912 1.18524,0.68018 1.99606,1.3098 0.81082,0.62962 1.84343,1.29804 2.29491,1.48505 0.7151,0.2962 0.88826,0.2811 1.33747,-0.12544 0.98941,-0.89539 0.93005,-1.4203 -0.2804,-2.46833 -3.76686,-3.26145 -6.6445,-3.50103 -9.03023,-0.75451 -1.75494,2.02032 -6.03187,7.90862 -5.89962,8.12259 0.0878,0.14208 0.66862,0.25827 1.2895,0.25827 1.27624,0 1.86378,-0.48258 2.75796,-2.2654 0.98612,-1.96614 1.17169,-1.97878 3.03098,-0.19555 1.77963,1.70683 2.39841,2.10967 4.03085,2.62329 1.32715,0.41758 3.6719,0.45422 5.39416,0.0849 1.65059,-0.35399 2.82232,-1.52735 6.71502,-6.72794 2.98775,-3.99159 5.2015,-6.28054 6.66521,-6.89211 0.50619,-0.2115 1.50195,-0.38556 2.21374,-0.38556 1.61599,0 1.85421,0.19701 9.53201,7.90306 l 5.64873,5.67087 1.82449,0.0719 c 0.96472,0.0386 1.76192,-0.0141 1.82265,-0.11806 4e-4,-8.6e-4 0.002,-0.005 0.002,-0.006 v -0.002 c 10e-5,-8.7e-4 0.002,-0.005 0.002,-0.006 0,-0.37722 -3.47591,-4.28177 -8.36057,-9.39364 -4.933,-5.16246 -6.48179,-6.59319 -7.56731,-6.99174 -0.21442,-0.0787 -0.64001,-0.10722 -1.18251,-0.0959 z m -215.56502,0.14758 c -1.728574,0.0647 -3.459781,0.46372 -4.777994,1.18067 -1.442877,0.78476 -3.043247,2.56602 -6.816482,7.59313 -1.310695,1.74625 -2.697183,3.51254 -3.080792,3.92571 -1.570311,1.69134 -3.487493,1.97085 -5.266862,0.76927 -1.059582,-0.71551 -2.706301,-2.55528 -2.706301,-3.0236 0,-0.44159 1.153683,-1.8042 1.527483,-1.8042 0.20351,0 1.11446,0.71523 2.023729,1.58836 0.936916,0.89967 1.891361,1.58651 2.202674,1.58651 0.302127,0 0.862715,-0.37186 1.24523,-0.82646 0.619797,-0.73659 0.655984,-0.88781 0.335751,-1.38912 -0.197636,-0.30939 -1.301908,-1.20027 -2.453564,-1.97946 -1.985801,-1.34354 -2.164558,-1.41052 -3.468197,-1.30242 -1.65059,0.13688 -2.813523,0.93513 -4.278057,2.93506 -2.695055,3.6803 -5.086749,7.13493 -4.999369,7.22233 0.05355,0.0536 0.446633,0.16177 0.872584,0.24167 1.048848,0.1968 2.313851,-0.62483 3.226529,-2.09568 1.481185,-2.38703 1.1843,-2.33993 2.888934,-0.45012 0.969778,1.07513 2.012697,1.91894 2.855728,2.31151 1.600548,0.74533 4.970872,0.87471 6.202169,0.23798 1.029634,-0.53244 2.66532,-2.40774 6.259357,-7.17622 3.213041,-4.26299 3.998486,-5.07896 5.737283,-5.96603 3.314162,-1.69075 6.787043,-0.37885 10.148164,3.83346 0.709706,0.88944 0.877785,0.97803 1.317177,0.70102 0.277122,-0.1747 0.73452,-0.62467 1.016477,-1.00172 0.51157,-0.68411 0.510819,-0.68794 -0.156807,-1.89275 -0.774482,-1.39764 -3.218106,-3.50665 -5.095297,-4.39612 -1.305944,-0.6188 -3.030973,-0.88744 -4.759547,-0.82278 z m -65.694654,0.0572 c -2.563785,-0.0437 -5.276368,0.69863 -7.146699,2.12519 -0.466763,0.35602 -2.311987,2.4482 -4.100958,4.65071 -1.788971,2.20251 -4.294255,5.24582 -5.567562,6.76114 -1.273308,1.51531 -2.315206,2.85555 -2.315206,2.97933 0,0.12378 0.148316,0.28846 0.330217,0.36526 0.181901,0.0768 0.568629,0.0885 0.85967,0.0258 0.291042,-0.0627 1.020968,-0.11607 1.621566,-0.11807 1.076913,-0.004 1.12582,-0.0462 3.551212,-3.11215 4.652648,-5.88136 7.39921,-9.01554 8.5967,-9.80872 2.072238,-1.37263 5.270251,-1.34271 7.508277,0.0701 0.961515,0.60698 3.318361,3.17285 3.957065,4.30757 0.239778,0.42599 0.350357,0.385 1.204644,-0.4409 0.517644,-0.50045 1.011898,-1.13003 1.097648,-1.40019 0.312555,-0.98478 -2.821548,-4.177 -5.355412,-5.45503 -1.21802,-0.61435 -2.702891,-0.92385 -4.241162,-0.95007 z m 22.40860867,0.0166 c -3.50637827,0.041 -5.26687757,0.64656 -7.08028647,2.43512 -0.6895902,0.68014 -2.8539842,3.30331 -4.8093552,5.82952 -1.955371,2.52621 -3.980459,4.87609 -4.501277,5.22075 -2.188558,1.44832 -4.088445,1.07721 -6.541609,-1.27844 -0.920265,-0.88368 -1.673221,-1.76764 -1.673221,-1.96285 0,-0.56862 1.003228,-1.41311 1.678755,-1.41311 0.341354,0 1.609771,0.71523 2.818832,1.58836 1.209062,0.87312 2.283704,1.58652 2.387153,1.58652 0.103448,0 0.50207,-0.2463 0.885497,-0.5479 1.160355,-0.91274 0.917078,-1.54831 -1.221248,-3.19148 -1.055026,-0.81072 -2.299617,-1.66962 -2.765334,-1.90935 -1.779631,-0.91605 -3.886151,-0.32513 -5.650577,1.58651 -1.512687,1.6389 -5.538144,6.67272 -6.10624,7.63557 -0.489209,0.82915 -0.492942,0.90035 -0.06457,1.14008 0.295659,0.16541 0.724464,0.16202 1.215714,-0.009 0.916104,-0.31936 3.383155,-2.52619 3.896187,-3.4848 0.202947,-0.37921 0.446862,-0.68995 0.540522,-0.68995 0.09366,0 1.076771,0.8374 2.186071,1.85955 2.550113,2.34977 3.245412,2.63804 6.325769,2.63804 1.941603,0 2.673635,-0.1136 3.593642,-0.55897 1.271035,-0.61529 3.419024,-2.95981 5.728059,-6.25198 3.95001,-5.63183 6.071603,-7.32804 9.14275639,-7.30904 0.99074687,0.006 2.16244281,0.19385 2.73212721,0.43906 1.3376814,0.57579 3.3587241,2.31171 4.4330194,3.80764 l 0.8762731,1.22125 1.014632,-1.08843 c 0.5576703,-0.59785 1.0127872,-1.2578 1.0127872,-1.4666 0,-0.64099 -4.1429657,-4.31904 -5.7575753,-5.1119 -1.3921953,-0.68363 -1.7498115,-0.74364 -4.29650533,-0.71394 z M 158.99788,252.95164 c -5.4705,0.007 -6.44109,0.75206 -13.8322,10.61859 -2.14869,2.86832 -3.21308,3.67595 -4.82411,3.66005 -1.00982,-0.01 -2.65892,-0.94037 -3.80211,-2.14548 -1.40095,-1.47682 -1.61346,-2.14991 -0.9021,-2.86127 0.86086,-0.86086 1.64308,-0.66521 3.61578,0.90948 2.34977,1.8757 3.20398,1.90197 3.63054,0.11069 0.20953,-0.87991 -0.0937,-1.24476 -2.24695,-2.69892 -3.35,-2.26233 -4.65482,-2.2849 -6.74269,-0.11991 -0.73593,0.76313 -1.91404,2.16074 -2.6196,3.10662 -0.70555,0.94589 -1.9742,2.56412 -2.81883,3.59548 -0.84464,1.03136 -1.5367,2.0132 -1.5367,2.18239 0,0.18948 0.47187,0.30807 1.22678,0.30807 1.06899,0 1.34187,-0.12404 2.14179,-0.9722 0.50438,-0.53481 1.2038,-1.42839 1.55516,-1.98499 0.75886,-1.2021 1.1672,-1.25966 2.00344,-0.28409 1.13073,1.31914 3.40144,3.20517 3.99765,3.32061 1.66297,0.32197 4.86332,0.15329 5.88302,-0.30992 1.32414,-0.60152 4.63153,-4.12212 6.58957,-7.01388 2.12994,-3.14562 4.16598,-5.29927 5.75942,-6.09332 3.29036,-1.63966 7.01842,-0.35227 9.67037,3.33906 0.50976,0.70955 1.06108,1.24563 1.22493,1.19173 0.16386,-0.0539 0.69195,-0.61219 1.17329,-1.24154 l 0.87442,-1.14561 -1.14007,-1.17698 c -3.06385,-3.16655 -5.40476,-4.29966 -8.8808,-4.29466 z m -137.683716,0.009 c -4.772635,-0.0217 -6.054982,0.80011 -10.57431,6.78327 -4.4717822,5.92022 -5.5074496,6.95914 -7.2869027,7.30535 -1.1492626,0.2236 -3.06057293,-0.76985 -4.7189611,-2.45356 l -1.3134873,-1.33378 0.8190848,-0.81724 c 0.95260683,-0.9526 1.07921291,-0.91731 3.5770389,0.99618 0.8256915,0.63254 1.7493065,1.1493 2.0514014,1.1493 0.6845564,0 1.6068082,-0.89295 1.6068082,-1.55515 0,-0.6226 -2.5813843,-2.7814 -4.3924342,-3.67297 -2.794674,-1.37581 -4.1273531,-0.43436 -9.2645125,6.55084 -2.4562645,3.33988 -2.3826135,3.19319 -1.8097345,3.61209 0.5879328,0.42991 0.622151,0.43127 1.6529278,0.0719 0.7613175,-0.2654 2.966415,-2.73643 2.966415,-3.3243 0,-0.13936 0.1366812,-0.39126 0.3043896,-0.55897 0.2301769,-0.23018 0.7648374,0.12056 2.1768468,1.42786 2.51914758,2.33235 3.38030018,2.74151 5.7760232,2.73951 3.9648043,-0.003 4.9002771,-0.7119 10.0596146,-7.61897 1.880123,-2.51702 3.888389,-4.91552 4.462536,-5.33143 2.026524,-1.46801 4.668757,-1.65687 6.943773,-0.49624 1.235998,0.63056 4.005504,3.33373 4.270678,4.16921 0.09534,0.30039 0.25885,0.5479 0.363423,0.5479 0.335851,0 1.890905,-2.19682 1.890905,-2.67125 0,-0.52395 -2.388347,-2.98205 -3.949686,-4.06406 -1.633235,-1.13183 -2.836841,-1.44293 -5.611837,-1.45553 z m 89.680556,0.0184 c -0.5961,-0.0246 -1.2959,-0.01 -2.16762,0.0258 -3.82336,0.15578 -5.06382,0.67413 -7.36992,3.0771 -0.93011,0.96918 -2.179849,2.41694 -2.776404,3.21731 -2.581962,3.46407 -5.287417,6.74673 -5.97895,7.25554 -0.510358,0.3755 -1.147215,0.54975 -2.010816,0.54975 -1.05939,0 -1.471263,-0.16272 -2.545804,-0.99988 -2.1149,-1.64771 -2.704763,-2.93923 -1.798666,-3.94046 0.702946,-0.77674 1.502414,-0.57312 3.267115,0.83753 0.910221,0.7276 1.854312,1.32456 2.099366,1.32456 0.547523,0 1.604963,-0.94764 1.604963,-1.43893 0,-0.51614 -2.804978,-3.0081 -3.901721,-3.46635 -1.388715,-0.58024 -2.710913,-0.48542 -3.829774,0.27487 -0.535798,0.36408 -1.875936,1.88281 -2.977484,3.37411 -1.101549,1.49131 -2.545248,3.39313 -3.209927,4.22825 -1.297132,1.62973 -1.37371,2.10655 -0.354198,2.21374 1.23266,0.12961 2.085368,-0.45122 3.202547,-2.17869 0.590182,-0.91259 1.141289,-1.6611 1.239696,-1.68429 7.23e-4,-9e-5 0.0049,0 0.0055,0 0.08523,0 0.941538,0.78104 1.903819,1.73594 1.02274,1.01491 2.178671,1.88928 2.783781,2.1049 1.245191,0.44369 3.693798,0.49657 5.218898,0.11254 1.721043,-0.43336 2.974775,-1.71059 7.120879,-7.26108 2.34955,-3.14542 4.51872,-5.44296 5.73359,-6.07119 1.43715,-0.74318 3.37115,-0.81325 5.14695,-0.18632 1.73002,0.61077 2.69583,1.34764 6.08779,4.64332 1.28821,1.25164 2.5011,2.27462 2.69708,2.27462 0.33779,0 1.70643,-1.56359 1.70643,-1.94993 0,-0.36187 -4.97963,-5.15836 -6.57297,-6.33131 -1.68994,-1.24409 -2.5359,-1.66775 -4.32418,-1.74148 z m 24.35486,0.002 c -3.68973,0.11499 -5.27691,1.46196 -9.43055,6.9327 -4.09108,5.38836 -5.21655,6.53175 -6.60802,6.71502 l -1.12532,0.14758 -3.66374,-3.60286 c -3.7779,-3.71634 -4.89025,-4.4642 -6.25567,-4.20427 -1.23687,0.23547 -3.73629,2.87614 -7.41973,7.84219 -1.316554,1.77499 -1.659973,2.40826 -1.396499,2.57532 0.192187,0.12185 0.741689,0.22306 1.221249,0.22506 0.89285,0.004 1.17849,-0.21299 2.87602,-2.19345 0.46052,-0.53728 0.95295,-0.97589 1.09396,-0.97589 0.14101,0 0.70907,0.505 1.26183,1.12347 1.89757,2.12318 1.55924,2.04756 9.06159,2.04956 l 6.69841,0.002 0.94084,-0.71762 c 1.01131,-0.77136 3.85501,-4.20446 6.88843,-8.31629 2.06167,-2.79462 3.14161,-3.78966 4.8813,-4.49574 1.44737,-0.58739 2.65118,-0.60527 4.46992,-0.0701 1.23135,0.36233 1.74999,0.74716 3.62685,2.69523 l 2.1916,2.27462 0.939,-0.96667 c 0.71863,-0.73983 0.89711,-1.10276 0.75821,-1.5404 -0.31542,-0.99381 -3.35338,-3.77121 -5.02151,-4.59167 -1.36232,-0.67004 -1.96297,-0.79588 -4.2633,-0.88918 -0.62645,-0.0254 -1.19777,-0.0349 -1.72487,-0.0185 z m -47.353802,0.002 c -0.473997,-0.0139 -0.969987,-0.006 -1.488741,0.024 -2.5506,0.14543 -3.831932,0.63607 -5.50484,2.1049 -1.192991,1.04746 -3.807989,4.22725 -5.54358,6.74084 -1.665401,2.41194 -3.722369,4.56937 -4.777995,5.01044 -1.54701,0.64638 -3.802148,-0.35353 -5.811074,-2.57717 -1.100361,-1.21797 -1.140611,-1.60071 -0.241667,-2.30782 0.552806,-0.43484 0.812527,-0.48534 1.389124,-0.2675 0.68603,0.25918 3.265099,2.26348 3.444214,2.67679 0.04851,0.11189 0.286919,0.1987 0.529454,0.1937 1.027713,-0.0196 2.161801,-1.60078 1.617876,-2.25617 -0.566208,-0.68224 -3.716272,-2.81495 -4.76877,-3.22838 -2.173806,-0.8539 -3.674248,0.34034 -8.779334,6.98621 -1.6559,2.15568 -2.18626,3.0271 -1.972076,3.24128 0.397879,0.39789 1.126426,0.36853 1.996058,-0.0812 0.648608,-0.33541 1.075698,-0.78343 3.119533,-3.28003 l 0.560814,-0.68626 1.973921,1.76731 c 1.085878,0.97186 2.50108,2.01276 3.143514,2.31336 1.414057,0.66166 4.319375,0.60996 5.822143,-0.10331 1.426123,-0.67689 3.341661,-2.68739 6.418008,-6.739 3.224186,-4.24631 5.279589,-6.2503 6.847844,-6.67259 1.19047,-0.32056 3.005496,-0.14391 4.373986,0.42615 1.040875,0.43359 3.564373,2.77108 4.331557,4.01241 0.540616,0.87473 0.567717,0.88579 1.090268,0.42061 0.294575,-0.26224 0.702141,-0.87388 0.907634,-1.35961 0.368615,-0.87131 0.358361,-0.9036 -0.857825,-2.38162 -2.212715,-2.6891 -4.502064,-3.88013 -7.820046,-3.97736 z m 145.815532,0.0978 c -3.0283,0 -3.43447,0.0602 -4.80936,0.70471 -1.92469,0.90226 -3.48807,2.34932 -6.09517,5.64504 -4.5689,5.77572 -5.40554,6.73163 -6.3848,7.28875 -1.92864,1.09723 -4.1306,0.38832 -6.90134,-2.22481 -1.06681,-1.00614 -1.19068,-1.77391 -0.41508,-2.5495 0.81471,-0.81471 1.68441,-0.64859 3.23944,0.618 0.77445,0.6308 1.7381,1.36259 2.1418,1.62711 0.71404,0.46783 0.75324,0.46753 1.44631,-0.048 1.12694,-0.8382 1.03968,-1.46035 -0.37264,-2.66756 -2.44292,-2.08818 -4.93092,-2.86422 -6.74823,-2.1049 -1.39057,0.58102 -2.57215,1.72908 -4.75217,4.61381 -1.07672,1.42479 -2.48113,3.21707 -3.11953,3.98105 l -1.16037,1.38912 h 1.37252 c 1.74703,0 2.16174,-0.23531 3.15089,-1.78206 1.61671,-2.52807 1.90479,-2.66208 2.95166,-1.3799 0.93609,1.1465 3.25815,2.8922 4.42749,3.32984 0.71467,0.26743 1.66477,0.33111 3.37595,0.22506 3.63883,-0.22552 4.61598,-1.00452 9.71649,-7.73888 2.44486,-3.22802 4.35561,-5.1388 5.87011,-5.87195 1.01806,-0.49241 1.57047,-0.58188 3.15642,-0.50178 1.62755,0.0822 2.15939,0.24028 3.46636,1.02201 1.55964,0.93285 3.30297,2.91364 3.31507,3.76705 0.0105,0.74314 1.13345,0.55935 2.21375,-0.36342 0.53277,-0.45508 0.96851,-1.03548 0.96851,-1.2895 0,-0.65241 -3.56412,-3.94774 -5.29638,-4.89606 -1.39243,-0.76225 -1.58153,-0.79326 -4.7577,-0.79326 z m -168.275794,0.004 c -2.120498,0.002 -3.686204,0.13272 -4.364763,0.36711 -2.027101,0.70019 -2.371476,1.07114 -9.902808,10.67024 -1.760835,2.24429 -3.089291,3.11987 -4.706048,3.10477 -1.300729,-0.0122 -1.879543,-0.35376 -3.805792,-2.24326 -1.344356,-1.31871 -1.566352,-1.6655 -1.429709,-2.23403 0.209864,-0.87319 0.889377,-1.37879 1.573602,-1.17144 0.298675,0.0905 1.395967,0.86512 2.438807,1.72118 1.042841,0.85605 2.126772,1.55516 2.407445,1.55516 0.625649,0 1.290172,-0.70109 1.5035,-1.58652 0.13665,-0.56717 -0.06785,-0.85065 -1.440778,-1.98499 -1.760317,-1.4544 -3.746179,-2.5039 -4.744788,-2.5089 -1.429173,-0.008 -2.823762,1.03727 -5.408911,4.05299 -3.823192,4.45997 -4.722207,5.92736 -3.99765,6.52869 0.76954,0.63866 1.9453,0.0253 3.449749,-1.79866 0.792626,-0.96094 1.440778,-1.84195 1.440778,-1.95916 0,-0.52277 0.634536,-0.0844 2.412979,1.66953 1.050603,1.03611 2.278485,2.05103 2.726593,2.25433 0.570328,0.25871 1.623873,0.34712 3.512471,0.29332 2.504348,-0.0713 2.77851,-0.13394 3.835309,-0.8689 0.640331,-0.44532 2.598698,-2.64289 4.47545,-5.0215 5.653665,-7.1655 6.792797,-8.09721 9.912032,-8.11521 2.734373,-0.0158 4.704459,1.18114 7.165146,4.35 0.31075,0.40018 0.69062,0.72684 0.844912,0.72684 0.154292,0 0.714484,-0.56507 1.243386,-1.25629 l 0.961133,-1.2563 -2.073539,-1.90567 c -1.1407,-1.04816 -2.670491,-2.24022 -3.398095,-2.64726 -1.25287,-0.70092 -1.498236,-0.73807 -4.630411,-0.73607 z m -55.37308,0.66965 c -0.498422,0.005 -0.9960234,0.11506 -1.3134873,0.35605 -0.5983397,0.45421 -0.5905325,0.508 0.2342878,1.75439 0.3831397,0.57896 0.790201,1.05337 0.9057896,1.05337 0.3545679,0 1.8374059,-1.94562 1.8374059,-2.41113 0,-0.47204 -0.833293,-0.76017 -1.663996,-0.75268 z m 188.252974,0.0166 c -1.47109,0.0358 -4.17704,0.33906 -4.28913,0.5479 -0.001,0.003 -0.002,0.01 -0.002,0.0129 0,0.14366 0.36498,0.72179 0.81171,1.28582 0.51185,0.64627 0.82967,1.36966 0.85967,1.95547 0.0254,0.4953 0.10245,0.90117 0.17341,0.92424 h 0.002 l 0.002,0.002 h 0.002 c 0.0728,-0.002 0.72793,-0.79039 1.45554,-1.7507 2.00727,-2.64923 2.06991,-2.74497 1.9075,-2.90738 -0.0637,-0.0637 -0.42159,-0.0823 -0.92239,-0.0701 z m 24.31427,0.0166 c -0.29212,-0.0183 -0.68945,0.01 -1.20095,0.0738 -0.81133,0.10137 -1.47583,0.30015 -1.47583,0.44275 0,0.1426 0.26845,0.72901 0.59587,1.30242 0.32743,0.57341 0.71415,1.03977 0.85967,1.03677 0.14552,-0.003 0.66886,-0.54377 1.16405,-1.20096 0.85322,-1.13235 0.93358,-1.59998 0.0572,-1.65477 z m -53.97473,0.0203 c -0.87364,0.06 -0.72371,0.54601 0.16788,1.95732 0.39392,0.62357 0.78096,1.13505 0.87073,1.15115 h 0.002 0.002 c 0.23275,7.4e-4 1.84074,-1.62776 2.11782,-2.14549 0.32548,-0.60817 0.18388,-0.67476 -1.93518,-0.90025 -0.52865,-0.0563 -0.93373,-0.0827 -1.22494,-0.0627 z m -114.795463,0.0203 c -0.916225,0.009 -1.87806,0.1665 -2.06247,0.46488 -0.08136,0.13164 0.221962,0.77549 0.673347,1.43156 0.451386,0.65607 0.928886,1.19357 1.060751,1.19357 0.262937,0 2.115969,-2.33299 2.115969,-2.66387 0,-0.29658 -0.871371,-0.43514 -1.787597,-0.42614 z m 191.518243,0.0424 c -1.00528,0.007 -2.14668,0.19482 -2.29307,0.43168 -0.15702,0.25407 0.28786,1.19993 0.88735,1.88721 0.61329,0.70309 0.93752,0.57767 2.1215,-0.82646 l 1.08842,-1.29135 -0.88549,-0.14205 c -0.26315,-0.0427 -0.58361,-0.0613 -0.91871,-0.059 z m -213.816165,0.007 c -0.3318,-0.005 -0.648804,0.0139 -0.903944,0.0627 -0.862691,0.16491 -0.851958,0.54311 0.05165,1.7341 0.400181,0.52745 0.867307,0.96351 1.038614,0.96851 0.366415,0.0113 1.938869,-1.82566 1.938869,-2.2654 0,-0.25709 -1.129792,-0.48441 -2.125193,-0.49993 z m 115.620085,0.006 c -2.14947,0.0126 -2.36606,0.31055 -1.32825,1.81896 0.7282,1.0584 1.59797,1.60991 1.60497,1.01647 0.001,-0.10914 0.43423,-0.65236 0.96113,-1.20833 1.20829,-1.27492 0.93079,-1.6398 -1.23785,-1.6271 z m -70.633147,0.0535 c -0.275656,-0.005 -0.569304,0.002 -0.868894,0.0221 -1.007253,0.0662 -1.134401,0.61529 -0.405853,1.73963 0.337736,0.52122 0.743576,0.94991 0.902101,0.95191 0.47241,0.005 2.309809,-2.13428 2.053246,-2.39084 -0.187106,-0.18713 -0.85363,-0.30788 -1.6806,-0.32284 z m -88.835643,0.0627 c -0.801168,-0.006 -1.681014,0.10431 -1.994213,0.3376 -0.406534,0.30281 -0.375939,0.43767 0.376337,1.58836 0.451895,0.69123 0.922514,1.2563 1.044148,1.2563 0.318035,0 2.097521,-2.38814 2.097521,-2.81515 0,-0.23579 -0.722624,-0.36071 -1.523793,-0.36711 z m 110.969379,0.0387 c -0.232605,-0.002 -0.521827,0.006 -0.879963,0.0221 -0.970668,0.043 -1.806619,0.20491 -1.857699,0.35973 -0.05108,0.15483 0.281577,0.72175 0.739759,1.25815 0.458181,0.5364 0.924842,0.97404 1.03677,0.97404 0.344671,0 1.84663,-1.84515 1.84663,-2.26908 0,-0.24339 -0.187681,-0.33954 -0.885497,-0.34498 z m 23.255361,0.0443 c -0.64169,-0.007 -1.14029,0.019 -1.3264,0.0904 -0.28407,0.10901 -0.0135,0.62603 1.0626,2.03849 0.79324,1.04116 1.44078,2.04188 1.44078,2.22481 0,0.18294 0.10792,0.33391 0.23982,0.33391 0.34909,0 3.73016,-3.71043 3.73016,-4.09358 0,-0.25777 -3.22187,-0.57284 -5.14696,-0.59402 z m 133.90007,5.04733 c -0.12868,-0.003 -0.23098,0.0606 -0.37634,0.13836 -0.74128,0.39672 -8.11308,9.8751 -7.86986,10.11865 0.21574,0.21602 2.94584,-0.10933 3.29848,-0.39294 0.20757,-0.16695 1.32126,-1.49276 2.4757,-2.94797 1.15444,-1.4552 2.2024,-2.7564 2.32812,-2.89078 0.13478,-0.14407 1.39757,0.90164 3.07895,2.54765 1.56821,1.53523 3.1043,2.92042 3.41285,3.07895 0.91605,0.47065 3.54015,0.80681 3.54015,0.45381 0,-0.42422 -3.78584,-4.68669 -6.12285,-6.89396 -2.7523,-2.59951 -3.37917,-3.20379 -3.7652,-3.21177 z m -147.01834,2.54949 c 0.003,-2.6e-4 0.007,0 0.009,0 0.12299,0 0.56381,0.32851 0.98142,0.72869 0.41762,0.40019 1.67699,1.60303 2.79854,2.6731 1.12098,1.06951 2.03802,1.96096 2.03849,1.98314 -5.5e-4,0.0214 -0.86222,0.0628 -1.91673,0.0922 -1.5034,0.042 -2.14581,-0.065 -2.97564,-0.49809 -1.43163,-0.74727 -3.04389,-2.04 -3.04389,-2.44065 0,-0.38455 1.76535,-2.50531 2.10858,-2.53843 z m -189.566457,10.8455 c -5.970399,0.30804 -9.431557,0.60288 -15.741554,1.34116 -2.401093,0.28093 -4.454859,0.51219 -4.563999,0.51285 -0.50722,0.003 -0.14721,1.00809 0.39847,1.1124 0.32819,0.0627 11.668952,0.14528 25.201617,0.18448 13.532666,0.0391 24.623938,0.092 24.648178,0.11622 0.06512,0.065 287.994415,-0.0618 335.236255,-0.14758 40.56157,-0.0736 41.81242,-0.1011 41.00589,-0.90764 -0.32138,-0.32137 -11.1871,-1.57494 -18.04016,-2.08091 -6.20221,-0.45792 -379.366848,-0.58385 -388.144697,-0.13098 z" /></g></g></svg>
