<?xml version="1.0" encoding="UTF-8" standalone="no"?>
<!-- Created with Inkscape (http://www.inkscape.org/) -->

<svg
   width="119.5773mm"
   height="78.601921mm"
   viewBox="0 0 119.5773 78.601921"
   version="1.1"
   id="svg1"
   xml:space="preserve"
   xmlns="http://www.w3.org/2000/svg"
   xmlns:svg="http://www.w3.org/2000/svg"><defs
     id="defs1" /><g
     id="layer1"
     transform="translate(-36.364114,-20.217645)"><g
       id="g1"
       transform="matrix(0.28012164,0,0,0.28012164,64.711432,3.2870825)"><path
         style="fill:#d3ac4a"
         d="m 278.79021,340.75532 c -0.80037,-0.1308 -2.05052,-0.42071 -2.77813,-0.64423 -1.73838,-0.53406 -4.89479,-2.00939 -4.89479,-2.28788 0,-0.12053 0.28092,-0.66308 0.62426,-1.20566 0.34335,-0.54258 0.94772,-1.55896 1.34306,-2.25862 0.39534,-0.69966 0.79903,-1.23027 0.89709,-1.17915 2.42497,1.2643 5.62738,2.05438 8.32697,2.05438 1.3445,0 2.01034,-0.16073 3.26684,-0.78861 1.89154,-0.94522 2.55777,-1.9598 3.01644,-4.59367 0.40732,-2.33897 0.13447,-2.66574 -1.25314,-1.50078 -1.5806,1.327 -3.28291,1.85551 -5.97726,1.85576 -5.12594,4.8e-4 -9.28401,-2.73464 -10.94878,-7.20194 -0.66802,-1.79256 -0.79592,-6.93855 -0.21644,-8.70813 0.77486,-2.36626 1.70258,-3.96003 3.24855,-5.58081 2.65773,-2.78636 5.32205,-3.82621 9.15172,-3.57179 2.45604,0.16316 4.20128,0.8321 5.46319,2.09401 0.67067,0.67067 0.87824,0.75905 1.07318,0.45696 0.13292,-0.206 0.21166,-0.73173 0.17498,-1.16829 l -0.0667,-0.79375 h 3.30729 3.30729 l 0.0727,11.90625 c 0.0789,12.92025 -0.0634,14.70119 -1.38325,17.30574 -0.83151,1.6409 -3.25267,3.87568 -5.06932,4.67909 -3.04218,1.3454 -6.88533,1.75221 -10.68579,1.13112 z m 6.80139,-16.94444 c 2.24063,-1.04479 3.25432,-2.89012 3.24483,-5.90693 -0.008,-2.48078 -0.42399,-3.83817 -1.52775,-4.98274 -1.38365,-1.4348 -2.31315,-1.85201 -4.15285,-1.86401 -3.61009,-0.0236 -5.69094,2.25367 -5.89368,6.44988 -0.10011,2.07207 -0.0495,2.36055 0.64356,3.66774 0.89623,1.69043 2.53712,2.97064 4.12746,3.22023 1.36576,0.21435 2.10687,0.0927 3.55843,-0.58417 z m -198.888881,7.04645 c -1.961258,-0.54894 -3.327668,-1.54824 -4.471019,-3.26982 -0.869704,-1.30954 -0.961063,-1.62697 -1.045958,-3.63423 -0.112381,-2.65717 0.429198,-4.02993 2.207406,-5.59517 2.092771,-1.84213 7.655517,-3.21757 11.710092,-2.89543 l 1.653646,0.13138 v -0.96585 c 0,-1.34719 -0.796252,-2.70037 -2.011919,-3.41911 -0.926284,-0.54766 -1.27221,-0.59671 -3.412039,-0.4838 -1.869886,0.0987 -2.79907,0.30057 -4.326894,0.94018 -1.070104,0.44798 -2.057349,0.81452 -2.193878,0.81452 -0.253591,0 -1.694425,-3.00491 -1.972957,-4.11467 -0.132777,-0.52903 0.03048,-0.70769 1.178029,-1.2892 2.759329,-1.39825 5.689448,-2.04719 9.432366,-2.08898 3.033719,-0.0339 3.620109,0.0339 4.969486,0.57443 2.42704,0.9722 3.63671,2.03895 4.68775,4.1339 0.89767,1.78926 0.93137,1.96724 1.10221,5.82083 0.0969,2.18633 0.18626,6.44925 0.1985,9.47315 l 0.0223,5.49801 -3.37344,-0.074 -3.373433,-0.074 -0.08136,-1.12448 c -0.04475,-0.61846 -0.181611,-1.12448 -0.304141,-1.12448 -0.12253,0 -0.859825,0.43302 -1.638433,0.96227 -0.778607,0.52925 -1.93151,1.19402 -2.562005,1.47727 -1.550717,0.69665 -4.529947,0.84919 -6.39427,0.32738 z m 7.731604,-5.56563 c 0.477045,-0.24132 1.259324,-0.73224 1.738398,-1.09095 0.859709,-0.6437 0.870038,-0.67686 0.79375,-2.54845 l -0.07729,-1.89626 -2.778125,0.0165 c -3.236859,0.0192 -4.478843,0.36378 -5.443626,1.51036 -0.586022,0.69645 -0.677627,1.01474 -0.569116,1.97745 0.133395,1.18348 0.724063,2.07291 1.647118,2.48022 0.770308,0.33992 3.68033,0.0614 4.688895,-0.44884 z m 84.715587,5.70101 c -3.99297,-0.79164 -6.45761,-3.73942 -6.45761,-7.72348 0,-4.93097 4.74288,-7.70942 12.96458,-7.59486 l 2.77813,0.0387 -0.0855,-1.27776 c -0.17398,-2.59994 -1.77324,-3.82805 -4.99819,-3.83825 -2.26432,-0.007 -2.95435,0.1496 -5.05145,1.14751 -0.91766,0.43667 -1.70089,0.75101 -1.74051,0.69853 -0.0396,-0.0525 -0.57853,-0.98608 -1.19759,-2.07469 l -1.12556,-1.97928 0.66947,-0.57586 c 0.91502,-0.78706 4.43806,-2.11123 6.63494,-2.4938 2.53279,-0.44106 6.52142,-0.1942 8.3496,0.51677 2.43052,0.94523 3.81432,2.14933 4.80985,4.18528 l 0.8787,1.79701 0.0787,9.31081 0.0787,9.3108 -3.2135,0.0819 c -1.76742,0.0451 -3.26475,-0.002 -3.3274,-0.10351 -0.0627,-0.10198 -0.1298,-0.608 -0.14921,-1.12448 -0.0417,-1.10846 -0.27416,-1.15791 -1.40146,-0.29807 -2.56999,1.96023 -5.365,2.61721 -8.49466,1.99672 z m 6.2053,-5.42934 c 0.76002,-0.2257 1.7639,-0.75162 2.23083,-1.16871 0.80944,-0.72303 0.84897,-0.84868 0.84897,-2.69848 v -1.94014 l -2.34286,-0.0768 c -5.04897,-0.16562 -7.61397,1.8254 -6.10669,4.74017 0.76218,1.4739 2.79823,1.90767 5.36975,1.14401 z m 64.31775,5.34168 c -2.38627,-0.64358 -4.33067,-2.39411 -5.39898,-4.86067 -0.37436,-0.86434 -0.44761,-1.4786 -0.32089,-2.69101 0.33495,-3.20456 1.45001,-4.82378 4.27414,-6.20662 2.03273,-0.99534 3.54074,-1.28269 7.67652,-1.46276 l 3.70417,-0.16129 0.0739,-0.92604 c 0.0941,-1.17885 -0.66215,-2.60117 -1.79353,-3.37343 -0.70667,-0.48237 -1.23592,-0.59532 -2.78952,-0.59532 -2.17808,0 -4.94079,0.74327 -6.07299,1.63386 -0.72022,0.56652 -0.73996,0.56771 -1.10774,0.0668 -0.92199,-1.25575 -2.23176,-3.88394 -2.10291,-4.21971 0.33956,-0.88488 4.90776,-2.62575 8.05276,-3.06878 4.48583,-0.63192 7.97588,0.2692 10.41289,2.68857 2.37104,2.35388 2.41508,2.5912 2.53982,13.68936 l 0.10493,9.33488 -3.26191,-0.0745 -3.26192,-0.0745 -0.0838,-1.05833 c -0.11707,-1.47807 -0.40505,-1.64746 -1.39075,-0.81806 -2.53419,2.13239 -6.21238,2.99786 -9.25413,2.17749 z m 7.92638,-5.71271 c 1.58712,-0.80968 2.16842,-1.8853 2.08004,-3.8488 l -0.0715,-1.5875 -2.34286,-0.0768 c -4.03419,-0.13234 -5.87672,0.74497 -6.37227,3.0341 -0.211,0.97466 0.31717,2.19771 1.23914,2.86939 0.8295,0.60431 3.95514,0.38116 5.46741,-0.39034 z m -51.83413,5.64154 c -1.28032,-0.24061 -4.06896,-1.19783 -5.28544,-1.81427 -2.07581,-1.05189 -2.09615,-1.16111 -0.65275,-3.50544 0.69554,-1.12968 1.30748,-2.10691 1.35987,-2.17163 0.0524,-0.0647 0.71868,0.19801 1.48065,0.58383 1.87128,0.94752 4.40607,1.51039 6.80184,1.5104 2.44596,10e-6 3.27809,-0.36708 3.38835,-1.49474 0.13596,-1.39055 -1.01648,-2.04713 -6.43106,-3.66394 -3.96148,-1.18292 -5.54842,-2.26136 -6.60067,-4.48564 -0.97428,-2.05944 -0.93138,-4.03852 0.13373,-6.17001 1.52292,-3.04763 3.81041,-4.27972 8.31902,-4.48081 2.34788,-0.10471 3.34511,-0.0253 5.15938,0.41095 2.32591,0.55926 5.29167,1.77105 5.29167,2.16215 0,0.12266 -0.61055,1.13586 -1.35678,2.25156 -0.96941,1.4494 -1.4793,1.99087 -1.78594,1.89657 -0.23604,-0.0726 -1.084,-0.38649 -1.88437,-0.69757 -1.55824,-0.60563 -4.7866,-0.98609 -5.93075,-0.69893 -1.71714,0.43098 -2.32398,2.31132 -1.06542,3.3013 0.75689,0.59537 1.90446,1.02392 5.0118,1.87161 5.4908,1.4979 8.04885,3.81702 8.06398,7.31078 0.013,3.0125 -1.74422,5.4842 -5.02127,7.06271 -1.61328,0.7771 -1.92463,0.83203 -5.02709,0.88692 -1.81901,0.0322 -3.60494,0.003 -3.96875,-0.0658 z m 21.03438,-0.32992 c -1.7576,-0.43455 -5.68854,-2.27299 -5.68854,-2.66045 0,-0.0997 0.54385,-1.14282 1.20855,-2.31796 l 1.20856,-2.13662 2.28844,0.93299 c 2.01694,0.82229 2.63981,0.94849 5.24991,1.06368 2.92926,0.12926 2.9691,0.12306 3.66318,-0.57103 0.52134,-0.52134 0.65516,-0.85361 0.52061,-1.29263 -0.4141,-1.35113 -1.02783,-1.68759 -5.4317,-2.9778 -5.31486,-1.55711 -6.87714,-2.53798 -7.92613,-4.97645 -0.84869,-1.97283 -0.641,-4.41994 0.53,-6.24478 0.91107,-1.41978 2.674,-2.86703 4.33161,-3.55596 1.65775,-0.68899 5.22746,-1.02126 7.5452,-0.70231 2.33303,0.32106 5.70603,1.3853 6.62196,2.08935 0.71069,0.5463 0.76919,0.387 -1.25873,3.4276 -1.05145,1.57653 -0.85241,1.55264 -3.86709,0.46413 -1.33287,-0.48126 -2.39554,-0.67064 -3.79066,-0.67556 -1.79421,-0.006 -1.99618,0.0508 -2.71198,0.76657 -0.90472,0.90472 -1.00125,1.90917 -0.25517,2.65525 0.28502,0.28502 1.38635,0.76924 2.44739,1.07604 7.00327,2.025 7.63941,2.31443 9.26755,4.21654 2.27482,2.65763 1.9164,6.6019 -0.82501,9.07859 -1.27691,1.15361 -2.86621,1.99851 -4.66129,2.47802 -1.84029,0.49158 -6.20984,0.42077 -8.46666,-0.13721 z m 81.75624,0.14407 c -1.58476,-0.40394 -4.19331,-1.77059 -5.29166,-2.77237 -1.28871,-1.17541 -2.47365,-2.80974 -3.23282,-4.45888 -1.28471,-2.79078 -1.13523,-7.69495 0.33225,-10.90035 2.20443,-4.81512 6.45522,-7.49221 11.84817,-7.46184 3.85319,0.0217 6.55332,1.11998 8.92895,3.63186 2.22376,2.35129 3.15782,5.03702 3.15782,9.07973 v 2.03895 l -8.75802,0.15656 c -4.81691,0.0861 -8.81737,0.21592 -8.88991,0.28846 -0.27929,0.27929 0.5069,1.99064 1.38667,3.01845 1.2249,1.43102 2.86461,2.05164 5.32883,2.01692 1.65784,-0.0234 2.17086,-0.16189 4.02724,-1.08744 l 2.12739,-1.06068 1.72744,1.78932 c 0.95009,0.98413 1.72744,1.93259 1.72744,2.1077 0,0.61746 -2.46232,2.24188 -4.89479,3.22916 -1.67118,0.67829 -7.45608,0.91178 -9.525,0.38445 z m 9.00512,-15.72064 c -0.39196,-1.58108 -1.18388,-2.93737 -2.14096,-3.66672 -0.91719,-0.69895 -1.1902,-0.76505 -3.15996,-0.76505 -1.86308,0 -2.28864,0.0899 -3.1321,0.66146 -1.4366,0.97354 -3.15046,3.81574 -2.62049,4.34571 0.0837,0.0837 2.64559,0.15221 5.69305,0.15221 h 5.54083 z m -416.001559,-1.65364 0.0673,-17.33021 h 4.319753 4.319753 l 0.488104,1.38602 c 0.268457,0.76231 0.811479,2.072 1.206716,2.91042 1.706516,3.62004 6.293204,13.84527 6.944323,15.48116 0.635836,1.5975 1.109892,2.24928 1.109892,1.52601 0,-0.24702 2.617984,-6.42292 4.039651,-9.52965 0.647281,-1.41449 4.464254,-10.11596 4.961636,-11.31094 0.242366,-0.58229 0.340521,-0.59531 4.488692,-0.59531 h 4.240908 l -0.06805,17.39635 -0.06805,17.39635 h -3.571875 -3.571875 l 0.0062,-10.78177 c 0.0034,-5.92997 -0.02994,-10.78177 -0.07412,-10.78177 -0.104632,0 -2.905707,5.87769 -4.097928,8.59896 -0.510035,1.16417 -1.468695,3.24776 -2.130357,4.63021 -0.661661,1.38245 -1.445929,3.08398 -1.742816,3.78117 l -0.539796,1.26764 -2.192885,-0.077 -2.192884,-0.077 -1.560374,-3.175 c -0.858205,-1.74625 -2.797987,-5.79344 -4.310625,-8.99375 -1.512638,-3.20031 -2.834533,-5.90314 -2.937543,-6.00629 -0.10301,-0.10315 -0.187291,4.71795 -0.187291,10.71354 v 10.90108 h -3.50688 -3.506879 z m 41.571963,17.06562 c -0.05621,-0.14552 -0.07135,-7.94411 -0.03364,-17.33021 l 0.06856,-17.06562 6.482291,-0.0786 c 10.666199,-0.1294 14.112913,0.5302 17.179952,3.28773 2.671689,2.40208 3.586368,4.72834 3.408722,8.66924 -0.224002,4.96924 -2.813318,8.30068 -8.020966,10.31986 -1.606353,0.62283 -2.465956,0.7537 -6.47887,0.9864 -2.544732,0.14756 -4.674978,0.31648 -4.733879,0.37538 -0.0589,0.0589 -0.119972,2.55191 -0.135713,5.54003 -0.02445,4.64178 -0.08794,5.45188 -0.43595,5.56298 -0.75199,0.24006 -7.195659,0.004 -7.300502,-0.26715 z m 14.189523,-17.61312 c 1.935217,-0.31397 3.547283,-1.10822 4.290537,-2.1139 0.57013,-0.77144 0.894479,-3.16386 0.624232,-4.6044 -0.103066,-0.54939 -0.588217,-1.41797 -1.122083,-2.00889 -1.29999,-1.43894 -2.78583,-1.83781 -6.845963,-1.83781 h -3.222415 l -0.166846,1.38906 c -0.222311,1.85083 -0.218473,9.05905 0.0049,9.28246 0.274178,0.27418 4.524532,0.20385 6.437595,-0.10652 z m 16.507645,17.63055 c -0.05924,-0.15511 -0.07685,-7.96154 -0.03915,-17.34764 l 0.06856,-17.06562 4.136856,-0.0727 4.136857,-0.0727 0.171093,0.68169 c 0.0941,0.37492 2.143501,4.99155 4.554222,10.25916 2.410722,5.26762 4.4448521,9.84538 4.5202905,10.1728 0.075438,0.32742 0.2284045,0.59531 0.3399248,0.59531 0.1683622,0 1.5876304,-2.70465 1.5876304,-3.02549 0,-0.0553 0.5176935,-1.21294 1.1504301,-2.57245 0.9911827,-2.12969 2.6063007,-5.75226 3.3433847,-7.49893 1.0949531,-2.59472 3.5675842,-8.00661 3.7807188,-8.27492 0.2008482,-0.25285 1.2698125,-0.31916 4.2649747,-0.26458 l 3.9969491,0.0728 v 17.27633 17.27633 l -3.5653572,0.0539 -3.5653572,0.0539 0.081609,-10.84791 c 0.047782,-6.35149 -0.015985,-10.73825 -0.1538414,-10.58334 -0.2255752,0.25349 -2.43046421,4.86743 -3.919572,8.20209 -0.3898988,0.87312 -1.1285809,2.48047 -1.6415158,3.57187 -0.5129348,1.09141 -1.4531915,3.09818 -2.0894592,4.45949 -0.8905142,1.90529 -1.2528515,2.43828 -1.5738381,2.31511 -0.2293432,-0.088 -1.2415232,-0.16001 -2.2492889,-0.16001 h -1.8323013 l -1.343214,-2.84428 c -0.738767,-1.56434 -2.464253,-5.3118 -3.834414,-8.32767 -3.878545,-8.53709 -3.490522,-8.93608 -3.451205,3.54871 l 0.03359,10.66594 -3.400436,0.0174 c -2.178808,0.0112 -3.43913,-0.0839 -3.508142,-0.26458 z m 60.366168,0.11486 c -0.03834,-0.0728 -0.05667,-6.47105 -0.04073,-14.21843 0.02367,-11.50646 -0.03556,-14.11091 -0.323393,-14.22136 -0.193803,-0.0744 -2.545287,-0.13521 -5.225521,-0.13521 h -4.873152 v -3.0427 -3.04271 l 6.548438,-0.0427 c 9.928469,-0.0648 10.903835,-0.0654 16.544854,-0.009 l 5.233917,0.052 -0.07454,3.10885 -0.07454,3.10886 -4.7625,0.0337 c -2.619375,0.0186 -4.90053,0.0483 -5.069234,0.0661 -0.228334,0.0241 -0.30665,3.62164 -0.306406,14.0751 1.8e-4,7.72348 -0.05132,14.09434 -0.114452,14.15747 -0.163388,0.16339 -7.378562,0.26998 -7.462731,0.11025 z m 21.792182,0.0693 -1.743973,-0.0916 0.05707,-18.13249 c 0.03497,-11.10928 0.155128,-18.23054 0.310233,-18.38564 0.143102,-0.14311 1.739158,-0.22083 3.671277,-0.17878 l 3.418116,0.0744 v 6.94531 c 0,4.45687 0.0948,6.94368 0.264583,6.94075 0.145521,-0.003 0.553571,-0.30911 0.906779,-0.68132 0.353207,-0.37221 1.365239,-1.04977 2.248958,-1.5057 1.428723,-0.7371 1.855963,-0.82916 3.855721,-0.83084 3.845409,-0.003 6.431027,1.37266 7.989277,4.25131 1.155376,2.1344 1.302766,3.71539 1.217407,13.05862 l -0.07856,8.59895 -3.388445,0.0487 c -2.550694,0.0366 -3.420677,-0.0353 -3.518813,-0.29106 -0.0717,-0.18685 -0.156819,-3.84016 -0.189149,-8.11846 -0.06444,-8.52788 -0.06836,-8.55076 -1.737659,-10.13774 -1.708588,-1.62432 -5.19478,-1.0603 -6.84969,1.1082 l -0.72041,0.94398 -0.08316,8.28935 -0.08316,8.28935 -1.901215,-0.0518 c -1.045668,-0.0285 -2.686003,-0.093 -3.645189,-0.14342 z m 53.036188,-0.20163 c -0.0555,-0.14552 -0.0699,-5.97958 -0.0319,-12.96458 l 0.0689,-12.7 h 3.57187 3.57188 l 0.0686,12.88409 0.0687,12.88408 -3.60858,0.0805 c -2.23764,0.0499 -3.64689,-0.02 -3.70943,-0.18409 z m 25.39025,0.13744 -1.36962,-0.13744 -0.11004,-14.55208 c -0.0605,-8.00365 -0.052,-15.77541 0.0189,-17.27059 l 0.12892,-2.7185 4.08788,0.0727 4.08788,0.0727 0.85906,2.11667 c 0.47248,1.16416 1.22222,2.89057 1.66609,3.83645 0.44387,0.94589 1.10683,2.43417 1.47324,3.3073 0.3664,0.87312 1.85374,3.99118 3.3052,6.92902 l 2.639,5.34152 1.10075,-2.50003 c 0.60541,-1.37502 2.05642,-4.49308 3.22447,-6.92903 2.59709,-5.41621 2.81329,-5.87754 4.30741,-9.19148 l 1.1929,-2.64584 3.91525,-0.13229 c 2.15339,-0.0728 4.00455,-0.0955 4.11369,-0.0505 0.10914,0.045 0.19844,7.80699 0.19844,17.24894 v 17.16718 l -3.37344,0.0813 c -1.85539,0.0447 -3.46274,0.0445 -3.57188,-5e-4 -0.26983,-0.11117 -0.23076,-19.47577 0.0421,-20.88646 0.11965,-0.61847 0.13924,-1.12448 0.0435,-1.12448 -0.0957,0 -0.5155,0.74414 -0.93288,1.65364 -0.41738,0.90951 -2.07926,4.33417 -3.69308,7.61036 -2.70574,5.49292 -3.84033,7.92819 -4.20298,9.02123 -0.10658,0.32121 -0.6165,0.45985 -2.0753,0.56423 -1.0637,0.0761 -2.09663,0.076 -2.2954,-3.1e-4 -0.19876,-0.0763 -1.63057,-2.76874 -3.18179,-5.98326 -1.55121,-3.21452 -3.55564,-7.33508 -4.45427,-9.1568 l -1.63388,-3.31222 -0.0198,10.92783 -0.0198,10.92782 -2.05052,-0.0748 c -1.12779,-0.0411 -2.66685,-0.13661 -3.42014,-0.2122 z M 109.84945,300.0053 c -1.10095,-0.96664 -1.71548,-2.03593 -1.71548,-2.98493 0,-1.19006 0.76934,-2.64267 1.75643,-3.31634 1.79386,-1.22429 4.96295,-0.66181 6.22034,1.10403 0.67455,0.94733 0.71329,2.97872 0.0801,4.20309 -0.54368,1.05137 -2.22352,1.81383 -4.01281,1.82137 -1.17477,0.005 -1.52087,-0.118 -2.32862,-0.82722 z M -50.704235,275.7912 c -0.02424,-0.0242 -11.116261,-0.0761 -24.648927,-0.11522 -13.532665,-0.0392 -24.873368,-0.12253 -25.201558,-0.18527 -0.54568,-0.10431 -0.9055,-1.10885 -0.39828,-1.11191 0.10914,-6.6e-4 2.162969,-0.23105 4.564062,-0.51198 6.309997,-0.73828 9.772309,-1.03327 15.742708,-1.34131 8.777849,-0.45287 381.94152,-0.32734 388.14373,0.13058 6.85306,0.50597 17.71797,1.7589 18.03935,2.08027 0.80653,0.80654 -0.44356,0.83421 -41.00513,0.90785 -47.24184,0.0858 -335.170834,0.21201 -335.235955,0.14699 z m 8.621024,-6.07816 c -0.181901,-0.0768 -0.330729,-0.24092 -0.330729,-0.3647 0,-0.12378 1.041796,-1.46487 2.315104,-2.98018 1.273307,-1.51532 3.778808,-4.55717 5.567779,-6.75968 1.788971,-2.20251 3.634572,-4.29584 4.101335,-4.65186 2.992529,-2.28251 8.139112,-2.81383 11.387165,-1.17557 2.533864,1.27803 5.668156,4.47087 5.355601,5.45565 -0.08575,0.27016 -0.579431,0.90066 -1.097075,1.40111 -0.854287,0.8259 -0.965558,0.86657 -1.205336,0.44058 -0.638704,-1.13472 -2.995971,-3.7004 -3.957486,-4.30738 -2.238026,-1.41281 -5.435434,-1.44263 -7.507672,-0.07 -1.19749,0.79318 -3.943623,3.92631 -8.596271,9.80767 -2.425392,3.06592 -2.474444,3.10891 -3.551357,3.11247 -0.600598,0.002 -1.330121,0.0549 -1.621163,0.11759 -0.291041,0.0627 -0.677994,0.0511 -0.859895,-0.0257 z m 8.565091,-0.14625 c -0.428374,-0.23973 -0.424339,-0.31062 0.06487,-1.13977 0.568096,-0.96285 4.592908,-5.99535 6.105595,-7.63425 1.764426,-1.91164 3.87087,-2.50338 5.650501,-1.58733 0.465717,0.23973 1.70996,1.09918 2.764986,1.9099 2.138326,1.64317 2.381445,2.27855 1.22109,3.19129 -0.383427,0.3016 -0.78178,0.54837 -0.885228,0.54837 -0.103449,0 -1.177321,-0.71438 -2.386383,-1.5875 -1.209061,-0.87313 -2.477584,-1.5875 -2.818938,-1.5875 -0.675527,0 -1.678978,0.84465 -1.678978,1.41327 0,0.19521 0.752943,1.07795 1.673208,1.96163 2.453164,2.35565 4.352558,2.72693 6.541116,1.27861 0.520818,-0.34466 2.546791,-2.69356 4.502162,-5.21977 1.955371,-2.52621 4.1194304,-5.14959 4.8090206,-5.82973 1.8134089,-1.78856 3.5743638,-2.39416 7.08074209,-2.43511 2.54669381,-0.0297 2.90464071,0.0297 4.29683601,0.71333 1.6146096,0.79286 5.7573301,4.4718 5.7573301,5.11279 0,0.2088 -0.4562757,0.86879 -1.013946,1.46664 l -1.0139461,1.087 -0.8764402,-1.22042 c -1.0742953,-1.49593 -3.0948872,-3.23147 -4.4325686,-3.80726 -0.5696844,-0.24521 -1.74144835,-0.43394 -2.73219522,-0.44005 -3.07115338,-0.019 -5.19259138,1.67697 -9.14260168,7.3088 -2.309035,3.29217 -4.458045,5.63771 -5.72908,6.253 -0.920007,0.44537 -1.652359,0.55935 -3.593962,0.55935 -3.080357,0 -3.774499,-0.28969 -6.324612,-2.63946 -1.1093,-1.02215 -2.093538,-1.85845 -2.187194,-1.85845 -0.09366,0 -0.336332,0.31026 -0.539279,0.68947 -0.513032,0.95861 -2.980245,3.16484 -3.896349,3.4842 -0.49125,0.17125 -0.920094,0.17441 -1.215753,0.009 z m 23.5257841,-0.0414 c -0.5728791,-0.4189 -0.6464191,-0.27214 1.8098455,-3.61202 5.1371594,-6.9852 6.4695474,-7.92746 9.2642214,-6.55165 1.8110499,0.89157 4.3939094,3.05104 4.3939094,3.67364 0,0.6622 -0.9230403,1.5551 -1.6075967,1.5551 -0.3020949,0 -1.2248293,-0.51753 -2.0505208,-1.15007 -2.49782602,-1.91349 -2.62534403,-1.949 -3.5779509,-0.9964 l -0.8186518,0.81865 1.3138287,1.33389 c 1.65838821,1.68371 3.5687071,2.67716 4.7179697,2.45356 1.7794531,-0.34621 2.8160414,-1.38532 7.2878234,-7.30554 4.519328,-5.98316 5.8017,-6.80589 10.574335,-6.78415 2.774996,0.0126 3.977733,0.3249 5.610968,1.45673 1.561339,1.08201 3.949794,3.53872 3.949794,4.06267 0,0.47443 -1.555023,2.67107 -1.890874,2.67107 -0.104573,0 -0.268138,-0.24577 -0.363477,-0.54616 -0.265174,-0.83548 -3.034466,-3.53998 -4.270464,-4.17054 -2.275016,-1.16063 -4.918211,-0.97175 -6.944735,0.49626 -0.574147,0.41591 -2.582188,2.81557 -4.462311,5.33259 -5.1593379,6.90707 -6.0935612,7.61459 -10.0583655,7.61763 -2.39572302,0.002 -3.25814801,-0.40711 -5.7772956,-2.73946 -1.4120094,-1.3073 -1.9452914,-1.65709 -2.1754683,-1.42691 -0.1677084,0.16771 -0.3049243,0.41894 -0.3049243,0.5583 0,0.58787 -2.2052793,3.0595 -2.9665968,3.3249 -1.0307768,0.35933 -1.0655306,0.35781 -1.6534634,-0.0721 z m 31.7344829,-0.26698 c -0.843031,-0.39257 -1.886493,-1.23739 -2.856271,-2.31252 -1.704634,-1.88981 -1.406393,-1.93636 -2.887578,0.45067 -0.912678,1.47085 -2.178476,2.293 -3.227324,2.0962 -0.425951,-0.0799 -0.818271,-0.18913 -0.871822,-0.24268 -0.08738,-0.0874 2.304088,-3.54268 4.999143,-7.22298 1.464534,-1.99993 2.627044,-2.79735 4.277634,-2.93423 1.303639,-0.1081 1.482738,-0.0408 3.468539,1.30274 1.151656,0.77919 2.255623,1.66986 2.453259,1.97925 0.320233,0.50131 0.283652,0.65247 -0.336145,1.38906 -0.382515,0.4546 -0.942677,0.82654 -1.244804,0.82654 -0.311313,0 -1.265621,-0.68783 -2.202537,-1.5875 -0.909269,-0.87313 -1.819725,-1.5875 -2.023235,-1.5875 -0.3738,0 -1.527866,1.36339 -1.527866,1.80498 0,0.46832 1.64673,2.30815 2.706312,3.02366 1.779369,1.20158 3.696887,0.92121 5.267198,-0.77013 0.383609,-0.41317 1.769857,-2.17997 3.080552,-3.92622 3.773235,-5.02711 5.372146,-6.80864 6.815023,-7.5934 2.636427,-1.4339 6.926565,-1.59438 9.538452,-0.35679 1.877191,0.88947 4.321117,2.9974 5.095599,4.39504 0.667626,1.20481 0.667956,1.2088 0.156386,1.89291 -0.281957,0.37705 -0.739386,0.8285 -1.016508,1.0032 -0.439392,0.27701 -0.607988,0.18716 -1.317694,-0.70228 -3.361121,-4.21231 -6.833734,-5.52406 -10.147896,-3.83331 -1.738797,0.88707 -2.524147,1.70386 -5.737188,5.96685 -3.594037,4.76848 -5.229787,6.64383 -6.259421,7.17627 -1.231297,0.63673 -4.60126,0.5075 -6.201808,-0.23783 z m 21.94479,0.26312 c -0.448108,-0.2033 -1.674327,-1.21737 -2.72493,-2.25348 -1.778443,-1.75392 -2.413452,-2.19351 -2.413452,-1.67074 0,0.11721 -0.648512,0.99932 -1.441138,1.96026 -1.504449,1.82392 -2.680609,2.43695 -3.450149,1.79829 -0.724557,-0.60133 0.174301,-2.06951 3.997493,-6.52948 2.585149,-3.01572 3.979927,-4.06091 5.4091,-4.05335 0.998609,0.005 2.984048,1.05573 4.744365,2.51013 1.372924,1.13434 1.578451,1.41721 1.441801,1.98438 -0.213328,0.88543 -0.878569,1.5875 -1.504218,1.5875 -0.280673,0 -1.363548,-0.70041 -2.406389,-1.55646 -1.04284,-0.85606 -2.140444,-1.63052 -2.439119,-1.72104 -0.684225,-0.20735 -1.364219,0.29905 -1.574083,1.17224 -0.136643,0.56853 0.08496,0.91483 1.429316,2.23354 1.926249,1.8895 2.506478,2.23143 3.807207,2.24359 1.616757,0.0151 2.945001,-0.8615 4.705836,-3.10579 7.531332,-9.5991 7.874751,-9.96914 9.901852,-10.66933 0.678559,-0.23439 2.245127,-0.36649 4.365625,-0.36814 3.132175,-0.002 3.377338,0.0366 4.630208,0.73752 0.727604,0.40704 2.256216,1.59767 3.396916,2.64583 l 2.073999,1.90575 -0.96164,1.25677 c -0.528902,0.69122 -1.087878,1.25677 -1.24217,1.25677 -0.154292,0 -0.534781,-0.32742 -0.845531,-0.7276 -2.460687,-3.16886 -4.431262,-4.36488 -7.165635,-4.3491 -3.119235,0.018 -4.257101,0.94971 -9.910766,8.11521 -1.876752,2.37861 -3.835007,4.5756 -4.475338,5.02092 -1.056799,0.73496 -1.33211,0.79729 -3.836458,0.86862 -1.888598,0.0538 -2.942374,-0.0341 -3.512702,-0.29281 z m 23.194597,-0.16434 c -0.642434,-0.3006 -2.056508,-1.34171 -3.142386,-2.31357 l -1.974324,-1.76701 -0.561781,0.68623 c -2.043835,2.4966 -2.469901,2.94475 -3.118509,3.28016 -0.869632,0.4497 -1.598114,0.47949 -1.995993,0.0816 -0.214184,-0.21418 0.31587,-1.08547 1.97177,-3.24115 5.105086,-6.64587 6.605582,-7.83985 8.779388,-6.98595 1.052498,0.41343 4.201744,2.5451 4.767952,3.22734 0.543925,0.65539 -0.590065,2.23758 -1.617778,2.25719 -0.242535,0.005 -0.48066,-0.0832 -0.529167,-0.19509 -0.179115,-0.41331 -2.757159,-2.41727 -3.443189,-2.67645 -0.576597,-0.21784 -0.836257,-0.16795 -1.389063,0.26689 -0.898944,0.70711 -0.858823,1.09058 0.241538,2.30855 2.008926,2.22364 4.262891,3.2234 5.809901,2.57702 1.055626,-0.44107 3.112634,-2.59785 4.778035,-5.00979 1.735591,-2.51359 4.351501,-5.69444 5.544492,-6.7419 1.672908,-1.46883 2.954399,-1.95863 5.504999,-2.10406 4.150032,-0.23662 6.779053,0.87997 9.30787,3.95323 1.216186,1.47802 1.227702,1.50994 0.859087,2.38125 -0.205493,0.48573 -0.61464,1.0977 -0.909215,1.35994 -0.522551,0.46518 -0.549082,0.45496 -1.089698,-0.41977 -0.767184,-1.24133 -3.291048,-3.57934 -4.331923,-4.01293 -1.36849,-0.57006 -3.182358,-0.74691 -4.372828,-0.42635 -1.568255,0.42229 -3.624487,2.42539 -6.848673,6.6717 -3.076347,4.05161 -4.991589,6.063 -6.417712,6.73989 -1.502768,0.71327 -4.408736,0.76468 -5.822793,0.10302 z M 88.181098,269.49 c -0.60511,-0.21562 -1.762025,-1.09015 -2.784765,-2.10506 -0.962281,-0.9549 -1.819332,-1.73619 -1.904558,-1.73619 -0.08523,0 -0.645497,0.75851 -1.245047,1.68559 -1.117179,1.72747 -1.969155,2.3068 -3.201815,2.17719 -1.019512,-0.10719 -0.943562,-0.58237 0.35357,-2.2121 0.664679,-0.83512 2.109773,-2.73855 3.211322,-4.22986 1.101548,-1.4913 2.441194,-3.00935 2.976992,-3.37343 1.118861,-0.76029 2.440898,-0.85521 3.829613,-0.27497 1.096743,0.45825 3.900892,2.94956 3.900892,3.4657 0,0.49129 -1.056143,1.43896 -1.603666,1.43896 -0.245054,0 -1.190279,-0.59531 -2.1005,-1.32291 -1.764701,-1.41065 -2.563338,-1.61581 -3.266284,-0.83907 -0.906097,1.00123 -0.31638,2.29351 1.79852,3.94122 1.074541,0.83716 1.486776,0.99889 2.546166,0.99889 0.863601,0 1.500692,-0.17412 2.01105,-0.54962 0.691533,-0.50881 3.396359,-3.79152 5.978321,-7.25559 0.596555,-0.80037 1.845641,-2.24818 2.775751,-3.21736 2.3061,-2.40297 3.54687,-2.92093 7.37023,-3.07671 3.4869,-0.14207 4.23935,0.0567 6.4926,1.71549 1.59334,1.17295 6.57281,5.96953 6.57281,6.3314 0,0.38634 -1.36838,1.95135 -1.70617,1.95135 -0.19598,0 -1.41031,-1.02407 -2.69852,-2.27571 -3.39196,-3.29568 -4.35716,-4.03182 -6.08718,-4.64259 -1.7758,-0.62693 -3.71002,-0.55695 -5.14717,0.18623 -1.21487,0.62823 -3.38448,2.92519 -5.73403,6.07061 -4.146097,5.55049 -5.398284,6.82759 -7.119327,7.26095 -1.5251,0.38403 -3.973614,0.33128 -5.218805,-0.11241 z m 49.661882,0.20661 c -0.59621,-0.11544 -2.86622,-2.00112 -3.99695,-3.32026 -0.83624,-0.97557 -1.24375,-0.9177 -2.00261,0.2844 -0.35136,0.5566 -1.05153,1.44957 -1.55591,1.98438 -0.79992,0.84816 -1.07361,0.97237 -2.1426,0.97237 -0.75491,0 -1.22553,-0.11813 -1.22553,-0.30761 0,-0.16919 0.69107,-1.15146 1.53571,-2.18282 0.84463,-1.03136 2.11298,-2.6491 2.81853,-3.59499 0.70556,-0.94588 1.88497,-2.34416 2.6209,-3.10729 2.08787,-2.16499 3.39263,-2.14164 6.74263,0.12069 2.15327,1.45416 2.45688,1.81874 2.24735,2.69865 -0.42656,1.79128 -1.2813,1.7653 -3.63107,-0.1104 -1.9727,-1.57469 -2.75547,-1.77189 -3.61633,-0.91103 -0.71136,0.71136 -0.49911,1.38487 0.90184,2.86169 1.14319,1.20511 2.79287,2.1361 3.80269,2.14605 1.61103,0.0159 2.67616,-0.79223 4.82485,-3.66055 7.39111,-9.86653 8.36029,-10.61057 13.83079,-10.618 3.47604,-0.005 5.8178,1.12745 8.88165,4.294 l 1.13974,1.17795 -0.87516,1.14429 c -0.48134,0.62935 -1.00923,1.1884 -1.17309,1.24232 -0.16385,0.0539 -0.715,-0.48251 -1.22476,-1.19206 -2.65195,-3.69133 -6.3797,-4.97839 -9.67006,-3.33873 -1.59344,0.79405 -3.62954,2.94841 -5.75948,6.09403 -1.95804,2.89176 -5.26522,6.41162 -6.58936,7.01314 -1.0197,0.46321 -4.2208,0.63175 -5.88377,0.30978 z m 21.62015,-0.33545 c -0.50932,-0.27365 -1.7354,-1.22088 -2.72462,-2.10497 -0.98923,-0.88409 -1.90346,-1.60744 -2.03163,-1.60744 -0.44636,0 -1.05242,0.82415 -1.3221,1.79784 -0.14933,0.53916 -0.36084,1.11183 -0.47002,1.2726 -0.30797,0.45351 -2.87065,0.98391 -3.37909,0.69937 -0.37329,-0.2089 -0.21046,-0.52432 1.1384,-2.20523 0.86569,-1.0788 2.01853,-2.65876 2.56187,-3.51103 2.04221,-3.20336 3.89603,-4.64946 5.97681,-4.66232 1.18161,-0.007 3.18232,0.98695 4.81434,2.39249 1.07626,0.9269 1.23313,1.18379 1.09275,1.78938 -0.41005,1.7688 -1.64547,1.77331 -3.83705,0.014 -2.43976,-1.95851 -2.7527,-2.06603 -3.58658,-1.23215 -1.11268,1.11268 -0.4422,2.40083 2.13568,4.10318 2.35023,1.552 4.06623,1.39714 6.1975,-0.55932 0.65276,-0.59921 2.58769,-2.94792 4.29985,-5.21934 3.5495,-4.70893 4.5981,-5.79808 6.47837,-6.72889 2.71042,-1.34176 8.437,-1.36328 11.31938,-0.0425 1.40481,0.6437 3.82421,2.51649 6.09584,4.71864 l 1.28991,1.25045 -0.55037,0.89051 c -0.3027,0.48978 -1.09152,1.39772 -1.75293,2.01764 -0.66141,0.61993 -1.20256,1.22608 -1.20256,1.34701 0,0.12092 -0.4223,0.42026 -0.93844,0.66519 -1.49842,0.71104 -2.43908,0.38591 -5.43531,-1.87872 -0.81343,-0.6148 -2.03329,-1.38714 -2.71082,-1.71631 -1.21562,-0.5906 -1.23699,-0.5917 -1.62148,-0.0833 -0.21429,0.28334 -0.39341,0.69285 -0.39803,0.91002 -0.0137,0.64326 3.78444,4.11079 5.31988,4.85678 2.0369,0.98964 4.05617,1.17004 5.5752,0.49811 1.71231,-0.75744 2.98291,-2.00127 6.55456,-6.41646 5.28629,-6.5348 6.24467,-7.26985 10.02962,-7.69243 3.95652,-0.44173 6.10715,0.18218 9.02482,2.61815 1.46599,1.22395 1.83487,1.57799 2.74777,2.63719 0.49208,0.57094 0.48926,0.59129 -0.20919,1.507 -1.25182,1.64123 -1.56958,1.64997 -2.62262,0.0722 -1.24437,-1.86447 -2.15314,-2.6793 -3.88471,-3.48317 -1.05269,-0.48869 -1.89958,-0.67627 -3.06172,-0.67814 -3.4444,-0.006 -5.18287,1.2061 -8.99117,6.26646 -2.67264,3.55132 -6.01694,7.06141 -7.15437,7.50904 -0.42283,0.1664 -2.08524,0.36469 -3.69424,0.44063 -2.55522,0.12061 -3.16846,0.0614 -4.84559,-0.46793 -1.66703,-0.52612 -2.24446,-0.8953 -4.38039,-2.80063 l -2.46024,-2.19463 -1.31209,1.64151 c -0.72164,0.90283 -1.57955,2.02846 -1.90644,2.5014 -0.5472,0.79166 -0.70842,0.8599 -2.03156,0.8599 -0.79045,0 -1.43719,-0.11417 -1.43719,-0.2537 0,-0.13954 0.9647,-1.51515 2.14379,-3.05692 3.80508,-4.97553 6.19992,-7.23951 8.09576,-7.65334 1.14791,-0.25057 2.58226,0.41964 5.31505,2.4835 1.9975,1.50855 2.27607,1.64075 3.12276,1.48191 1.10414,-0.20714 1.34288,-0.66786 0.90005,-1.73695 -0.47305,-1.14203 -3.33472,-3.70379 -5.16754,-4.62596 -1.38526,-0.69699 -1.85174,-0.79344 -3.82654,-0.79117 -3.96845,0.005 -5.19192,0.89042 -10.06491,7.28757 -4.06356,5.33455 -5.49115,6.67482 -7.55011,7.08831 -2.27784,0.45746 -4.57915,0.37016 -5.66831,-0.21501 z m 52.31902,0.16013 c -1.16934,-0.43764 -3.49044,-2.18404 -4.42653,-3.33054 -1.04687,-1.28218 -1.33455,-1.14761 -2.95126,1.38046 -0.98915,1.54675 -1.40478,1.78171 -3.15181,1.78171 h -1.37245 l 1.16072,-1.38907 c 0.6384,-0.76398 2.04168,-2.55479 3.1184,-3.97958 2.18002,-2.88473 3.3632,-4.03316 4.75377,-4.61418 1.81731,-0.75932 4.30504,0.0166 6.74796,2.10478 1.41232,1.20721 1.49895,1.82813 0.37201,2.66633 -0.69307,0.5155 -0.73243,0.51683 -1.44647,0.049 -0.4037,-0.26452 -1.36765,-0.99705 -2.1421,-1.62785 -1.55503,-1.26659 -2.42488,-1.43246 -3.23959,-0.61775 -0.7756,0.77559 -0.65012,1.54324 0.41669,2.54938 2.77074,2.61313 4.97143,3.32302 6.90007,2.22579 0.97926,-0.55712 1.81669,-1.51299 6.38559,-7.28871 2.6071,-3.29572 4.17036,-4.74384 6.09505,-5.6461 1.37489,-0.64452 1.78055,-0.7039 4.80885,-0.7039 3.17617,0 3.36477,0.0315 4.7572,0.79375 1.73226,0.94832 5.29696,4.24235 5.29696,4.89476 0,0.25402 -0.4359,0.8342 -0.96867,1.28928 -1.0803,0.92277 -2.20236,1.10754 -2.21289,0.3644 -0.0121,-0.85341 -1.75563,-2.83493 -3.31527,-3.76778 -1.30697,-0.78173 -1.83922,-0.93842 -3.46677,-1.02061 -1.58595,-0.0801 -2.13896,0.008 -3.15702,0.50041 -1.5145,0.73315 -3.42399,2.64352 -5.86885,5.87154 -5.10051,6.73436 -6.07899,7.51361 -9.71782,7.73913 -1.71118,0.10605 -2.6611,0.0428 -3.37577,-0.22463 z m 23.4841,-0.008 c -1.63244,-0.51362 -2.24993,-0.91546 -4.02956,-2.62229 -1.85929,-1.78323 -2.04497,-1.77129 -3.03109,0.19485 -0.89418,1.78282 -1.4832,2.26666 -2.75944,2.26666 -0.62088,0 -1.20073,-0.11626 -1.28854,-0.25834 -0.13225,-0.21397 4.14535,-6.10381 5.90029,-8.12413 2.38573,-2.74652 5.26188,-2.50581 9.02874,0.75564 1.21045,1.04803 1.27005,1.57206 0.28064,2.46745 -0.44921,0.40654 -0.62143,0.42285 -1.33653,0.12665 -0.45148,-0.18701 -1.48427,-0.85515 -2.29509,-1.48477 -0.81082,-0.62962 -1.70933,-1.21938 -1.99669,-1.31058 -0.72315,-0.22952 -1.87884,1.01449 -1.64039,1.76577 0.50181,1.58105 3.77328,3.94564 5.45891,3.94564 1.96589,0 3.00252,-0.88533 7.28031,-6.21771 4.49836,-5.60733 5.69846,-6.7891 7.63449,-7.5179 1.59455,-0.60024 5.82888,-1.09295 6.68658,-0.77806 1.08552,0.39855 2.63411,1.82942 7.56711,6.99188 4.88466,5.11187 8.36005,9.01732 8.36005,9.39454 0,0.11247 -0.82141,0.17165 -1.82535,0.13151 l -1.82536,-0.073 -5.64912,-5.66992 c -7.6778,-7.70605 -7.91534,-7.90302 -9.53133,-7.90302 -0.71179,0 -1.70832,0.17305 -2.21451,0.38455 -1.46371,0.61157 -3.67662,2.8999 -6.66437,6.89149 -3.8927,5.20059 -5.06409,6.37437 -6.71468,6.72836 -1.72226,0.36936 -4.06792,0.33228 -5.39507,-0.0853 z m -285.293557,-0.10262 c -0.247046,-0.16833 0.839313,-1.747 4.059158,-5.89869 4.099777,-5.28627 7.966111,-10.17745 9.491679,-12.00763 l 0.652287,-0.78252 0.947431,0.45179 c 0.521087,0.24849 1.121985,0.4518 1.335329,0.4518 0.636797,0 0.453945,0.5012 -0.856495,2.34765 -1.846465,2.60173 -9.389145,11.96228 -11.140946,13.82603 -1.404537,1.4943 -1.62474,1.62864 -2.836925,1.73073 -0.722806,0.0609 -1.465989,0.007 -1.651518,-0.11916 z m 149.477469,-0.0232 c -0.263474,-0.16706 0.08009,-0.80065 1.396648,-2.57564 3.68344,-4.96605 6.18251,-7.60794 7.41938,-7.84341 1.36542,-0.25993 2.47858,0.48814 6.25648,4.20448 l 3.66343,3.60376 1.1255,-0.14824 c 1.39147,-0.18327 2.5155,-1.32556 6.60658,-6.71392 4.74701,-6.25228 6.14417,-7.11832 11.1558,-6.91493 2.30033,0.0933 2.90118,0.21859 4.2635,0.88863 1.66813,0.82046 4.70583,3.5989 5.02125,4.59271 0.1389,0.43764 -0.0391,0.79926 -0.75773,1.53909 l -0.93928,0.96704 -2.19044,-2.27354 c -1.87686,-1.94807 -2.39617,-2.33409 -3.62752,-2.69642 -1.81874,-0.53517 -3.02337,-0.51589 -4.47074,0.0715 -1.73969,0.70608 -2.81963,1.7006 -4.8813,4.49522 -3.03342,4.11183 -5.87649,7.54427 -6.8878,8.31563 l -0.9409,0.71766 -6.69838,-0.002 c -7.50235,-0.002 -7.16467,0.0744 -9.06224,-2.04878 -0.55276,-0.61847 -1.12037,-1.12448 -1.26138,-1.12448 -0.14101,0 -0.63317,0.43959 -1.09369,0.97687 -1.69753,1.98046 -1.98296,2.19823 -2.87581,2.19408 -0.47956,-0.002 -1.029171,-0.10376 -1.221358,-0.22561 z m 15.297538,-2.32269 c 4.7e-4,-0.0213 -0.91678,-0.91431 -2.03833,-1.98437 -1.12155,-1.07007 -2.38086,-2.27299 -2.79848,-2.67318 -0.41761,-0.40018 -0.85992,-0.7276 -0.98291,-0.7276 -0.32316,0 -2.11693,2.15135 -2.11693,2.53893 0,0.40065 1.61108,1.69245 3.04271,2.43972 0.82983,0.43314 1.47231,0.54085 2.97571,0.49886 1.05456,-0.0294 1.91776,-0.071 1.91823,-0.0924 z m 132.94395,2.32198 c -0.24322,-0.24355 7.12924,-9.72125 7.87052,-10.11797 0.58143,-0.31118 0.47021,-0.39372 4.13995,3.0723 2.33701,2.20727 6.12351,6.47088 6.12351,6.8951 0,0.353 -2.62399,0.0161 -3.54004,-0.45455 -0.30855,-0.15853 -1.84409,-1.54432 -3.4123,-3.07955 -1.68138,-1.64601 -2.94509,-2.69107 -3.07987,-2.547 -0.12572,0.13438 -1.17311,1.43496 -2.32755,2.89016 -1.15444,1.45521 -2.26881,2.78242 -2.47638,2.94937 -0.35264,0.28361 -3.0821,0.60816 -3.29784,0.39214 z M -77.868105,268.9434 c 0,-0.13107 8.145374,-11.42324 11.251133,-15.59778 1.190905,-1.60072 3.403073,-4.63751 4.915928,-6.74841 1.512855,-2.11089 3.441207,-4.7898 4.285225,-5.95312 0.844018,-1.16332 2.657401,-3.66294 4.029739,-5.55471 1.372338,-1.89178 4.429123,-6.11849 6.792855,-9.39271 2.363732,-3.27422 4.985593,-6.90563 5.826358,-8.06979 0.840765,-1.16417 2.799236,-3.90261 4.352158,-6.08542 1.552922,-2.18281 3.436635,-4.80219 4.186029,-5.82083 0.749394,-1.01865 1.761302,-2.4474 2.248686,-3.175 0.487384,-0.72761 1.319673,-1.8587 1.84953,-2.51354 0.976251,-1.20654 3.679947,-4.94775 6.883519,-9.525 2.310627,-3.30142 5.807409,-8.15863 9.523882,-13.22917 1.653232,-2.25557 3.7740482,-5.1726 4.7129243,-6.48229 0.938876,-1.30969 2.5082268,-3.45281 3.4874461,-4.7625 0.9792193,-1.30969 3.5475993,-4.82203 5.7075111,-7.80521 2.1599117,-2.98318 5.6060755,-7.68614 7.6581416,-10.45104 4.2786889,-5.76498 10.6438039,-14.46498 15.5487759,-21.25244 1.858801,-2.5722 3.651862,-5.02677 3.984581,-5.4546 l 0.604944,-0.77788 1.968543,2.60708 c 1.082699,1.4339 2.200936,2.91504 2.484972,3.29142 1.229322,1.62901 11.971571,15.34028 12.81813,16.3609 0.512988,0.61846 1.056322,1.12012 1.207407,1.1148 0.151085,-0.005 0.870013,-0.79278 1.597617,-1.74991 0.727604,-0.95712 1.727473,-2.23269 2.221932,-2.83459 0.494459,-0.6019 1.759925,-2.24001 2.812147,-3.64024 1.052222,-1.40024 2.502322,-3.30524 3.222445,-4.23334 3.32941,-4.29097 6.865167,-8.90294 11.65452,-15.20195 2.000279,-2.63078 5.658877,-7.39328 8.130217,-10.58333 2.471341,-3.19005 5.447903,-7.057251 6.614583,-8.593789 3.292818,-4.336697 5.507204,-7.210207 6.002848,-7.789628 0.24896,-0.291041 1.14432,-1.438683 1.989689,-2.550313 0.845368,-1.111631 3.651233,-4.802569 6.235256,-8.202083 4.623343,-6.08243 11.709213,-15.364877 13.085863,-17.142422 0.63968,-0.82596 0.72795,-0.864611 0.9843,-0.43104 0.15489,0.261953 2.24016,2.991965 4.63395,6.066693 2.39379,3.074729 6.20379,8.015868 8.46667,10.98031 2.26288,2.964441 5.36448,7.021227 6.89245,9.015079 1.52797,1.993852 4.80219,6.286373 7.27604,9.538936 2.47386,3.252563 5.93389,7.768277 7.68896,10.034917 1.75508,2.26665 5.56508,7.25972 8.46667,11.09572 19.13509,25.29725 20.25893,26.76513 20.48083,26.75065 0.0773,-0.005 1.46703,-1.76122 3.08819,-3.9026 1.62116,-2.14139 4.60184,-6.03656 6.62374,-8.65593 6.25898,-8.10852 7.92218,-10.30076 8.20599,-10.81617 0.24637,-0.44742 0.36288,-0.36764 1.15909,0.79375 0.84524,1.23291 6.8714,9.39861 10.03237,13.59429 0.82225,1.09141 2.08131,2.81781 2.7979,3.83646 0.7166,1.01865 2.1371,2.94056 3.15666,4.27092 1.01957,1.33037 2.58659,3.41396 3.48227,4.63021 0.89568,1.21625 2.2649,3.04888 3.04271,4.07251 0.77781,1.02362 2.3667,3.16538 3.53087,4.75947 2.09512,2.86885 6.16391,8.37307 16.93333,22.90731 3.05594,4.12424 7.7467,10.53812 10.42391,14.25306 2.67722,3.71494 5.26289,7.23814 5.74595,7.82935 0.48305,0.5912 2.40026,3.23126 4.26046,5.86679 3.42687,4.8552 5.86767,8.21666 11.86588,16.34163 1.82631,2.47385 4.40444,6.04572 5.72917,7.9375 3.3673,4.80864 9.52821,13.37489 11.32227,15.7427 0.82694,1.09141 2.55896,3.47266 3.84892,5.29167 1.28997,1.81901 2.89204,3.98651 3.56017,4.81668 0.66813,0.83016 2.57189,3.44953 4.23058,5.82083 1.65869,2.3713 3.17049,4.46878 3.35955,4.66108 0.18907,0.19229 0.34376,0.40065 0.34376,0.46302 0,0.0624 -5.50664,0.1058 -12.23698,0.0965 l -12.23698,-0.0169 -1.02218,-1.2399 c -0.5622,-0.68195 -1.69422,-1.95428 -2.51559,-2.8274 -0.82138,-0.87313 -2.41522,-2.63333 -3.54188,-3.91156 -1.81024,-2.05378 -2.04847,-2.44451 -2.04847,-3.35978 0,-1.46983 1.1889,-5.09636 2.40449,-7.33443 1.10134,-2.02774 1.29757,-3.09627 0.61658,-3.35759 -0.23018,-0.0883 -1.33151,-0.16809 -2.4474,-0.17725 -3.63716,-0.0298 -6.23921,-0.39017 -7.6118,-1.05406 -1.67633,-0.8108 -3.82389,-2.9505 -4.70345,-4.68623 -0.83141,-1.64071 -0.91726,-3.74494 -0.28102,-6.88807 0.64569,-3.18988 0.90286,-3.75916 1.69813,-3.75916 1.00924,0 1.85812,0.70271 1.85595,1.53636 -10e-4,0.39193 -0.23914,1.70241 -0.52917,2.91218 -0.29002,1.20976 -0.52469,2.69804 -0.5215,3.30729 0.0126,2.40778 1.82518,4.62428 4.35982,5.33145 0.7406,0.20663 3.30278,0.43967 5.82083,0.52941 6.28656,0.22407 6.70662,0.29968 7.74379,1.39386 1.22223,1.28942 2.03198,2.39801 2.76567,3.78633 0.3494,0.66115 1.64005,2.48636 2.86811,4.05604 2.44578,3.12612 3.19066,4.19101 3.03821,4.34346 -0.14927,0.14927 -10.02187,0.0555 -10.17401,-0.0966 -0.25823,-0.25824 0.01,-2.13793 0.63804,-4.47789 0.35174,-1.30969 0.71465,-2.97656 0.80648,-3.70417 0.15134,-1.19915 0.10118,-1.38448 -0.53621,-1.98096 l -0.70316,-0.65805 -0.47206,0.62581 c -0.48488,0.64283 -3.06482,7.71288 -3.35224,9.18645 -0.20327,1.04216 0.34351,2.12968 1.64548,3.27283 l 0.98785,0.86734 7.04407,-0.19113 7.04408,-0.19113 0.72273,1.09213 c 0.3975,0.60067 0.66136,1.19142 0.58636,1.31278 -0.075,0.12136 -2.96672,0.24296 -6.42603,0.27023 -3.45932,0.0273 -6.37386,0.13301 -6.47677,0.23499 -0.27629,0.2738 1.14506,2.36019 1.8162,2.66598 0.88449,0.403 16.57679,0.44486 16.71022,0.0446 0.14124,-0.4237 -2.36497,-4.17028 -5.49693,-8.21746 -1.40766,-1.81901 -3.31674,-4.37886 -4.2424,-5.68855 -0.92566,-1.30968 -2.47384,-3.45281 -3.44039,-4.7625 -0.96656,-1.30968 -2.37356,-3.27421 -3.12669,-4.36562 -3.04701,-4.41566 -4.2424,-6.08039 -5.2302,-7.28371 -0.56982,-0.69416 -1.39322,-1.76853 -1.82979,-2.38751 -0.43656,-0.61898 -3.00444,-4.20281 -5.70641,-7.96407 -2.70196,-3.76127 -5.6098,-7.8507 -6.46185,-9.08763 -0.85206,-1.23692 -4.53496,-6.20922 -8.18422,-11.04954 -3.64926,-4.84033 -7.70658,-10.32439 -9.01626,-12.1868 -1.30969,-1.86241 -3.10624,-4.33152 -3.99234,-5.48691 -0.8861,-1.15539 -2.66019,-3.58898 -3.94243,-5.40799 -1.28224,-1.81901 -3.53381,-4.89245 -5.0035,-6.82985 -1.46968,-1.93741 -3.32699,-4.46189 -4.12736,-5.60996 -0.80036,-1.14806 -2.89492,-3.96823 -4.65458,-6.26702 -1.75965,-2.2988 -4.48058,-5.96393 -6.04651,-8.14475 -1.56592,-2.18081 -3.60742,-4.91925 -4.53667,-6.08541 -1.76278,-2.21222 -7.5955,-9.96253 -10.87967,-14.45651 -2.95888,-4.04887 -6.18742,-8.02779 -6.59047,-8.12225 -0.20076,-0.0471 -0.36501,0.0872 -0.36501,0.29833 0,0.21113 -0.1786,0.5321 -0.39688,0.71325 -0.21828,0.18116 -0.39687,0.49677 -0.39687,0.70137 0,0.20459 1.04179,1.84015 2.3151,3.63458 1.27331,1.79442 3.23452,4.55925 4.35826,6.14405 1.86069,2.62414 5.35588,7.45244 7.83181,10.81896 1.18199,1.60715 1.44753,2.38426 0.95453,2.79342 -0.65831,0.54634 -2.7597,7.52396 -2.7597,9.1635 0,2.1065 0.86957,3.52507 2.71402,4.42747 1.21177,0.59287 1.93911,0.71582 5.62275,0.95051 4.54272,0.28942 6.34686,0.56986 7.49902,1.16566 1.0985,0.56805 2.90719,2.65749 3.51725,4.06319 0.48162,1.10976 0.52248,1.57269 0.36712,4.15917 -0.0961,1.60072 -0.19697,3.38666 -0.22405,3.96875 l -0.0492,1.05833 1.5875,0.062 c 4.03216,0.15739 4.78506,0.32251 5.92681,1.2998 0.59656,0.51063 1.0848,1.06797 1.08498,1.23853 2.4e-4,0.22878 -1.26617,0.28855 -4.82865,0.22788 -5.50536,-0.0937 -6.12861,-0.27754 -6.78445,-2.00071 -0.32709,-0.85941 -0.33138,-1.36918 -0.03,-3.56106 0.48447,-3.52293 0.41584,-4.87218 -0.31488,-6.19097 -1.0361,-1.86992 -2.19242,-2.27026 -7.4687,-2.5858 -4.89064,-0.29247 -6.08264,-0.52086 -7.54873,-1.44636 -1.12576,-0.71066 -3.29452,-3.04744 -3.92088,-4.22462 -0.86815,-1.63163 -0.44052,-4.82967 1.19781,-8.95793 0.50787,-1.27972 0.84617,-2.40399 0.75179,-2.49837 -0.0944,-0.0944 -2.57953,-0.25995 -5.52254,-0.36793 -2.94301,-0.10798 -5.61882,-0.27752 -5.94624,-0.37676 -0.45955,-0.13928 -0.59532,-0.0747 -0.59532,0.28328 0,0.25503 1.94933,3.27525 4.33184,6.71158 2.38251,3.43634 4.69895,6.78367 5.14765,7.43851 0.44869,0.65484 2.12198,2.97656 3.7184,5.15938 1.59643,2.18281 4.54035,6.35 6.54204,9.26041 4.06026,5.90352 6.57892,9.44742 9.77811,13.75833 1.94445,2.62015 4.95911,6.82469 9.12814,12.73097 0.80972,1.14713 3.9432,5.53851 6.96329,9.75862 3.0201,4.2201 6.19832,8.68494 7.06271,9.92187 0.8644,1.23693 2.57959,3.67771 3.81152,5.42396 1.23193,1.74625 3.83597,5.43899 5.78676,8.2061 1.95078,2.7671 3.99431,5.61726 4.54117,6.33369 1.41078,1.84822 2.5735,4.04237 2.24854,4.2432 -0.14768,0.0913 -0.39587,0.0872 -0.55154,-0.009 -0.15567,-0.0962 -66.91996,-0.16141 -148.36509,-0.14489 -86.450443,0.0175 -148.232573,-0.0683 -148.443689,-0.20613 -0.679488,-0.44374 0.531567,-3.18428 2.656557,-6.01162 0.556797,-0.74082 1.012358,-1.47504 1.012358,-1.63159 0,-0.15656 0.0893,-0.32433 0.198437,-0.37284 0.109141,-0.0485 0.902068,-1.15975 1.762061,-2.46944 0.859993,-1.30969 2.24087,-3.27422 3.068617,-4.36563 0.827747,-1.0914 2.555537,-3.53218 3.839533,-5.42395 2.329903,-3.43276 4.561304,-6.53457 8.348476,-11.60501 1.101972,-1.47537 2.638085,-3.63499 3.413586,-4.79916 1.3560864,-2.03573 4.5294812,-6.51291 9.2494559,-13.04959 4.5368156,-6.28302 7.336425,-10.28231 8.4603956,-12.08583 0.6348316,-1.01864 1.780162,-2.62598 2.5451786,-3.57187 1.8718979,-2.31446 5.9367249,-8.02032 6.8798139,-9.65729 0.419184,-0.72761 1.372672,-2.15636 2.118862,-3.175 1.547914,-2.11311 2.690401,-3.75908 5.601332,-8.06979 1.130071,-1.67349 2.12121,-3.10224 2.202532,-3.175 0.628693,-0.5625 4.633826,-6.42572 5.892467,-8.62613 0.09179,-0.16046 -0.0037,-0.51765 -0.21219,-0.79375 -0.364734,-0.48301 -0.404393,-0.47197 -1.048528,0.29175 -0.368201,0.43657 -1.533258,1.9746 -2.589015,3.41785 -1.055758,1.44325 -2.252386,3.01294 -2.659174,3.48819 -0.85327,0.99688 -0.937532,1.01214 -7.989125,1.44714 -3.257831,0.20097 -4.78986,0.40757 -5.56499,0.75045 -2.3763422,1.05116 -3.3381593,3.45571 -2.8080259,7.02008 0.6214802,4.17854 0.2218573,5.92127 -1.5658256,6.82849 -0.7632584,0.38733 -1.6553181,0.46267 -5.482441,0.46302 l -4.5708568,4.1e-4 0.4033913,-0.78008 c 0.2218652,-0.42904 0.8334576,-1.1081 1.35909422,-1.50902 0.95713016,-0.73004 3.53898008,-4.01694 3.89502078,-4.95867 0.287764,-0.76114 0.523781,-0.32417 1.1029574,2.04204 0.4040109,1.65058 0.645325,2.18354 1.0202914,2.25342 0.9441051,0.17593 1.0318852,-0.32118 0.5621575,-3.18357 -0.3714746,-2.26366 -0.3972682,-3.01445 -0.1452658,-4.22834 0.5020798,-2.4185 3.0533315,-5.9718 5.1844445,-7.22071 0.650969,-0.3815 1.18358,-0.85252 1.18358,-1.04672 0,-0.19419 0.982266,-1.67154 2.182813,-3.28298 1.200547,-1.61145 3.902957,-5.40637 6.005356,-8.43316 2.102399,-3.02679 4.795468,-6.87247 5.984598,-8.54596 2.746804,-3.86564 4.530128,-6.62767 4.889516,-7.57293 0.326986,-0.86004 0.127895,-1.95207 -0.355886,-1.95207 -0.6204,0 -8.111938,9.78378 -17.394392,22.71668 -3.9999175,5.57294 -4.9742191,6.89716 -9.3995507,12.77532 -1.9015358,2.5258 -4.42715305,5.96159 -5.6124827,7.63508 -1.1853297,1.67349 -3.6181211,5.0311 -5.4062033,7.46135 -1.7880821,2.43026 -3.8994753,5.34729 -4.6919843,6.4823 -0.792509,1.135 -2.232884,3.1352 -3.200834,4.44489 -4.323731,5.85024 -8.735518,11.94288 -10.439489,14.41685 -2.079751,3.01956 -5.948062,8.40589 -11.118076,15.48107 -1.914044,2.61937 -4.060709,5.59593 -4.770366,6.61458 -0.709657,1.01865 -1.895882,2.62599 -2.636056,3.57187 -0.740173,0.94589 -2.46093,3.32714 -3.823904,5.29167 -5.073776,7.31312 -8.145615,11.60343 -10.703364,14.94896 -4.25727,5.56849 -12.588857,17.11775 -12.588857,17.45069 0,0.0985 3.64844,0.14139 8.107645,0.0954 l 8.107645,-0.0836 0.689751,-0.89421 c 0.379362,-0.49181 1.205428,-1.54379 1.835701,-2.33773 1.216932,-1.53293 1.263904,-1.94165 0.165634,-1.44125 -0.371264,0.16916 -0.853838,0.30756 -1.072387,0.30756 -0.486465,0 -1.416053,-1.96656 -1.424012,-3.01252 -0.0058,-0.75695 0.0049,-0.76211 1.224267,-0.59497 1.267794,0.17377 1.940534,0.53938 1.950805,1.0602 0.0032,0.16408 0.219094,0.57549 0.479686,0.91423 0.435523,0.56614 0.503235,0.58044 0.838094,0.17695 0.296375,-0.3571 0.302182,-0.53839 0.03115,-0.97239 -0.183228,-0.29339 -0.259409,-0.60718 -0.169291,-0.6973 0.304206,-0.3042 5.429063,-0.39443 5.429063,-0.0956 0,0.15386 -0.119203,0.35342 -0.264894,0.44346 -0.145692,0.09 -2.007199,2.42868 -4.136683,5.19697 -2.129484,2.76829 -4.004578,5.07321 -4.166877,5.12205 -0.441804,0.13294 -24.504461,0.37989 -24.504461,0.25148 z M 282.06008,252.8826 c -0.23368,-3.22676 -0.51237,-3.33162 -1.40747,-0.52955 -0.31384,0.98248 -0.63307,1.93515 -0.70939,2.11705 -0.0992,0.23631 0.20306,0.33073 1.0585,0.33073 h 1.19728 z m -26.17196,-6.52314 c 0.0833,-0.13479 -0.12704,-0.58257 -0.46743,-0.99508 -0.34038,-0.4125 -1.13693,-1.52391 -1.77011,-2.4698 -0.63317,-0.94588 -2.71426,-3.92244 -4.62465,-6.61458 -1.91038,-2.69213 -5.00653,-7.09745 -6.88034,-9.78958 -1.87381,-2.69214 -5.56402,-7.87136 -8.20048,-11.50938 -2.63645,-3.63802 -5.5494,-7.68614 -6.4732,-8.99583 -0.92381,-1.30969 -2.78034,-3.86953 -4.12562,-5.68854 -1.34528,-1.81901 -3.20222,-4.39886 -4.12654,-5.73299 -0.92432,-1.33414 -3.279,-4.66789 -5.23263,-7.40833 -7.98178,-11.19644 -10.71493,-15.04902 -14.70324,-20.72535 -6.96677,-9.9154 -8.19652,-11.62755 -8.35663,-11.63475 -0.0845,-0.004 -0.55634,0.55863 -1.0486,1.24986 -0.49227,0.69122 -2.96942,4.05474 -5.5048,7.47448 -7.89988,10.65545 -7.69935,10.40546 -7.90207,9.85084 -0.0675,-0.18458 -0.99159,-1.44717 -2.0536,-2.80574 -1.06201,-1.35858 -3.70558,-4.83896 -5.8746,-7.73418 -4.81483,-6.42686 -7.55533,-10.02479 -11.06312,-14.52446 -1.47476,-1.89177 -5.28562,-6.8924 -8.46858,-11.1125 -8.46047,-11.21725 -13.75211,-18.20327 -15.83251,-20.90208 -1.00958,-1.30969 -4.44049,-5.83407 -7.62426,-10.05417 -9.16684,-12.150724 -12.38717,-16.378383 -12.75953,-16.750735 -0.28578,-0.285782 -0.4307,-0.216121 -0.82558,0.396845 -0.26343,0.40891 -2.21874,3.065192 -4.34513,5.902848 -2.12639,2.837656 -4.45025,5.992812 -5.16413,7.011462 -1.36096,1.94195 -8.252351,11.14462 -13.572069,18.12395 -3.83176,5.02717 -10.753888,14.23429 -12.901576,17.16038 -2.603127,3.54661 -9.81202,13.04856 -13.800391,18.19012 -4.840151,6.23963 -8.306128,10.76132 -10.625535,13.862 -1.360678,1.81901 -2.57007,3.4075 -2.687538,3.52998 -0.214372,0.22352 -3.52236,-4.03398 -9.928201,-12.77793 -1.89177,-2.58227 -3.749084,-5.08147 -4.127363,-5.5538 l -0.68778,-0.85877 -0.739077,1.28182 c -0.91604,1.58874 -5.136515,7.6945 -8.848143,12.80059 -1.537554,2.11522 -3.748052,5.24374 -4.912219,6.95228 -1.164167,1.70854 -3.644806,5.27619 -5.512531,7.92811 -1.867725,2.65192 -4.096669,5.83371 -4.9532082,7.07064 -1.6375643,2.3648 -4.4800306,6.36644 -7.0477664,9.92187 -1.84418422,2.55356 -5.1417,7.24302 -8.3721943,11.90625 -1.3105413,1.89177 -2.9951482,4.27302 -3.7435708,5.29167 -2.4992513,3.40162 -7.6599693,10.51257 -9.1321853,12.58324 -6.312557,8.87857 -11.125163,15.8895 -11.0219,16.05653 0.183198,0.29634 285.857558,0.38903 286.040628,0.0928 z M 112.3673,238.18345 c 0,-0.11727 -0.58836,-1.11847 -1.30747,-2.22489 -4.59659,-7.07231 -6.21259,-13.55815 -4.9325,-19.79671 0.57683,-2.81122 1.78972,-7.20337 2.10348,-7.61717 0.18052,-0.23809 0.56937,-0.29737 1.20911,-0.18433 1.89897,0.33552 1.7974,0.16207 1.98416,3.38838 0.18274,3.15684 0.57829,8.11308 0.83764,10.49566 0.13307,1.22256 0.20111,1.36376 0.44619,0.92604 0.17701,-0.31615 0.32406,-2.82547 0.37911,-6.4696 0.0495,-3.27421 0.15404,-6.46483 0.23239,-7.09026 l 0.14245,-1.13714 1.47311,0.0788 1.47311,0.0788 0.59555,1.85209 c 1.17665,3.65925 2.03612,7.4471 2.17523,9.5867 0.14839,2.28211 -0.26531,5.66701 -0.86327,7.06328 -0.19138,0.44688 -0.71051,1.74413 -1.15363,2.88276 -0.44311,1.13863 -1.61339,3.49012 -2.60061,5.22552 -1.60198,2.81604 -2.19405,3.60997 -2.19405,2.94206 z m -23.897068,-6.07064 c -0.06369,-0.10914 -0.198257,-1.98437 -0.299038,-4.16718 -0.273988,-5.93429 0.506355,-10.29085 2.535471,-14.15521 0.420259,-0.80037 2.140107,-3.06255 3.821886,-5.02708 4.144782,-4.84164 3.599645,-4.41119 4.864309,-3.84091 1.85391,0.836 1.85393,0.83437 -0.07393,4.70537 -1.735917,3.4856 -3.565122,7.92999 -3.782261,9.1897 -0.106361,0.61705 -0.09712,0.6233 0.137681,0.0932 0.138435,-0.31253 0.369488,-0.64103 0.513452,-0.73001 0.143964,-0.089 1.717457,-2.66352 3.49665,-5.72122 2.433168,-4.1816 3.340108,-5.52876 3.659398,-5.43566 0.23347,0.0681 0.86674,0.20213 1.40725,0.29787 0.54052,0.0957 1.09639,0.31098 1.23526,0.47831 0.26096,0.31444 -1.0098,5.67535 -2.0713,8.73808 -1.90305,5.49084 -6.299508,10.40648 -13.001219,14.53656 -2.100755,1.29464 -2.255564,1.36041 -2.443613,1.03816 z m 43.879498,-2.21682 c -4.03438,-2.67087 -6.9311,-5.25337 -8.7471,-7.79826 -1.17043,-1.64023 -2.76804,-4.70123 -2.76845,-5.30436 -1.2e-4,-0.16738 -0.53972,-2.16702 -1.19911,-4.44364 -0.6594,-2.27662 -1.13458,-4.24339 -1.05596,-4.3706 0.13513,-0.21865 2.42404,-0.80329 3.14492,-0.80329 0.18416,0 0.53277,0.38695 0.77468,0.85989 1.4416,2.81842 6.90212,11.57552 7.21795,11.57552 0.42123,0 -2.88498,-7.24389 -4.88444,-10.70177 -0.7529,-1.30206 -1.31843,-2.49893 -1.25674,-2.6597 0.0617,-0.16076 0.70712,-0.60097 1.43428,-0.97823 l 1.3221,-0.68593 3.00574,3.46971 c 1.65316,1.90834 3.62341,4.40631 4.37834,5.55103 2.5916,3.92971 3.86193,9.9857 3.39659,16.19242 -0.1608,2.14482 -0.25613,2.51247 -0.65145,2.51247 -0.25469,0 -2.1048,-1.08687 -4.11135,-2.41526 z M 70.434156,218.52066 c 0.389129,-1.27011 1.538819,-3.86877 2.812195,-6.35646 1.537563,-3.0038 3.576984,-5.83366 5.290541,-7.34104 1.300667,-1.14417 5.627868,-3.43299 9.006763,-4.76401 1.117358,-0.44015 2.579758,-1.05796 3.249777,-1.37291 1.190615,-0.55965 1.230567,-0.56145 1.763259,-0.0794 1.196675,1.08297 1.140152,1.28934 -0.762765,2.7849 -4.42883,3.48075 -9.22224,7.82664 -8.941854,8.10703 0.123849,0.12385 1.235204,-0.65755 6.990333,-4.91495 1.654067,-1.22361 3.420314,-2.46837 3.924995,-2.76614 l 0.917601,-0.5414 0.932694,0.9327 0.932694,0.93269 -0.993862,1.55405 c -5.494161,8.59091 -8.643766,10.85188 -18.511099,13.2883 -1.74625,0.43119 -3.991534,0.86988 -4.989521,0.97489 l -1.814522,0.19091 z m 81.091474,0.17163 c -2.34265,-0.39612 -7.70275,-1.75345 -9.84921,-2.4941 -1.75823,-0.60669 -4.36893,-2.08135 -5.91235,-3.33962 -1.22683,-1.00015 -6.22854,-6.53713 -7.21028,-7.98189 -0.64105,-0.9434 -0.64404,-0.97309 -0.18368,-1.82792 0.25738,-0.47792 0.62046,-0.92747 0.80684,-0.99899 0.38007,-0.14585 1.6551,0.61357 6.06813,3.61421 3.08122,2.09508 7.68415,4.6402 7.93617,4.38818 0.0763,-0.0763 -2.07991,-1.73695 -4.79158,-3.69034 -6.92551,-4.98889 -7.09442,-5.1196 -7.16971,-5.54852 -0.0371,-0.21139 0.34053,-0.86059 0.83921,-1.44267 0.83427,-0.97381 0.95314,-1.03009 1.48835,-0.70474 0.31991,0.19447 1.96578,0.88708 3.65749,1.53911 1.69171,0.65204 4.39275,1.82189 6.00231,2.59966 3.26237,1.57644 4.78235,2.9556 7.04864,6.39562 2.20169,3.34194 4.70845,8.97636 4.29281,9.64888 -0.1765,0.28558 -0.50832,0.26837 -3.02314,-0.15687 z m -42.8625,-13.81155 c -3.25351,-0.56961 -7.39746,-2.51925 -10.015357,-4.71201 -6.321456,-5.29488 -8.261925,-14.89037 -4.532599,-22.41339 1.175821,-2.37194 3.46418,-5.30912 5.229665,-6.71244 1.843951,-1.4657 5.667631,-3.37539 7.995381,-3.99319 2.6556,-0.70481 7.99457,-0.64606 10.66045,0.11731 7.23683,2.07225 12.28458,7.10743 14.11481,14.07965 0.69827,2.66003 0.64226,7.25825 -0.12071,9.90995 -1.67221,5.81173 -5.89444,10.32047 -11.80478,12.60581 -4.00363,1.54808 -7.26487,1.86448 -11.52686,1.11831 z M 68.578762,202.2777 c -1.309687,-0.21249 -3.452812,-0.70038 -4.7625,-1.08421 -1.309687,-0.38384 -2.64914,-0.75653 -2.976562,-0.8282 -0.327422,-0.0717 -0.5853,-0.26526 -0.573063,-0.43019 0.02662,-0.35881 3.446017,-3.37995 6.330254,-5.59298 1.138963,-0.8739 3.062854,-2.08428 4.275315,-2.68972 4.338836,-2.16659 6.799007,-2.71394 13.110898,-2.91695 l 4.82101,-0.15506 0.235188,0.63262 c 0.129354,0.34794 0.311394,1.0504 0.404534,1.56102 l 0.169345,0.9284 -2.976585,0.75663 c -4.688781,1.19185 -11.047242,3.42702 -10.709571,3.76469 0.05092,0.0509 3.158685,-0.52451 6.906154,-1.27873 4.923003,-0.99081 6.931483,-1.29694 7.238498,-1.10328 0.233704,0.14742 0.576737,0.70655 0.762293,1.24252 0.328283,0.94822 0.314595,0.99183 -0.507875,1.61802 -1.554114,1.18322 -9.425779,4.8707 -11.31453,5.30029 -2.677049,0.60888 -7.578841,0.73815 -10.432803,0.27513 z m 78.730818,0.12881 c -2.30356,-0.48462 -5.24888,-1.61296 -8.8892,-3.40543 -5.06498,-2.49396 -4.83767,-2.27011 -3.97692,-3.91626 0.69914,-1.33709 0.70436,-1.34057 1.68185,-1.12107 6.61238,1.48477 13.5132,2.89334 14.175,2.89334 0.31498,0 0.43338,-0.0927 0.28605,-0.22409 -0.32091,-0.28609 -8.57742,-3.00849 -11.36385,-3.74698 -4.32073,-1.14512 -4.19354,-1.02936 -3.40364,-3.09769 0.50987,-1.33508 -0.12027,-1.26818 7.00932,-0.74409 4.51438,0.33186 5.49896,0.48771 7.53258,1.19235 3.53544,1.225 6.31637,2.69392 9.13716,4.82633 2.64714,2.00116 5.78222,4.7134 5.78464,5.00447 7.7e-4,0.0922 -0.2665,0.23056 -0.59392,0.30753 -0.32742,0.077 -2.26218,0.58031 -4.29948,1.11856 -3.36226,0.8883 -4.0827,0.98699 -7.8052,1.06925 -2.25558,0.0499 -4.62905,-0.0204 -5.27439,-0.15622 z m -6.49957,-15.10386 c -1.01865,-0.12396 -2.4474,-0.3764 -3.175,-0.56099 l -1.32292,-0.33562 v -1.44521 -1.44522 l 1.71979,-0.32489 c 7.20076,-1.3603 10.38572,-2.03493 11.64167,-2.46591 l 1.45521,-0.49936 -1.05834,-0.0174 c -1.11523,-0.0183 -8.67696,0.84442 -11.37708,1.298 -2.82461,0.4745 -2.89619,0.45107 -3.28753,-1.07583 -0.21625,-0.84377 -0.25172,-1.43871 -0.0951,-1.59532 0.44716,-0.44716 5.61921,-2.58813 8.37059,-3.46501 2.4864,-0.79243 2.94913,-0.85515 6.25684,-0.84808 3.0227,0.006 3.96295,0.11478 6.11545,0.7045 3.51057,0.96181 9.56628,3.19156 9.69198,3.56865 0.17256,0.51767 -5.13649,4.25714 -7.98048,5.62112 -5.75461,2.7599 -10.85705,3.62857 -16.95507,2.88653 z m -66.083394,-0.47756 c -1.275346,-0.27935 -3.180346,-0.83178 -4.233333,-1.22763 -2.761379,-1.03808 -7.768471,-3.62817 -9.415567,-4.87052 -0.778596,-0.58728 -1.522736,-1.06777 -1.653645,-1.06777 -1.492129,0 3.724755,-2.66204 7.434899,-3.79383 7.499813,-2.28785 11.645538,-2.07038 19.622063,1.02931 1.697083,0.65948 3.230378,1.37351 3.407322,1.58671 0.252713,0.3045 0.251341,0.639 -0.0064,1.55955 -0.180462,0.64454 -0.4636,1.21866 -0.629196,1.27581 -0.165596,0.0572 -1.967959,-0.10035 -4.005251,-0.35001 -2.037291,-0.24965 -5.192447,-0.52639 -7.011458,-0.61498 -2.998818,-0.14604 -3.218809,-0.12685 -2.35863,0.20573 0.521764,0.20173 3.42041,0.80379 6.441435,1.33791 7.158725,1.26567 6.863766,1.14191 6.703245,2.81249 -0.07042,0.73285 -0.234133,1.43761 -0.363812,1.56612 -0.426417,0.42259 -3.609175,0.81267 -7.644113,0.93686 -3.259665,0.10033 -4.383045,0.0314 -6.287562,-0.38575 z m 58.711584,-11.286 c -0.27096,-0.37852 -0.50908,-1.06486 -0.52917,-1.52521 -0.0338,-0.77425 0.15339,-0.96593 2.4968,-2.55679 2.74219,-1.86159 7.91772,-5.76158 7.91772,-5.96635 0,-0.27474 -2.14495,0.79617 -5.29167,2.642 -4.44883,2.60962 -6.33127,3.58893 -6.89869,3.58893 -0.47214,0 -2.36172,-2.0591 -2.36172,-2.5736 0,-0.30314 3.89239,-4.15406 6.01311,-5.94904 5.14593,-4.35555 10.12328,-6.12516 19.45303,-6.91621 1.0421,-0.0884 1.25677,-0.0308 1.25677,0.33719 0,0.24406 -0.1005,0.55685 -0.22333,0.6951 -0.12283,0.13824 -0.49845,0.96573 -0.83471,1.83885 -2.07703,5.39318 -3.79531,8.17234 -6.77082,10.95113 -2.31628,2.16316 -5.10007,3.6504 -9.36905,5.00542 -3.81978,1.21244 -4.26881,1.25205 -4.85827,0.42858 z m -44.883397,-0.14681 c -6.434061,-1.99406 -9.216846,-3.39246 -11.965766,-6.01303 -2.657177,-2.53311 -4.180667,-4.8544 -6.234961,-9.50001 -1.023072,-2.31359 -1.078029,-2.96335 -0.25396,-3.00256 4.722866,-0.22475 10.965111,0.82182 14.408894,2.41579 0.935805,0.43315 1.762275,0.78753 1.836602,0.78753 0.553638,0 3.331509,2.29155 5.648774,4.65985 1.527968,1.56161 3.105547,3.16429 3.505729,3.5615 0.400182,0.39722 0.727604,0.82653 0.727604,0.95403 0,0.1275 -0.522002,0.82387 -1.160003,1.54749 -1.082182,1.22741 -1.19312,1.28807 -1.653646,0.90422 -1.526479,-1.27234 -11.607059,-6.81957 -11.885929,-6.5407 -0.11767,0.11767 5.789238,4.65763 7.798446,5.99377 0.957966,0.63705 2.125144,1.52016 2.593728,1.96245 l 0.851971,0.80417 -0.569962,1.01411 c -0.672149,1.19593 -1.081659,1.24661 -3.647521,0.45139 z m 8.963331,-8.16928 c -1.431567,-0.7565 -6.060597,-5.46078 -7.158913,-7.27529 -1.852781,-3.06095 -2.867064,-7.26398 -2.854582,-11.82895 0.0086,-3.13669 0.378236,-6.78724 0.722106,-7.13111 0.260728,-0.26073 6.142397,3.29412 8.614127,5.20634 2.015961,1.55961 4.295728,4.04472 5.365398,5.84864 1.27873,2.15649 3.27636,8.93923 3.28001,11.13692 0.002,1.2947 -0.37858,1.60511 -2.11038,1.72054 l -1.12066,0.0747 -1.58125,-2.77813 c -1.950084,-3.42613 -5.501512,-8.82253 -5.685266,-8.63878 -0.27736,0.27736 1.312447,3.93863 4.642437,10.69136 l 1.077429,2.18487 -1.044552,0.6594 c -0.574504,0.36267 -1.076685,0.65414 -1.115957,0.64771 -0.03927,-0.006 -0.502748,-0.23964 -1.029947,-0.51823 z m 27.747606,-0.18324 c -0.5457,-0.37474 -0.99219,-0.80767 -0.99219,-0.96207 0,-0.1544 0.93861,-2.19211 2.0858,-4.52826 2.47246,-5.03494 3.82204,-8.0852 3.65236,-8.25488 -0.0676,-0.0676 -1.34678,1.87798 -2.84265,4.32348 -3.72072,6.08271 -4.6961,7.48906 -5.1941,7.48906 -0.23474,0 -1.06995,-0.31467 -1.85603,-0.69926 -1.08285,-0.52979 -1.38713,-0.80232 -1.2555,-1.12448 0.17033,-0.41691 0.68833,-2.08927 1.669,-5.38839 1.71626,-5.77373 4.12075,-9.11646 9.29737,-12.92522 3.0412,-2.2376 6.90931,-4.79153 7.04763,-4.65322 0.32381,0.32382 0.66316,5.67584 0.53417,8.42476 -0.20131,4.29009 -1.12181,7.58845 -3.18321,11.40613 -1.56118,2.89128 -6.17318,7.62353 -7.39676,7.58961 -0.31554,-0.009 -1.02019,-0.32252 -1.56589,-0.69726 z m -17.11055,-4.45987 c -0.29299,-0.66235 -0.98175,-2.53759 -1.53058,-4.16719 -0.96475,-2.86458 -0.99793,-3.08582 -1.00003,-6.66707 -0.002,-2.75176 0.12281,-4.18037 0.48389,-5.55625 0.87741,-3.34341 5.72974,-12.56851 6.61028,-12.56727 0.43804,6.2e-4 2.88714,3.99006 4.2823,6.97563 1.77007,3.78783 2.27386,5.82484 2.43641,9.85116 0.12724,3.15194 0.0765,3.71177 -0.55997,6.1826 -0.86306,3.35023 -2.16878,6.54705 -2.81548,6.89315 -0.54036,0.28919 -1.55285,0.003 -2.02718,-0.57281 -0.41484,-0.50369 -0.57326,-1.96384 -0.88532,-8.16025 -0.15015,-2.98139 -0.36759,-5.5153 -0.48319,-5.6309 -0.27917,-0.27917 -0.83503,5.62702 -0.83121,8.83187 0.002,1.39851 -0.0734,3.10063 -0.1669,3.78248 -0.15094,1.10123 -0.27278,1.28271 -1.09064,1.62443 -1.49235,0.62354 -1.83536,0.50749 -2.42238,-0.81958 z M -66.226439,262.84532 c 0,-0.30158 1.019973,-1.58687 2.342431,-2.95174 0.731994,-0.75547 2.095617,-2.53781 3.030274,-3.96077 2.769341,-4.21614 1.95855,-3.88494 9.927712,-4.05531 5.918281,-0.12651 6.91145,-0.20816 7.718332,-0.6345 2.871775,-1.51738 3.622216,-4.55414 2.254569,-9.12342 -0.48134,-1.60815 -0.585327,-2.32294 -0.390811,-2.68639 0.687858,-1.28528 2.616285,-1.17289 2.937158,0.17117 0.10198,0.42718 0.397995,1.31246 0.65781,1.96731 0.344328,0.86785 0.475374,1.94376 0.483395,3.96875 0.0097,2.44706 -0.06782,2.93577 -0.650455,4.10104 -0.83021,1.66042 -3.012742,3.8472 -4.612778,4.62177 -1.090567,0.52793 -1.954976,0.63007 -8.028128,0.94859 -3.743283,0.19632 -6.826273,0.36276 -6.851091,0.36986 -0.314621,0.09 -0.300717,2.05933 0.02799,3.96407 0.664687,3.85166 1.145795,3.45717 -4.216197,3.45717 -2.546615,0 -4.630208,-0.0709 -4.630208,-0.1576 z m 189.441659,-4.40835 c 0,-0.18293 -0.64902,-1.18446 -1.44226,-2.22562 -1.07612,-1.41246 -1.3456,-1.9301 -1.06153,-2.03911 0.74442,-0.28566 6.47254,0.16088 6.47254,0.50457 0,0.38315 -3.37985,4.09277 -3.72894,4.09277 -0.1319,0 -0.23981,-0.14967 -0.23981,-0.33261 z m 72.58045,-0.86394 c -0.03,-0.58581 -0.34804,-1.30885 -0.85989,-1.95512 -0.44673,-0.56403 -0.81223,-1.14305 -0.81223,-1.28671 0,-0.27876 4.95958,-0.74439 5.21441,-0.48956 0.16241,0.16241 0.10015,0.2573 -1.90712,2.90653 -0.72761,0.96031 -1.38245,1.74791 -1.45521,1.75023 -0.0728,0.002 -0.15374,-0.41409 -0.17996,-0.92537 z m -209.599868,-1.64772 c -0.752276,-1.15069 -0.78415,-1.28469 -0.377616,-1.5875 0.626398,-0.46658 3.517872,-0.44349 3.517872,0.0281 0,0.42701 -1.779441,2.81617 -2.097476,2.81617 -0.121634,0 -0.590885,-0.56554 -1.04278,-1.25677 z m 22.8868727,-0.0605 c -0.8248203,-1.24639 -0.8319367,-1.29982 -0.233597,-1.75403 0.8465704,-0.64264 2.9765623,-0.35925 2.9765623,0.39601 0,0.46551 -1.481619,2.41068 -1.8361864,2.41068 -0.1155886,0 -0.5236392,-0.4737 -0.9067789,-1.05266 z m 43.4872663,-0.14019 c -0.451385,-0.65607 -0.754138,-1.30055 -0.672782,-1.43219 0.36882,-0.59676 3.849312,-0.63096 3.849312,-0.0378 0,0.33088 -1.853138,2.66286 -2.116075,2.66286 -0.131865,0 -0.609069,-0.53678 -1.060455,-1.19285 z m 93.383059,-0.0216 c -1.03781,-1.50841 -0.81998,-1.80645 1.32949,-1.81906 2.16864,-0.0127 2.44528,0.35086 1.23699,1.62578 -0.5269,0.55597 -0.95904,1.10014 -0.9603,1.20928 -0.007,0.59344 -0.87798,0.0424 -1.60618,-1.016 z m 22.96899,0.0617 c -1.18878,-1.88175 -1.05625,-2.11892 1.05833,-1.89391 2.11906,0.22549 2.26014,0.29107 1.93466,0.89924 -0.27708,0.51773 -1.88443,2.14764 -2.11718,2.1469 -0.0815,-2.6e-4 -0.47563,-0.51876 -0.87581,-1.15223 z m -138.112497,-0.0902 c -0.903612,-1.19099 -0.915051,-1.57003 -0.05236,-1.73494 1.020563,-0.19509 3.028922,0.0956 3.028922,0.43839 0,0.43974 -1.571077,2.27654 -1.937492,2.26519 -0.171307,-0.005 -0.638889,-0.44119 -1.03907,-0.96864 z m 44.563536,0.0241 c -0.728548,-1.12434 -0.599928,-1.67378 0.407325,-1.74001 1.198357,-0.0788 2.299579,0.051 2.549053,0.3005 0.256563,0.25656 -1.581674,2.39582 -2.054084,2.39045 -0.158525,-0.002 -0.564558,-0.42972 -0.902294,-0.95094 z m 21.411888,-0.0211 c -0.458182,-0.5364 -0.791266,-1.10194 -0.740187,-1.25677 0.05108,-0.15482 0.887053,-0.3167 1.857721,-0.35973 1.432543,-0.0635 1.764851,-0.003 1.764851,0.32152 0,0.42393 -1.501152,2.27026 -1.845823,2.27026 -0.111928,0 -0.578381,-0.43888 -1.036562,-0.97528 z m 123.863103,-0.0714 c -0.32742,-0.57341 -0.59531,-1.15924 -0.59531,-1.30184 0,-0.1426 0.66382,-0.34221 1.47515,-0.44358 2.04602,-0.25563 2.28262,0.071 1.145,1.58081 -0.49519,0.65719 -1.01942,1.19766 -1.16494,1.20104 -0.14552,0.003 -0.53247,-0.46302 -0.8599,-1.03643 z m 23.42449,0.58363 c -0.59949,-0.68728 -1.04446,-1.63393 -0.88744,-1.888 0.19518,-0.31581 2.15808,-0.54391 3.21068,-0.3731 l 0.8854,0.14368 -1.08793,1.29022 c -1.18398,1.40413 -1.50742,1.53029 -2.12071,0.8272 z m 21.9284,-1.56378 c -2.30823,-2.42511 -3.07008,-3.55234 -3.07834,-4.55471 -0.007,-0.86811 0.0166,-0.88808 0.85254,-0.71707 0.47294,0.0967 1.99099,0.2466 3.37343,0.33302 1.38245,0.0864 2.56241,0.2 2.62214,0.2524 0.0597,0.0524 -0.19788,0.89969 -0.57246,1.88286 -0.37458,0.98317 -0.82478,2.26384 -1.00045,2.84592 -0.17567,0.58208 -0.41094,1.15831 -0.52283,1.28049 -0.11188,0.12219 -0.8652,-0.47312 -1.67403,-1.32291 z m -322.173183,-5.48955 c 0,-0.20492 0.541441,-0.92969 1.203203,-1.61059 1.192128,-1.22661 1.215265,-1.23635 2.513542,-1.05779 0.826286,0.11364 1.310338,0.0813 1.310338,-0.0876 0,-0.62669 -0.355752,-1.1048 -0.822057,-1.1048 -0.275473,0 -0.494044,-0.14882 -0.485714,-0.33073 0.02017,-0.44044 2.257759,-4.03489 2.511771,-4.03489 0.109438,0 0.394935,0.83344 0.634438,1.85208 0.461436,1.96256 1.293022,3.88926 1.733437,4.01619 0.145521,0.0419 0.4213,-0.023 0.612842,-0.14433 0.284971,-0.1805 0.268423,-0.52832 -0.09105,-1.91393 -1.114758,-4.29684 -0.727334,-7.21844 1.223827,-9.22898 1.6597,-1.7102 2.872184,-2.01216 9.072761,-2.25944 2.779602,-0.11085 4.381586,-0.28908 4.865018,-0.54128 0.396425,-0.2068 0.855746,-0.37674 1.020714,-0.37764 0.450148,-0.002 2.212883,-2.05196 2.636185,-3.06506 0.524772,-1.25596 0.460592,-3.37137 -0.171486,-5.6523 -0.522382,-1.88508 -0.524852,-1.9751 -0.06615,-2.40996 0.559289,-0.53022 1.684309,-0.83856 2.08373,-0.57111 0.153951,0.10308 0.569118,1.19946 0.922593,2.43638 0.858769,3.00513 0.855129,5.47671 -0.01068,7.25305 -0.847583,1.73894 -3.463011,4.49702 -4.754416,5.01374 -1.127072,0.45096 -3.956033,0.83658 -8.083467,1.10187 -3.348314,0.21521 -4.385999,0.48221 -5.256248,1.35246 -0.867632,0.86763 -0.897512,1.84625 -0.15777,5.16726 0.591881,2.65719 0.517201,4.14613 -0.27314,5.44574 -0.630368,1.03656 -1.190058,1.12422 -7.178206,1.12422 -4.118079,0 -4.99401,-0.0654 -4.99401,-0.3726 z m 19.361746,-7.7818 c -0.964216,-2.13349 -0.866397,-2.33901 1.209607,-2.54142 0.982266,-0.0958 2.291953,-0.24223 2.910417,-0.32545 1.434101,-0.19298 1.472628,0.20053 0.168765,1.7238 -0.746858,0.87254 -3.059804,2.4183 -3.618535,2.4183 -0.05166,0 -0.353272,-0.57385 -0.670254,-1.27523 z M 270.45583,240.7392 c -2.32833,-0.12376 -4.56636,-0.36108 -4.97341,-0.52737 -1.47575,-0.6029 -1.93012,-2.42043 -1.3798,-5.51948 0.72679,-4.09279 0.52784,-5.12863 -1.22469,-6.37655 -0.73933,-0.52644 -1.28816,-0.60595 -5.48535,-0.79466 -5.13689,-0.23095 -6.62934,-0.55271 -8.59126,-1.85223 -1.62626,-1.07719 -3.28692,-3.51386 -3.68356,-5.40482 -0.26157,-1.24704 -0.22562,-1.78855 0.26105,-3.93267 0.31041,-1.36758 0.87075,-3.25228 1.24519,-4.18823 0.37444,-0.93595 0.68079,-2.01442 0.68079,-2.39659 0,-0.83131 -0.22992,-0.88394 -4.89479,-1.12062 -3.9593,-0.20087 -6.59402,-0.72786 -7.74957,-1.55004 -1.24978,-0.88924 -3.30551,-3.38682 -4.25699,-5.17197 -1.13901,-2.13701 -1.2489,-3.22387 -0.59312,-5.86626 0.3035,-1.22292 0.58572,-2.69973 0.62716,-3.28182 0.0986,-1.38458 0.85256,-1.54444 2.08607,-0.4423 l 0.87238,0.77947 -0.4539,2.36778 c -0.57575,3.00342 -0.56507,4.17489 0.0501,5.49714 0.59942,1.28835 2.40981,3.06061 3.91883,3.83631 0.94484,0.48569 1.93708,0.62717 6.48373,0.9245 3.75024,0.24526 5.70844,0.48721 6.49716,0.8028 1.43066,0.57244 3.86298,3.19419 4.76688,5.13814 l 0.6702,1.44134 -0.55378,2.6597 c -0.30458,1.46284 -0.47134,2.74462 -0.37058,2.8484 0.10077,0.10378 1.37227,0.26903 2.82556,0.36723 1.45329,0.0982 2.96039,0.3389 3.3491,0.53491 0.72681,0.36651 1.80679,1.67623 1.80679,2.19116 0,0.36236 -3.69513,0.37883 -7.0003,0.0312 -3.96718,-0.41726 -4.45582,-1.13081 -3.7639,-5.49641 0.2479,-1.56413 0.44954,-3.4603 0.44809,-4.21373 -0.002,-1.16753 -0.10694,-1.4519 -0.70884,-1.92536 -0.38842,-0.30552 -0.8349,-0.51334 -0.99219,-0.46182 -0.15729,0.0515 -0.5384,1.09654 -0.84691,2.32224 -0.30851,1.2257 -0.82555,3.22267 -1.14898,4.43769 -0.8322,3.12629 -0.31828,5.17823 1.71712,6.85598 1.40207,1.15571 2.60794,1.40685 7.96643,1.65914 3.89729,0.18349 5.08385,0.33081 6.02789,0.7484 1.33894,0.59227 2.6515,2.20863 3.07714,3.78935 0.28148,1.04531 0.13632,3.52333 -0.31046,5.3001 -0.38651,1.53709 -0.36307,2.87192 0.0552,3.14476 0.20597,0.13434 0.91027,0.21988 1.56511,0.19008 0.65484,-0.0298 2.08889,-0.0312 3.18678,-0.003 l 1.99615,0.051 0.98041,1.2856 c 1.10907,1.45431 1.16992,1.64081 0.51739,1.58576 -0.25466,-0.0215 -2.36802,-0.14033 -4.69636,-0.26409 z m 0.83342,-3.70451 c -0.70579,-0.10416 -1.42017,-0.24179 -1.5875,-0.30585 -0.40547,-0.15521 -0.23791,-3.16091 0.16866,-3.02538 0.44651,0.14884 2.90147,3.04408 2.79564,3.29702 -0.0514,0.12298 -0.67101,0.13837 -1.3768,0.0342 z m -17.23758,-3.94968 c -0.43656,-0.57952 -1.21047,-1.47355 -1.71979,-1.98673 l -0.92604,-0.93305 2.77812,0.17712 c 1.52797,0.0974 2.87024,0.26159 2.98281,0.36482 0.11258,0.10322 -0.0362,0.40573 -0.33072,0.67223 -0.29448,0.2665 -0.53542,0.743 -0.53542,1.05888 0,0.48858 -0.98706,1.75017 -1.33997,1.71265 -0.0634,-0.007 -0.47243,-0.4864 -0.90899,-1.06592 z m -296.788293,-2.26022 c -0.20014,-0.35229 0.46229,-1.75816 1.100627,-2.33584 0.310208,-0.28074 1.065745,-0.5774 1.678972,-0.65924 1.048307,-0.13992 1.38404,-0.70179 0.392914,-0.65757 -0.284251,0.0127 -0.376664,-0.0875 -0.244069,-0.26459 0.117365,-0.15674 0.769707,-0.98051 1.449648,-1.8306 0.679941,-0.85008 1.236257,-1.65375 1.236257,-1.78594 0,-0.13218 0.103845,-0.24033 0.230767,-0.24033 0.126922,0 0.310477,0.49848 0.4079,1.10773 0.09742,0.60925 0.361491,1.49623 0.586818,1.97107 0.225327,0.47485 0.341361,0.9739 0.257853,1.10902 -0.144352,0.23357 1.400039,0.68992 1.613257,0.4767 0.05591,-0.0559 -0.142242,-1.2985 -0.440343,-2.76131 -0.45071,-2.21167 -0.493385,-2.88634 -0.253362,-4.00552 0.364277,-1.69857 1.636666,-3.60612 3.076977,-4.61297 0.968952,-0.67735 1.451949,-0.80614 3.704166,-0.98772 1.424459,-0.11484 3.673486,-0.21458 4.997838,-0.22165 1.324353,-0.007 2.812634,-0.14852 3.307292,-0.31435 1.571935,-0.52696 3.102123,-1.85758 3.84255,-3.3414 0.765786,-1.53464 0.759857,-2.06194 -0.06994,-6.22036 -0.375002,-1.87928 -0.373696,-2.1145 0.01504,-2.70778 0.46313,-0.70683 1.633411,-1.13706 2.025742,-0.74473 0.514715,0.51471 1.586481,4.81492 1.742751,6.99236 0.157704,2.19743 0.134372,2.32984 -0.679716,3.85722 -2.115138,3.96841 -5.054762,5.63953 -9.926787,5.6432 -4.179417,0.003 -6.996627,0.40313 -7.736742,1.09843 -1.069181,1.00444 -1.229869,2.25966 -0.721879,5.63897 0.51829,3.44783 0.379816,4.13452 -1.0247,5.08146 -0.767888,0.51772 -1.339798,0.59498 -5.645816,0.76265 -2.714327,0.10569 -4.848874,0.0854 -4.924016,-0.0469 z m 6.071858,-3.43604 c -0.08792,-0.0879 -0.316122,-0.0973 -0.507118,-0.0209 -0.211067,0.0845 -0.148373,0.14716 0.159852,0.15985 0.278915,0.0115 0.435184,-0.051 0.347266,-0.13896 z m 13.942519,-2.66998 c -0.08059,-0.2626 -0.442194,-1.11672 -0.803567,-1.89804 -0.681168,-1.47274 -0.668925,-1.68716 0.101116,-1.77083 3.302472,-0.35883 4.613548,-0.42303 4.527805,-0.22172 -0.2524,0.59259 -2.543247,3.50118 -3.080751,3.91149 -0.568308,0.43383 -0.60537,0.43279 -0.744603,-0.0209 z m 264.290936,-9.40663 c -1.14042,-1.2057 -2.73056,-3.35929 -2.73056,-3.6981 0,-0.38224 4.52265,-0.0639 4.76963,0.33568 0.17734,0.28694 -0.69179,3.62392 -1.04804,4.02388 -0.0975,0.10942 -0.54343,-0.18824 -0.99103,-0.66146 z m -271.459062,-2.9967 c -0.103988,-0.27099 0.241678,-0.82559 0.989434,-1.5875 0.88963,-0.90646 1.342485,-1.171 2.004595,-1.171 0.929447,0 1.388483,-0.38148 0.752639,-0.62548 -0.339247,-0.13018 -0.322242,-0.28214 0.1196,-1.0688 1.323547,-2.35647 1.914779,-3.12569 2.190506,-2.84996 0.287924,0.28792 0.779032,2.53302 0.834877,3.81663 0.02802,0.64407 0.134378,0.72761 0.926388,0.72761 h 0.894733 l -0.171701,-1.12448 c -0.383428,-2.5111 -0.480486,-5.92301 -0.197971,-6.95936 0.365916,-1.3423 1.888714,-3.14813 3.233043,-3.83396 1.654993,-0.84431 4.510123,-1.31137 8.016437,-1.31137 4.3605462,0 5.5282301,-0.36112 7.5432748,-2.33284 1.96934623,-1.92701 2.13429267,-2.68921 1.4585704,-6.73996 l -0.483315,-2.89732 0.6140545,-0.49723 c 0.33772997,-0.27348 0.98781738,-0.49664 1.44463869,-0.4959 0.81685081,0.001 0.84083881,0.0385 1.45077271,2.2466 0.9741866,3.52685 1.0310616,5.08345 0.2478159,6.78241 -0.8043354,1.74471 -2.81485362,4.24124 -4.2567259,5.28573 -1.5365146,1.11304 -3.1551586,1.49799 -8.2493361,1.96188 -4.932077,0.44913 -6.81747,1.02695 -7.688516,2.35634 -0.47111,0.719 -0.470442,0.83001 0.03851,6.4026 0.170931,1.87153 0.165459,1.89323 -0.720892,2.85825 -1.161334,1.26442 -2.081386,1.45948 -6.920705,1.46729 -3.318006,0.005 -3.935137,-0.0568 -4.070731,-0.41018 z m 19.9224189,-5.14148 c -0.071826,-0.21733 -0.3285919,-1.10952 -0.5705919,-1.98265 -0.241999,-0.87312 -0.566573,-1.74137 -0.721276,-1.92944 -0.167434,-0.20355 -0.184084,-0.43226 -0.04114,-0.56508 0.289809,-0.2693 5.6640989,-0.66429 5.6640989,-0.4163 0,0.0959 -0.7441405,1.07243 -1.6536457,2.17015 -0.9095052,1.09772 -1.8546179,2.24844 -2.1002504,2.55716 -0.36103,0.45375 -0.4716279,0.48559 -0.5771979,0.16616 z M 242.14202,202.4292 c -4.43945,-0.17709 -5.36541,-0.48331 -6.29992,-2.0834 -0.46908,-0.80318 -0.47915,-1.03154 -0.15703,-3.56252 0.4934,-3.87668 0.44061,-4.99044 -0.28478,-6.00916 -1.00908,-1.41712 -1.96542,-1.65831 -7.41387,-1.86978 -5.4882,-0.21302 -6.34273,-0.43102 -8.02843,-2.04819 -1.53493,-1.47254 -3.07582,-3.65005 -3.53358,-4.9935 -0.42401,-1.24439 -0.39212,-1.84749 0.29136,-5.51077 0.33975,-1.82097 0.17705,-2.71763 -0.42555,-2.34521 -0.14462,0.0894 -1.41105,0.14538 -2.81429,0.12444 -2.44708,-0.0365 -2.57837,-0.0687 -3.2128,-0.78693 -1.24591,-1.41051 -1.62528,-1.93751 -1.49125,-2.07154 0.0738,-0.0738 2.25519,0.006 4.84759,0.17662 6.73497,0.44404 6.98297,0.66529 6.02055,5.37114 -0.53083,2.59553 -0.52794,4.69768 0.008,5.73385 0.53528,1.0351 2.29896,2.49726 3.50706,2.90747 0.58357,0.19816 3.14684,0.41344 6.1658,0.51785 4.7985,0.16595 5.24194,0.22356 6.21771,0.80772 1.65116,0.98849 2.52275,1.89406 3.19825,3.32292 0.74187,1.56927 0.76509,2.28211 0.2067,6.34373 -0.23314,1.69574 -0.35584,3.15121 -0.27267,3.23438 0.0832,0.0832 1.84933,0.18521 3.9248,0.22674 l 3.77358,0.0755 0.997,1.06884 c 0.54835,0.58786 0.997,1.1925 0.997,1.34366 0,0.15402 -0.4943,0.25499 -1.12448,0.22969 -0.61847,-0.0248 -2.91195,-0.11643 -5.09663,-0.20358 z m 0.17416,-3.38788 c -1.86778,-0.0882 -1.93858,-0.11528 -1.7633,-0.67503 0.10044,-0.32074 0.24688,-1.56543 0.32544,-2.76597 0.0786,-1.20055 0.2172,-2.17905 0.30809,-2.17444 0.0909,0.005 0.6953,0.80828 1.34313,1.78594 0.64783,0.97766 1.51103,2.21141 1.91823,2.74167 0.86444,1.1257 0.90445,1.30348 0.27734,1.23227 -0.25466,-0.0289 -1.33868,-0.0939 -2.40893,-0.14444 z m -16.51588,-5.03514 c -0.97836,-0.98592 -1.77884,-1.87776 -1.77884,-1.98186 0,-0.18226 5.57567,0.0464 5.79716,0.23777 0.0597,0.0516 -0.0895,0.31279 -0.33172,0.58041 -0.24219,0.26762 -0.62968,1.04225 -0.8611,1.72141 -0.23141,0.67917 -0.56158,1.23484 -0.7337,1.23484 -0.17213,0 -1.11343,-0.80666 -2.0918,-1.79257 z m -242.209027,-0.4151 c -0.07877,-0.12745 0.377909,-0.74408 1.014845,-1.37027 l 1.158065,-1.13854 3.640764,-0.11395 c 2.0024206,-0.0627 3.6972964,-0.17048 3.7663909,-0.23957 0.069095,-0.0691 -0.054491,-1.1295 -0.2746338,-2.35646 -0.8659246,-4.82619 -0.4129601,-7.14156 1.7857308,-9.12795 1.7806217,-1.60868 2.4435007,-1.77095 8.0150806,-1.96209 5.3159338,-0.18236 6.1023049,-0.34704 7.3657915,-1.54252 1.505049,-1.42403 2.079554,-2.77812 2.070141,-4.87926 -0.0047,-1.05431 -0.132533,-2.45271 -0.284022,-3.10755 -0.151488,-0.65484 -0.278344,-1.70447 -0.281901,-2.3325 -0.0145,-2.55924 0.796278,-2.95039 6.812439,-3.28659 2.525342,-0.14112 4.652206,-0.19591 4.726365,-0.12175 0.07416,0.0742 -0.307391,0.80088 -0.847887,1.61492 l -0.982722,1.48009 -2.013061,0.0134 c -1.692335,0.0113 -4.2915,0.21417 -4.434799,0.34614 -0.02227,0.0205 0.136849,1.04932 0.353595,2.28625 0.582831,3.3261 0.396664,5.14041 -0.720019,7.01708 -1.316469,2.21241 -3.756935,4.75098 -5.0740071,5.27797 -0.8190651,0.32772 -2.4062566,0.49031 -6.1460291,0.62958 -5.641181,0.21009 -6.0783567,0.3431 -6.913734,2.10353 -0.4222483,0.88982 -0.4338705,1.27255 -0.134106,4.41628 0.2226961,2.33548 0.243728,3.6622 0.065422,4.12694 -0.4502574,1.17354 -1.7399086,2.03855 -3.2821726,2.20146 -2.4451663,0.25829 -9.2370612,0.30556 -9.3855362,0.0653 z m 3.179759,-3.44211 c 0.234441,-0.61094 3.3986358,-4.93355 3.6114119,-4.93355 0.1106694,0 0.3865535,0.92273 0.6130757,2.05052 0.2265222,1.12779 0.436161,2.16958 0.4658639,2.3151 0.1723984,0.84462 -0.040236,0.92605 -2.4182165,0.92605 -1.917226,0 -2.381478,-0.0732 -2.272135,-0.35812 z m 16.7863793,-4.28529 c -0.5457031,-0.8041 -0.9921875,-1.61863 -0.9921875,-1.81006 0,-0.33685 2.5541451,-0.69028 4.9884078,-0.69028 h 0.9398185 l -0.9296334,0.99218 c -0.5112984,0.54571 -1.255896,1.43868 -1.6546615,1.98438 -0.3987655,0.5457 -0.867797,0.99074 -1.0422923,0.98898 -0.1744953,-0.002 -0.7637485,-0.6611 -1.3094516,-1.4652 z M 230.37146,180.30675 c -0.21828,-0.0466 -0.96242,-0.15918 -1.65364,-0.2501 -1.11946,-0.14726 -1.25677,-0.23747 -1.25677,-0.8257 0,-0.87351 0.54476,-3.01136 0.76734,-3.01136 0.19192,0 3.20141,3.83753 3.20141,4.08226 0,0.15431 -0.35132,0.15594 -1.05834,0.005 z m -16.60078,-1.9705 c -0.14812,-0.3653 -0.16414,-0.70094 -0.0358,-0.74965 0.47364,-0.17974 0.65847,0.10668 0.48374,0.74965 l -0.17976,0.66146 z m 0.19662,-1.99268 c 0,-0.40033 0.69758,-0.83751 0.94368,-0.59141 0.0699,0.0699 0.052,0.32274 -0.0397,0.56185 -0.21051,0.54857 -0.90396,0.57125 -0.90396,0.0296 z m -2.35825,-13.34364 c -1.64129,-0.26545 -2.40425,-1.20409 -2.40425,-2.95785 0,-1.59197 1.5947,-7.67576 1.97921,-7.55069 0.14836,0.0483 0.68646,0.79806 1.19579,1.66622 1.39878,2.38429 3.31615,4.97734 5.05432,6.83545 0.85814,0.91735 1.56026,1.80157 1.56026,1.96493 0,0.33434 -5.38819,0.36494 -7.38533,0.0419 z m 1.40085,-3.21837 c 0.4902,-0.22335 0.59805,-0.40642 0.42864,-0.7276 -0.1245,-0.23604 -0.3026,-0.66729 -0.39576,-0.95833 -0.14018,-0.43788 -0.2057,-0.4607 -0.37981,-0.13229 -0.2544,0.47988 -0.58019,2.11666 -0.4213,2.11666 0.0623,0 0.40798,-0.13429 0.76823,-0.29844 z m -13.46992,-3.29317 c -1.20915,-1.39829 -2.24143,-2.85438 -2.24143,-3.16166 0,-0.0692 1.19062,-0.12589 2.64583,-0.12589 1.45521,0 2.64583,0.10425 2.64583,0.23166 0,0.12741 -0.31279,0.93108 -0.6951,1.78594 -0.38231,0.85485 -0.77265,1.83256 -0.86742,2.17269 -0.1622,0.58212 -0.24951,0.52914 -1.48771,-0.90274 z"
         id="path2" /></g></g></svg>
